if (_typeface_js && _typeface_js.loadFace) _typeface_js.loadFace({"glyphs":{"0":{"ha":833,"x_min":0,"x_max":0,"o":"m 417 90 b 628 489 558 90 628 217 b 417 882 628 760 558 882 b 206 489 275 882 206 760 b 417 90 206 217 275 90 m 417 -21 b 69 489 219 -21 69 140 b 417 993 69 847 221 993 b 764 489 613 993 764 847 b 417 -21 764 140 614 -21 "},"1":{"ha":833,"x_min":0,"x_max":0,"o":"m 403 0 l 403 833 l 185 721 l 185 858 l 404 972 l 535 972 l 535 0 "},"2":{"ha":833,"x_min":0,"x_max":0,"o":"m 83 718 b 425 993 104 874 233 993 b 742 717 606 993 742 888 b 510 333 742 585 685 500 l 288 122 l 738 122 l 738 0 l 107 0 l 107 122 l 424 426 b 606 715 556 553 606 621 b 422 881 606 814 538 881 b 224 718 313 881 235 819 "},"3":{"ha":833,"x_min":0,"x_max":0,"o":"m 763 265 b 418 -19 763 99 626 -19 b 68 242 214 -19 90 86 l 210 242 b 415 92 232 144 297 92 b 626 268 549 92 626 164 b 435 451 626 401 524 451 l 354 451 l 354 567 l 432 567 b 593 729 506 567 593 617 b 407 882 593 833 501 882 b 211 743 299 882 225 826 l 71 743 b 414 993 94 894 229 993 b 729 739 576 993 729 913 b 554 517 729 633 656 549 b 763 265 664 493 763 411 "},"4":{"ha":833,"x_min":0,"x_max":0,"o":"m 617 972 l 617 297 l 774 297 l 774 183 l 617 183 l 617 0 l 488 0 l 488 183 l 61 183 l 61 307 l 478 972 m 488 297 l 488 757 l 210 297 "},"5":{"ha":833,"x_min":0,"x_max":0,"o":"m 213 236 b 418 92 231 157 300 92 b 629 321 538 92 629 175 b 421 542 629 464 546 542 b 226 453 354 542 279 515 l 108 453 l 129 972 l 726 972 l 726 860 l 250 860 l 239 575 b 451 646 293 618 361 646 b 767 315 621 646 767 533 b 417 -21 767 135 639 -21 b 71 236 217 -21 93 104 "},"6":{"ha":833,"x_min":0,"x_max":0,"o":"m 461 636 b 764 310 651 636 764 500 b 439 -21 764 86 599 -21 b 97 447 214 -21 97 144 b 451 993 97 883 272 993 b 744 788 599 993 714 914 l 597 788 b 450 885 581 846 529 885 b 229 510 340 885 244 796 b 461 636 288 603 382 636 m 243 314 b 439 90 243 169 328 90 b 629 303 544 90 629 167 b 438 525 629 440 554 525 b 243 314 307 525 243 426 "},"7":{"ha":833,"x_min":0,"x_max":0,"o":"m 325 0 l 174 0 l 581 853 l 104 853 l 104 972 l 722 972 l 722 853 "},"8":{"ha":833,"x_min":0,"x_max":0,"o":"m 735 743 b 575 518 735 632 651 558 b 771 263 667 478 771 400 b 417 -21 771 97 629 -21 b 63 253 204 -21 63 94 b 253 510 63 401 165 476 b 99 733 179 544 99 610 b 417 993 99 913 250 993 b 735 743 583 993 735 919 m 629 263 b 388 468 629 417 496 444 b 204 263 307 444 204 385 b 417 89 204 168 272 89 b 629 263 558 89 629 161 m 229 740 b 444 553 229 593 361 564 b 601 740 515 581 601 638 b 417 889 601 832 518 889 b 229 740 315 889 229 840 "},"9":{"ha":833,"x_min":0,"x_max":0,"o":"m 400 336 b 97 663 222 336 97 458 b 422 993 97 864 238 993 b 764 525 647 993 764 838 b 406 -21 764 99 599 -21 b 111 188 256 -21 143 61 l 258 188 b 411 88 276 125 329 88 b 631 461 529 88 617 175 b 400 336 572 368 478 336 m 618 658 b 422 882 618 803 533 882 b 232 669 315 882 232 804 b 424 447 232 524 315 447 b 618 658 554 447 618 546 "},"\u0000":{"ha":0,"x_min":0,"x_max":0,"o":""},"\r":{"ha":417,"x_min":0,"x_max":0,"o":""}," ":{"ha":417,"x_min":0,"x_max":0,"o":""},"!":{"ha":396,"x_min":0,"x_max":0,"o":"m 118 0 l 118 161 l 278 161 l 278 0 m 146 333 l 118 1000 l 278 1000 l 250 333 "},"\"":{"ha":833,"x_min":0,"x_max":0,"o":"m 229 681 l 132 681 l 111 893 l 111 1021 l 250 1021 l 250 893 m 451 681 l 354 681 l 333 893 l 333 1021 l 472 1021 l 472 893 "},"#":{"ha":833,"x_min":0,"x_max":0,"o":"m 56 722 l 174 722 l 196 972 l 313 972 l 290 722 l 583 722 l 606 972 l 722 972 l 700 722 l 806 722 l 806 618 l 690 618 l 668 354 l 778 354 l 778 250 l 658 250 l 638 0 l 521 0 l 542 250 l 249 250 l 228 0 l 111 0 l 132 250 l 28 250 l 28 354 l 142 354 l 164 618 l 56 618 m 258 354 l 551 354 l 574 618 l 281 618 "},"$":{"ha":833,"x_min":0,"x_max":0,"o":"m 358 -17 b 35 271 190 1 61 97 l 181 271 b 422 96 197 161 274 96 b 657 264 581 96 657 169 b 358 465 657 353 613 400 b 69 742 144 521 69 608 b 358 990 69 869 168 972 l 358 1153 l 482 1153 l 482 990 b 792 731 664 972 769 879 l 646 731 b 408 876 629 825 558 876 b 211 750 268 876 211 821 b 458 575 211 679 238 632 b 799 269 714 510 799 410 b 482 -18 799 129 688 1 l 482 -187 l 358 -187 "},"%":{"ha":1168,"x_min":0,"x_max":0,"o":"m 522 758 b 285 524 522 601 406 524 b 49 758 164 524 49 601 b 285 993 49 915 164 993 b 522 758 406 993 522 915 m 161 758 b 285 621 161 658 217 621 b 411 758 353 621 411 658 b 285 896 411 858 353 896 b 161 758 217 896 161 858 m 381 0 l 247 0 l 778 972 l 911 972 m 1119 214 b 882 -21 1119 57 1003 -21 b 646 214 761 -21 646 57 b 882 449 646 371 761 449 b 1119 214 1003 449 1119 371 m 758 214 b 882 76 758 114 814 76 b 1008 214 950 76 1008 114 b 882 351 1008 314 950 351 b 758 214 814 351 758 314 "},"&":{"ha":951,"x_min":0,"x_max":0,"o":"m 868 457 b 774 194 857 369 826 276 l 910 67 l 811 -21 l 692 94 b 397 -21 618 25 519 -21 b 56 239 196 -21 56 82 b 258 522 56 382 133 453 b 131 756 161 621 131 672 b 396 993 131 874 238 993 b 657 778 554 993 657 883 b 453 499 657 642 571 558 l 685 279 b 746 472 717 340 738 410 m 407 94 b 608 176 490 94 557 126 l 338 442 b 194 249 246 390 194 336 b 407 94 194 154 271 94 m 260 757 b 368 579 260 696 285 661 b 532 774 483 640 532 692 b 399 885 532 825 490 885 b 260 757 300 885 260 814 "},"'":{"ha":375,"x_min":0,"x_max":0,"o":"m 236 681 l 139 681 l 118 893 l 118 1021 l 257 1021 l 257 893 "},"(":{"ha":472,"x_min":0,"x_max":0,"o":"m 225 444 b 431 -236 225 164 315 -60 l 321 -236 b 90 444 214 -94 90 143 b 321 1125 90 746 214 983 l 431 1125 b 225 444 315 949 225 725 "},")":{"ha":472,"x_min":0,"x_max":0,"o":"m 247 444 b 42 1125 247 725 157 949 l 151 1125 b 382 444 258 983 382 746 b 151 -236 382 143 258 -94 l 42 -236 b 247 444 157 -60 247 164 "},"*":{"ha":653,"x_min":0,"x_max":0,"o":"m 363 815 l 550 901 l 590 785 l 386 743 l 525 593 l 425 521 l 325 699 l 224 519 l 125 593 l 264 744 l 63 785 l 103 901 l 288 817 l 264 1021 l 386 1021 "},"+":{"ha":833,"x_min":0,"x_max":0,"o":"m 354 388 l 125 388 l 125 506 l 354 506 l 354 739 l 481 739 l 481 506 l 708 506 l 708 388 l 481 388 l 481 156 l 354 156 "},",":{"ha":417,"x_min":0,"x_max":0,"o":"m 289 21 b 107 -208 289 -137 194 -197 l 107 -139 b 193 0 158 -128 193 -92 l 128 0 l 128 161 l 289 161 "},"-":{"ha":750,"x_min":0,"x_max":0,"o":"m 125 389 l 125 507 l 625 507 l 625 389 "},".":{"ha":417,"x_min":0,"x_max":0,"o":"m 128 0 l 128 161 l 289 161 l 289 0 "},"/":{"ha":556,"x_min":0,"x_max":0,"o":"m 388 1021 l 514 1021 l 168 -125 l 42 -125 "},":":{"ha":417,"x_min":0,"x_max":0,"o":"m 128 0 l 128 161 l 289 161 l 289 0 m 128 561 l 128 722 l 289 722 l 289 561 "},";":{"ha":417,"x_min":0,"x_max":0,"o":"m 128 561 l 128 722 l 289 722 l 289 561 m 289 21 b 107 -208 289 -137 194 -197 l 107 -139 b 193 0 158 -128 193 -92 l 128 0 l 128 161 l 289 161 "},"<":{"ha":833,"x_min":0,"x_max":0,"o":"m 257 444 l 708 251 l 708 118 l 125 382 l 125 514 l 708 778 l 708 644 l 257 451 "},"=":{"ha":833,"x_min":0,"x_max":0,"o":"m 125 246 l 125 364 l 708 364 l 708 246 m 125 531 l 125 649 l 708 649 l 708 531 "},">":{"ha":833,"x_min":0,"x_max":0,"o":"m 576 451 l 125 644 l 125 778 l 708 514 l 708 382 l 125 118 l 125 251 l 576 444 "},"?":{"ha":810,"x_min":0,"x_max":0,"o":"m 319 0 l 319 161 l 479 161 l 479 0 m 331 290 b 494 589 331 450 371 525 b 611 763 579 632 611 689 b 424 904 611 847 538 904 b 214 743 301 904 229 850 l 69 743 b 428 1021 97 922 232 1021 b 754 763 628 1021 754 904 b 550 474 754 644 690 551 b 463 290 479 435 463 388 "},"@":{"ha":1258,"x_min":0,"x_max":0,"o":"m 908 132 b 757 261 825 132 764 201 b 561 146 735 215 658 146 b 346 386 461 146 346 210 b 639 768 346 601 446 768 b 768 688 690 768 747 739 l 793 758 l 892 758 l 840 364 b 836 307 838 342 836 322 b 904 233 836 257 858 233 b 1061 554 983 233 1061 354 b 640 915 1061 781 881 915 b 197 433 454 915 197 789 b 653 -18 197 121 428 -18 b 865 18 731 -18 807 -1 l 865 -90 b 642 -126 808 -111 725 -126 b 69 435 353 -126 69 57 b 640 1021 69 867 404 1021 b 1189 556 918 1021 1189 858 b 908 132 1189 324 1076 132 m 588 249 b 744 543 671 249 744 338 b 649 668 744 617 722 668 b 472 385 531 668 472 544 b 588 249 472 285 532 249 "},"A":{"ha":981,"x_min":0,"x_max":0,"o":"m 824 0 l 725 253 l 249 253 l 149 0 l 0 0 l 411 1000 l 571 1000 l 981 0 m 294 368 l 679 368 l 489 858 "},"B":{"ha":906,"x_min":0,"x_max":0,"o":"m 464 1000 b 813 735 694 1000 813 900 b 651 529 813 640 743 553 b 843 282 754 511 843 414 b 461 0 843 106 713 0 l 104 0 l 104 1000 m 246 469 l 246 115 l 482 115 b 696 282 626 115 696 175 b 488 469 696 404 625 469 m 246 893 l 246 578 l 483 578 b 669 735 606 578 669 642 b 475 893 669 833 599 893 "},"C":{"ha":1013,"x_min":0,"x_max":0,"o":"m 524 99 b 814 353 686 99 806 208 l 957 353 b 521 -21 946 158 775 -21 b 63 500 242 -21 63 167 b 532 1021 63 838 257 1021 b 956 679 772 1021 942 863 l 813 679 b 532 903 794 815 686 903 b 207 500 340 903 207 771 b 524 99 207 242 336 99 "},"D":{"ha":983,"x_min":0,"x_max":0,"o":"m 429 1000 b 921 500 724 1000 921 843 b 419 0 921 176 713 0 l 104 0 l 104 1000 m 246 888 l 246 117 l 433 117 b 778 500 653 117 778 249 b 431 888 778 763 644 888 "},"E":{"ha":797,"x_min":0,"x_max":0,"o":"m 688 450 l 246 450 l 246 119 l 728 119 l 728 0 l 104 0 l 104 1000 l 728 1000 l 728 881 l 246 881 l 246 567 l 688 567 "},"F":{"ha":779,"x_min":0,"x_max":0,"o":"m 668 422 l 246 422 l 246 0 l 104 0 l 104 1000 l 717 1000 l 717 881 l 246 881 l 246 540 l 668 540 "},"G":{"ha":1025,"x_min":0,"x_max":0,"o":"m 936 0 l 832 0 l 813 119 b 506 -21 750 32 639 -21 b 63 501 257 -21 63 165 b 521 1021 63 844 267 1021 b 935 707 749 1021 911 883 l 796 707 b 521 903 771 829 668 903 b 207 501 346 903 207 772 b 522 96 207 232 358 96 b 808 346 678 96 808 199 l 808 424 l 515 424 l 515 538 l 936 538 "},"H":{"ha":982,"x_min":0,"x_max":0,"o":"m 878 1000 l 878 0 l 735 0 l 735 446 l 246 446 l 246 0 l 104 0 l 104 1000 l 246 1000 l 246 565 l 735 565 l 735 1000 "},"I":{"ha":350,"x_min":0,"x_max":0,"o":"m 246 1000 l 246 0 l 104 0 l 104 1000 "},"J":{"ha":750,"x_min":0,"x_max":0,"o":"m 178 281 b 347 99 183 153 247 99 b 511 294 450 99 511 169 l 511 1000 l 653 1000 l 653 293 b 342 -21 653 92 540 -21 b 35 281 160 -21 40 107 "},"K":{"ha":878,"x_min":0,"x_max":0,"o":"m 683 0 l 246 471 l 246 0 l 104 0 l 104 1000 l 246 1000 l 246 556 l 653 1000 l 828 1000 l 374 522 l 871 0 "},"L":{"ha":767,"x_min":0,"x_max":0,"o":"m 247 1000 l 247 126 l 718 126 l 718 0 l 104 0 l 104 1000 "},"M":{"ha":1210,"x_min":0,"x_max":0,"o":"m 550 0 l 242 783 l 242 0 l 104 0 l 104 1000 l 301 1000 l 619 167 l 919 1000 l 1106 1000 l 1106 0 l 972 0 l 972 776 l 683 0 "},"N":{"ha":999,"x_min":0,"x_max":0,"o":"m 894 1000 l 894 0 l 715 0 l 233 838 l 233 0 l 104 0 l 104 1000 l 292 1000 l 768 169 l 768 1000 "},"O":{"ha":1075,"x_min":0,"x_max":0,"o":"m 538 -21 b 63 500 260 -21 63 169 b 539 1021 63 836 275 1021 b 1013 500 803 1021 1013 844 b 538 -21 1013 169 807 -21 m 538 94 b 868 500 733 94 868 236 b 538 906 868 764 733 906 b 207 500 342 906 207 764 b 538 94 207 236 342 94 "},"P":{"ha":876,"x_min":0,"x_max":0,"o":"m 429 1000 b 821 675 681 1000 821 886 b 424 357 821 472 686 357 l 246 357 l 246 0 l 104 0 l 104 1000 m 246 885 l 246 472 l 426 472 b 674 675 603 472 674 544 b 432 885 674 807 589 885 "},"Q":{"ha":1075,"x_min":0,"x_max":0,"o":"m 538 -21 b 63 500 260 -21 63 169 b 539 1021 63 836 275 1021 b 1013 500 803 1021 1013 844 b 847 89 1013 317 949 178 l 1008 -112 l 894 -187 l 747 24 b 538 -21 685 -6 613 -21 m 538 94 b 868 500 733 94 868 236 b 538 906 868 764 733 906 b 207 500 342 906 207 764 b 538 94 207 236 342 94 "},"R":{"ha":906,"x_min":0,"x_max":0,"o":"m 725 0 l 483 381 l 246 381 l 246 0 l 104 0 l 104 1000 l 428 1000 b 824 686 682 1000 824 888 b 622 410 824 535 732 451 l 892 0 m 246 885 l 246 496 l 435 496 b 676 686 590 496 676 569 b 431 885 676 815 599 885 "},"S":{"ha":907,"x_min":0,"x_max":0,"o":"m 703 271 b 388 481 703 364 657 407 b 83 764 156 544 83 626 b 442 1021 83 910 213 1021 b 838 750 656 1021 813 919 l 692 750 b 442 904 676 847 592 904 b 225 769 289 904 225 844 b 488 590 225 692 258 654 b 844 276 765 513 844 431 b 454 -21 844 121 703 -21 b 49 281 239 -21 76 97 l 194 281 b 451 96 211 168 303 96 b 703 271 618 96 703 176 "},"T":{"ha":838,"x_min":0,"x_max":0,"o":"m 824 874 l 488 874 l 488 0 l 346 0 l 346 874 l 14 874 l 14 1000 l 824 1000 "},"U":{"ha":982,"x_min":0,"x_max":0,"o":"m 239 1000 l 239 322 b 493 99 239 189 329 99 b 747 322 657 99 747 190 l 747 1000 l 885 1000 l 885 335 b 492 -21 885 114 728 -21 b 97 335 250 -21 97 119 l 97 1000 "},"V":{"ha":899,"x_min":0,"x_max":0,"o":"m 899 1000 l 540 0 l 364 0 l 0 1000 l 150 1000 l 453 133 l 760 1000 "},"W":{"ha":1338,"x_min":0,"x_max":0,"o":"m 1331 1000 l 1067 0 l 903 0 l 676 847 l 443 0 l 269 0 l 7 1000 l 151 1000 l 364 168 l 593 1000 l 769 1000 l 986 171 l 1200 1000 "},"X":{"ha":906,"x_min":0,"x_max":0,"o":"m 532 521 l 892 0 l 722 0 l 454 404 l 174 0 l 14 0 l 375 517 l 39 1000 l 206 1000 l 460 628 l 719 1000 l 881 1000 "},"Y":{"ha":874,"x_min":0,"x_max":0,"o":"m 367 0 l 367 397 l 0 1000 l 156 1000 l 438 519 l 729 1000 l 874 1000 l 507 397 l 507 0 "},"Z":{"ha":888,"x_min":0,"x_max":0,"o":"m 222 122 l 818 122 l 818 0 l 56 0 l 56 124 l 664 878 l 88 878 l 88 1000 l 832 1000 l 832 881 "},"[":{"ha":472,"x_min":0,"x_max":0,"o":"m 396 -236 l 104 -236 l 104 1125 l 396 1125 l 396 1014 l 232 1014 l 232 -125 l 396 -125 "},"\\":{"ha":556,"x_min":0,"x_max":0,"o":"m 514 -125 l 388 -125 l 42 1021 l 168 1021 "},"]":{"ha":472,"x_min":0,"x_max":0,"o":"m 76 -125 l 240 -125 l 240 1014 l 76 1014 l 76 1125 l 368 1125 l 368 -236 l 76 -236 "},"^":{"ha":694,"x_min":0,"x_max":0,"o":"m 181 556 l 36 556 l 285 1000 l 410 1000 l 658 556 l 514 556 l 347 865 "},"_":{"ha":833,"x_min":0,"x_max":0,"o":"m 42 -181 l 42 -62 l 792 -62 l 792 -181 "},"`":{"ha":397,"x_min":0,"x_max":0,"o":"m 356 831 l 236 831 l 42 1021 l 214 1021 "},"a":{"ha":764,"x_min":0,"x_max":0,"o":"m 69 521 b 379 743 83 654 199 743 b 674 493 568 743 674 642 l 674 0 l 564 0 l 547 99 b 306 -21 500 32 422 -21 b 56 186 147 -21 56 68 b 329 426 56 318 135 393 l 540 463 l 540 499 b 374 638 540 588 481 638 b 211 521 271 638 221 593 m 338 92 b 540 265 439 92 540 167 l 540 358 l 361 326 b 197 200 232 304 197 264 b 338 92 197 131 247 92 "},"b":{"ha":846,"x_min":0,"x_max":0,"o":"m 97 0 l 97 1000 l 231 1000 l 231 622 b 472 743 279 692 360 743 b 790 367 663 743 790 607 b 463 -21 790 117 653 -21 b 228 96 351 -21 275 28 l 207 0 m 651 369 b 442 629 651 547 561 629 b 224 369 322 629 224 542 b 442 93 224 194 311 93 b 651 369 567 93 651 179 "},"c":{"ha":769,"x_min":0,"x_max":0,"o":"m 714 232 b 397 -21 694 92 576 -21 b 56 356 206 -21 56 111 b 396 743 56 597 192 743 b 708 508 560 743 685 656 l 561 508 b 399 631 543 588 483 631 b 197 351 281 631 197 543 b 400 92 197 175 288 92 b 568 232 489 92 554 142 "},"d":{"ha":846,"x_min":0,"x_max":0,"o":"m 639 0 l 615 101 b 375 -21 567 31 488 -21 b 56 357 193 -21 56 113 b 383 743 56 615 190 743 b 615 631 493 743 568 696 l 615 1000 l 749 1000 l 749 0 m 194 354 b 404 93 194 181 283 93 b 622 353 542 93 622 201 b 404 629 622 529 538 629 b 194 354 278 629 194 543 "},"e":{"ha":804,"x_min":0,"x_max":0,"o":"m 733 208 b 410 -21 697 76 583 -21 b 56 361 204 -21 56 107 b 403 743 56 613 203 743 b 742 332 603 743 742 624 l 192 332 b 414 92 203 165 293 92 b 589 208 501 92 568 142 m 406 636 b 197 438 299 636 218 571 l 606 438 b 406 636 596 572 517 636 "},"f":{"ha":447,"x_min":0,"x_max":0,"o":"m 454 889 b 344 906 410 900 376 906 b 268 832 296 906 268 876 l 268 722 l 424 722 l 424 608 l 268 608 l 268 0 l 135 0 l 135 608 l 28 608 l 28 722 l 135 722 l 135 824 b 336 1021 135 943 217 1021 b 454 1004 385 1021 417 1014 "},"g":{"ha":846,"x_min":0,"x_max":0,"o":"m 232 -49 b 411 -165 244 -121 306 -165 b 615 22 546 -165 615 -97 l 615 115 b 375 21 567 58 486 21 b 56 378 206 21 56 147 b 383 743 56 604 188 743 b 618 626 496 743 572 694 l 639 722 l 749 722 l 749 15 b 415 -271 749 -149 629 -271 b 89 -49 222 -271 113 -183 m 194 375 b 404 135 194 222 289 135 b 622 371 542 135 622 225 b 404 629 622 540 533 629 b 194 375 282 629 194 547 "},"h":{"ha":788,"x_min":0,"x_max":0,"o":"m 97 0 l 97 1000 l 231 1000 l 231 640 b 442 743 283 708 360 743 b 697 471 599 743 697 647 l 697 0 l 564 0 l 564 469 b 410 629 564 578 508 629 b 231 440 311 629 231 560 l 231 0 "},"i":{"ha":328,"x_min":0,"x_max":0,"o":"m 89 843 l 89 1000 l 239 1000 l 239 843 m 97 0 l 97 722 l 231 722 l 231 0 "},"j":{"ha":328,"x_min":0,"x_max":0,"o":"m -68 -144 b 15 -157 -37 -151 -4 -157 b 97 -65 76 -157 97 -136 l 97 722 l 231 722 l 231 -72 b 36 -271 231 -190 161 -271 b -68 -254 6 -271 -33 -265 m 89 843 l 89 1000 l 239 1000 l 239 843 "},"k":{"ha":722,"x_min":0,"x_max":0,"o":"m 97 0 l 97 1000 l 231 1000 l 231 442 l 514 722 l 689 722 l 364 408 l 729 0 l 551 0 l 231 364 l 231 0 "},"l":{"ha":328,"x_min":0,"x_max":0,"o":"m 231 0 l 97 0 l 97 1000 l 231 1000 "},"m":{"ha":1215,"x_min":0,"x_max":0,"o":"m 97 0 l 97 722 l 207 722 l 221 638 b 433 743 274 714 353 743 b 646 629 529 743 606 704 b 881 743 701 717 793 743 b 1125 483 1028 743 1125 656 l 1125 0 l 992 0 l 992 474 b 851 629 992 583 944 629 b 678 440 744 629 678 539 l 678 0 l 544 0 l 544 474 b 404 629 544 585 496 629 b 231 444 307 629 231 547 l 231 0 "},"n":{"ha":788,"x_min":0,"x_max":0,"o":"m 97 0 l 97 722 l 207 722 l 222 631 b 442 743 275 704 356 743 b 697 471 599 743 697 647 l 697 0 l 564 0 l 564 469 b 410 629 564 578 508 629 b 231 446 314 629 231 560 l 231 0 "},"o":{"ha":824,"x_min":0,"x_max":0,"o":"m 56 361 b 413 743 56 621 217 743 b 768 361 610 743 768 621 b 411 -21 768 108 615 -21 b 56 361 210 -21 56 111 m 194 361 b 414 88 194 182 289 88 b 629 361 542 88 629 182 b 413 635 629 544 536 635 b 194 361 289 635 194 542 "},"p":{"ha":846,"x_min":0,"x_max":0,"o":"m 207 722 l 228 628 b 472 743 279 694 361 743 b 790 367 663 743 790 607 b 463 -21 790 117 653 -21 b 231 93 353 -21 276 26 l 231 -250 l 97 -250 l 97 722 m 651 369 b 442 629 651 547 561 629 b 224 369 322 629 224 542 b 442 93 224 194 311 93 b 651 369 567 93 651 179 "},"q":{"ha":846,"x_min":0,"x_max":0,"o":"m 749 722 l 749 -250 l 615 -250 l 615 100 b 375 -21 567 31 486 -21 b 56 357 193 -21 56 113 b 383 743 56 615 190 743 b 619 635 493 743 571 699 l 639 722 m 194 354 b 404 93 194 181 283 93 b 622 353 542 93 622 201 b 404 629 622 529 538 629 b 194 354 278 629 194 543 "},"r":{"ha":494,"x_min":0,"x_max":0,"o":"m 97 0 l 97 722 l 207 722 l 225 615 b 408 743 265 699 328 743 b 488 733 443 743 471 738 l 488 600 b 403 613 461 607 435 613 b 231 363 311 613 231 544 l 231 0 "},"s":{"ha":710,"x_min":0,"x_max":0,"o":"m 519 196 b 310 329 519 281 439 300 b 72 538 140 367 72 431 b 353 743 72 661 171 743 b 649 532 514 743 625 664 l 513 532 b 351 638 497 599 443 638 b 207 550 251 638 207 600 b 375 439 207 494 236 469 b 654 206 543 401 654 354 b 353 -21 654 74 544 -21 b 42 207 172 -21 54 68 l 178 207 b 354 85 193 121 253 85 b 519 196 463 85 519 133 "},"t":{"ha":447,"x_min":0,"x_max":0,"o":"m 419 -7 b 321 -21 383 -17 354 -21 b 128 179 193 -21 128 60 l 128 608 l 21 608 l 21 722 l 128 722 l 136 896 l 261 896 l 261 722 l 417 722 l 417 608 l 261 608 l 261 176 b 338 96 261 122 288 96 b 419 107 361 96 379 97 "},"u":{"ha":782,"x_min":0,"x_max":0,"o":"m 224 722 l 224 249 b 374 93 224 142 281 93 b 551 282 494 93 551 183 l 551 722 l 685 722 l 685 0 l 575 0 l 560 83 b 343 -21 508 14 431 -21 b 90 251 194 -21 90 67 l 90 722 "},"v":{"ha":714,"x_min":0,"x_max":0,"o":"m 700 722 l 446 0 l 265 0 l 14 722 l 160 722 l 360 108 l 561 722 "},"w":{"ha":1125,"x_min":0,"x_max":0,"o":"m 1104 722 l 893 0 l 739 0 l 564 571 l 392 0 l 232 0 l 21 722 l 160 722 l 315 142 l 488 722 l 647 722 l 817 144 l 971 722 "},"x":{"ha":735,"x_min":0,"x_max":0,"o":"m 438 385 l 721 0 l 558 0 l 363 279 l 171 0 l 14 0 l 283 375 l 31 722 l 190 722 l 363 479 l 526 722 l 679 722 "},"y":{"ha":714,"x_min":0,"x_max":0,"o":"m 449 -10 b 213 -271 394 -168 346 -271 b 126 -258 183 -271 165 -268 l 126 -150 b 196 -160 154 -157 174 -160 b 322 0 260 -160 281 -114 l 279 0 l 14 722 l 158 722 l 363 108 l 567 722 l 700 722 "},"z":{"ha":669,"x_min":0,"x_max":0,"o":"m 199 114 l 628 114 l 628 0 l 42 0 l 42 126 l 471 610 l 63 610 l 63 722 l 628 722 l 628 596 "},"{":{"ha":472,"x_min":0,"x_max":0,"o":"m 42 506 b 169 628 108 506 169 539 l 169 886 b 424 1125 169 1043 242 1125 l 424 1021 b 296 893 314 1021 296 976 l 296 650 b 178 446 296 529 249 471 b 296 242 249 421 296 363 l 296 -1 b 424 -129 296 -85 314 -129 l 424 -233 b 169 6 242 -233 169 -151 l 169 264 b 42 386 169 353 108 386 l 42 506 "},"|":{"ha":500,"x_min":0,"x_max":0,"o":"m 310 1090 l 310 -194 l 190 -194 l 190 1090 "},"}":{"ha":472,"x_min":0,"x_max":0,"o":"m 431 386 b 303 264 364 386 303 353 l 303 6 b 49 -233 303 -151 231 -233 l 49 -129 b 176 -1 158 -129 176 -85 l 176 242 b 294 446 176 363 224 421 b 176 650 224 471 176 529 l 176 893 b 49 1021 176 976 158 1021 l 49 1125 b 303 886 231 1125 303 1043 l 303 628 b 431 506 303 539 364 506 "},"~":{"ha":833,"x_min":0,"x_max":0,"o":"m 283 426 b 125 364 217 426 165 399 l 125 490 b 292 546 160 518 226 546 b 549 469 406 546 461 469 b 708 532 615 469 668 497 l 708 406 b 542 350 674 378 607 350 b 283 426 428 350 371 426 "}," ":{"ha":417,"x_min":0,"x_max":0,"o":""},"¡":{"ha":396,"x_min":0,"x_max":0,"o":"m 278 750 l 278 589 l 118 589 l 118 750 m 250 417 l 278 -250 l 118 -250 l 146 417 "},"¢":{"ha":833,"x_min":0,"x_max":0,"o":"m 365 -14 b 92 356 207 13 92 140 b 365 738 92 569 199 708 l 365 917 l 489 917 l 489 739 b 744 508 624 721 724 638 l 597 508 b 435 631 579 588 519 631 b 233 351 317 631 233 543 b 436 92 233 175 324 92 b 604 232 525 92 590 142 l 750 232 b 489 -17 732 107 636 4 l 489 -187 l 365 -187 "},"£":{"ha":833,"x_min":0,"x_max":0,"o":"m 125 539 l 190 539 l 190 725 b 472 993 190 911 319 993 b 756 765 608 993 721 928 l 615 765 b 468 881 599 842 553 881 b 322 724 378 881 322 825 l 322 539 l 590 539 l 590 431 l 322 431 l 322 282 b 244 122 322 204 290 156 l 743 122 l 743 0 l 83 0 l 83 122 b 190 274 142 140 190 178 l 190 431 l 125 431 "},"¤":{"ha":833,"x_min":0,"x_max":0,"o":"m 418 256 b 626 472 533 256 626 343 b 418 689 626 601 533 689 b 207 472 300 689 207 601 b 418 256 207 343 300 256 m 417 140 b 224 196 356 140 279 160 l 140 113 l 46 207 l 132 293 b 83 472 103 342 83 399 b 131 649 83 543 103 601 l 47 733 l 142 828 l 222 746 b 417 804 278 783 354 804 b 611 746 479 804 556 783 l 692 828 l 786 733 l 703 649 b 750 472 731 601 750 543 b 701 293 750 399 731 342 l 788 207 l 693 113 l 610 196 b 417 140 554 160 478 140 "},"¥":{"ha":833,"x_min":0,"x_max":0,"o":"m 347 0 l 347 181 l 153 181 l 153 282 l 347 282 l 347 389 l 153 389 l 153 490 l 293 490 l 11 972 l 167 972 l 418 519 l 679 972 l 824 972 l 540 490 l 682 490 l 682 389 l 488 389 l 488 282 l 682 282 l 682 181 l 488 181 l 488 0 "},"¦":{"ha":500,"x_min":0,"x_max":0,"o":"m 310 1090 l 310 556 l 190 556 l 190 1090 m 310 340 l 310 -194 l 190 -194 l 190 340 "},"§":{"ha":833,"x_min":0,"x_max":0,"o":"m 738 415 b 606 224 738 318 679 257 b 688 76 667 181 688 132 b 414 -126 688 -46 588 -126 b 114 85 261 -126 147 -50 l 256 85 b 415 -24 268 24 325 -24 b 556 69 515 -24 556 15 b 406 190 556 124 521 161 b 97 450 168 250 97 332 b 224 639 97 544 151 604 b 147 790 174 679 147 733 b 425 993 147 897 240 993 b 721 781 565 993 688 918 l 579 781 b 424 890 567 842 514 890 b 279 796 324 890 279 850 b 429 675 279 739 310 706 b 738 415 661 615 738 538 m 224 460 b 413 307 224 394 254 353 b 518 269 453 294 488 282 b 611 401 575 299 611 346 b 347 579 611 469 583 519 b 308 592 333 582 321 586 b 224 460 249 560 224 510 "},"¨":{"ha":542,"x_min":0,"x_max":0,"o":"m 42 861 l 42 1000 l 186 1000 l 186 861 m 356 861 l 356 1000 l 500 1000 l 500 861 "},"©":{"ha":1228,"x_min":0,"x_max":0,"o":"m 1144 500 b 614 -21 1144 135 868 -21 b 83 500 360 -21 83 135 b 614 1021 83 865 360 1021 b 1144 500 868 1021 1144 865 m 1029 500 b 614 925 1029 786 828 925 b 199 500 400 925 199 786 b 614 75 199 214 400 75 b 1029 500 828 75 1029 214 m 857 404 b 617 213 843 310 764 213 b 356 499 517 213 356 274 b 615 793 356 714 492 793 b 853 614 735 793 835 731 l 740 614 b 618 707 728 675 682 707 b 465 501 536 707 465 649 b 619 299 465 339 554 299 b 746 404 703 299 739 354 "},"ª":{"ha":694,"x_min":0,"x_max":0,"o":"m 101 853 b 342 1021 115 947 214 1021 b 574 829 471 1021 574 950 l 574 424 l 489 424 l 469 489 b 296 408 440 443 372 408 b 93 582 204 408 93 450 b 318 776 93 708 193 761 l 457 793 l 457 822 b 339 926 457 886 425 926 b 218 853 279 926 229 904 m 76 0 l 76 118 l 618 118 l 618 0 m 315 507 b 457 628 388 507 457 557 l 457 699 l 346 686 b 213 588 253 675 213 639 b 315 507 213 535 251 507 "},"«":{"ha":708,"x_min":0,"x_max":0,"o":"m 83 438 l 256 722 l 349 722 l 240 433 l 335 125 l 242 125 m 360 438 l 532 722 l 625 722 l 517 433 l 611 125 l 518 125 "},"¬":{"ha":833,"x_min":0,"x_max":0,"o":"m 582 156 l 582 389 l 125 389 l 125 507 l 708 507 l 708 156 "},"­":{"ha":750,"x_min":0,"x_max":0,"o":"m 125 389 l 125 507 l 625 507 l 625 389 "},"®":{"ha":894,"x_min":0,"x_max":0,"o":"m 447 349 b 97 685 292 349 97 444 b 447 1021 97 925 292 1021 b 797 685 603 1021 797 925 b 447 349 797 444 603 349 m 447 422 b 710 685 575 422 710 493 b 447 947 710 876 575 947 b 185 685 319 947 185 876 b 447 422 185 493 319 422 m 507 510 l 443 639 l 413 639 l 413 510 l 343 510 l 343 864 l 446 864 b 571 754 515 864 571 826 b 510 656 571 708 547 675 l 586 510 m 413 808 l 413 696 l 444 696 b 497 754 476 696 497 719 b 442 808 497 788 476 808 "},"¯":{"ha":458,"x_min":0,"x_max":0,"o":"m 42 879 l 42 993 l 417 993 l 417 879 "},"°":{"ha":833,"x_min":0,"x_max":0,"o":"m 200 767 b 317 633 200 686 247 633 b 433 767 386 633 433 686 b 317 900 433 847 386 900 b 200 767 247 900 200 847 m 550 767 b 317 536 550 621 439 536 b 83 767 194 536 83 621 b 317 997 83 913 194 997 b 550 767 439 997 550 913 "},"±":{"ha":833,"x_min":0,"x_max":0,"o":"m 479 507 l 708 507 l 708 389 l 479 389 l 479 211 l 353 211 l 353 389 l 125 389 l 125 507 l 353 507 l 353 739 l 479 739 m 125 0 l 125 118 l 708 118 l 708 0 "},"²":{"ha":472,"x_min":0,"x_max":0,"o":"m 61 967 b 244 1125 63 1049 138 1125 b 418 965 336 1125 418 1068 b 296 768 418 892 357 826 l 203 678 l 410 678 l 410 583 l 72 583 l 72 678 l 242 846 b 311 968 271 875 311 914 b 240 1042 311 1007 297 1042 b 168 967 190 1042 171 1007 "},"³":{"ha":472,"x_min":0,"x_max":0,"o":"m 44 983 b 235 1125 60 1082 154 1125 b 401 978 314 1125 401 1079 b 310 865 401 929 367 883 b 422 731 363 854 422 815 b 231 575 422 643 339 575 b 40 718 118 575 47 642 l 151 718 b 228 657 156 683 192 657 b 313 739 286 657 313 693 b 219 822 313 801 269 822 l 188 822 l 188 901 l 215 901 b 296 976 256 901 296 922 b 226 1042 296 1014 269 1042 b 153 983 193 1042 160 1026 "},"´":{"ha":397,"x_min":0,"x_max":0,"o":"m 183 1021 l 356 1021 l 161 831 l 42 831 "},"µ":{"ha":789,"x_min":0,"x_max":0,"o":"m 692 722 l 692 0 l 582 0 l 568 78 b 364 -21 515 7 438 -21 b 231 21 313 -21 268 -4 l 231 -250 l 97 -250 l 97 722 l 231 722 l 231 249 b 381 93 231 125 307 93 b 558 276 499 93 558 181 l 558 722 "},"¶":{"ha":833,"x_min":0,"x_max":0,"o":"m 433 1000 l 433 -250 l 314 -250 l 314 521 b 90 760 244 521 90 574 b 314 1000 90 946 244 1000 m 729 1000 l 729 -250 l 610 -250 l 610 1000 "},"·":{"ha":417,"x_min":0,"x_max":0,"o":"m 128 361 l 128 522 l 289 522 l 289 361 "},"¸":{"ha":422,"x_min":0,"x_max":0,"o":"m 389 -194 b 210 -346 389 -285 314 -346 b 31 -206 119 -346 44 -296 l 135 -206 b 211 -261 139 -232 165 -261 b 286 -196 256 -261 286 -237 b 156 -126 286 -150 251 -126 l 169 28 l 263 28 l 263 -58 b 389 -194 344 -76 389 -119 "},"¹":{"ha":472,"x_min":0,"x_max":0,"o":"m 90 583 l 90 678 l 207 678 l 207 1007 l 71 931 l 71 1035 l 201 1111 l 310 1111 l 310 678 l 404 678 l 404 583 "},"º":{"ha":694,"x_min":0,"x_max":0,"o":"m 76 0 l 76 118 l 604 118 l 604 0 m 79 715 b 349 1021 79 961 219 1021 b 618 715 478 1021 618 963 b 349 408 618 468 476 408 b 79 715 221 408 79 469 m 200 715 b 349 504 200 565 264 504 b 497 715 433 504 497 563 b 349 925 497 867 432 925 b 200 715 265 925 200 864 "},"»":{"ha":708,"x_min":0,"x_max":0,"o":"m 467 125 l 374 125 l 468 433 l 360 722 l 453 722 l 625 438 m 190 125 l 97 125 l 192 433 l 83 722 l 176 722 l 349 438 "},"¼":{"ha":1222,"x_min":0,"x_max":0,"o":"m 97 444 l 97 539 l 214 539 l 214 868 l 78 792 l 78 896 l 208 972 l 317 972 l 317 539 l 411 539 l 411 444 m 1072 333 l 1072 190 l 1143 190 l 1143 99 l 1072 99 l 1072 0 l 974 0 l 974 99 l 769 99 l 769 196 l 886 528 l 992 528 l 874 190 l 974 190 l 974 222 l 992 333 m 335 -125 l 192 -125 l 919 1097 l 1064 1097 "},"½":{"ha":1222,"x_min":0,"x_max":0,"o":"m 799 383 b 982 542 800 465 875 542 b 1156 382 1074 542 1156 485 b 1033 185 1156 308 1094 243 l 940 94 l 1147 94 l 1147 0 l 810 0 l 810 94 l 979 263 b 1049 385 1008 292 1049 331 b 978 458 1049 424 1035 458 b 906 383 928 458 908 424 m 89 444 l 89 539 l 206 539 l 206 868 l 69 792 l 69 896 l 200 972 l 308 972 l 308 539 l 403 539 l 403 444 m 326 -125 l 183 -125 l 911 1097 l 1056 1097 "},"¾":{"ha":1222,"x_min":0,"x_max":0,"o":"m 69 851 b 260 993 85 950 179 993 b 426 846 339 993 426 947 b 335 733 426 797 392 751 b 447 599 388 722 447 683 b 256 443 447 511 364 443 b 65 586 143 443 72 510 l 176 586 b 253 525 181 551 217 525 b 338 607 311 525 338 561 b 244 690 338 669 294 690 l 213 690 l 213 769 l 240 769 b 321 844 281 769 321 790 b 251 910 321 882 294 910 b 178 851 218 910 185 894 m 1076 333 l 1076 190 l 1147 190 l 1147 99 l 1076 99 l 1076 0 l 978 0 l 978 99 l 774 99 l 774 196 l 890 528 l 996 528 l 878 190 l 978 190 l 978 222 l 996 333 m 339 -125 l 196 -125 l 924 1097 l 1068 1097 "},"¿":{"ha":810,"x_min":0,"x_max":0,"o":"m 490 750 l 490 589 l 331 589 l 331 750 m 479 460 b 315 161 479 300 439 225 b 199 -12 231 118 199 61 b 386 -154 199 -97 272 -154 b 596 7 508 -154 581 -100 l 740 7 b 382 -271 713 -172 578 -271 b 56 -12 182 -271 56 -154 b 260 276 56 106 119 199 b 347 460 331 315 347 363 "},"À":{"ha":981,"x_min":0,"x_max":0,"o":"m 824 0 l 725 253 l 249 253 l 149 0 l 0 0 l 411 1000 l 571 1000 l 981 0 m 294 368 l 679 368 l 489 858 m 607 1067 l 488 1067 l 293 1257 l 465 1257 "},"Á":{"ha":981,"x_min":0,"x_max":0,"o":"m 824 0 l 725 253 l 249 253 l 149 0 l 0 0 l 411 1000 l 571 1000 l 981 0 m 294 368 l 679 368 l 489 858 m 517 1257 l 689 1257 l 494 1067 l 375 1067 "},"Â":{"ha":981,"x_min":0,"x_max":0,"o":"m 824 0 l 725 253 l 249 253 l 149 0 l 0 0 l 411 1000 l 571 1000 l 981 0 m 294 368 l 679 368 l 489 858 m 729 1067 l 594 1067 l 490 1181 l 386 1067 l 251 1067 l 415 1257 l 567 1257 "},"Ã":{"ha":981,"x_min":0,"x_max":0,"o":"m 824 0 l 725 253 l 249 253 l 149 0 l 0 0 l 411 1000 l 571 1000 l 981 0 m 294 368 l 679 368 l 489 858 m 567 1085 b 400 1138 478 1085 472 1138 b 282 1085 361 1138 322 1117 l 282 1197 b 406 1243 322 1226 360 1243 b 572 1190 494 1243 501 1190 b 685 1243 613 1190 644 1211 l 685 1131 b 567 1085 644 1101 613 1085 "},"Ä":{"ha":981,"x_min":0,"x_max":0,"o":"m 824 0 l 725 253 l 249 253 l 149 0 l 0 0 l 411 1000 l 571 1000 l 981 0 m 294 368 l 679 368 l 489 858 m 260 1097 l 260 1236 l 404 1236 l 404 1097 m 574 1097 l 574 1236 l 718 1236 l 718 1097 "},"Å":{"ha":981,"x_min":0,"x_max":0,"o":"m 668 1111 b 583 968 668 1049 638 997 l 981 0 l 824 0 l 725 253 l 249 253 l 149 0 l 0 0 l 396 963 b 303 1111 336 989 303 1046 b 485 1278 303 1204 371 1278 b 668 1111 599 1278 668 1204 m 294 368 l 679 368 l 489 858 m 397 1111 b 485 1024 397 1058 432 1024 b 574 1111 538 1024 574 1058 b 485 1199 574 1164 539 1199 b 397 1111 432 1199 397 1164 "},"Æ":{"ha":1357,"x_min":0,"x_max":0,"o":"m 1288 0 l 692 0 l 692 253 l 307 253 l 153 0 l 0 0 l 615 1000 l 1288 1000 l 1288 881 l 833 881 l 833 567 l 1247 567 l 1247 450 l 833 450 l 833 119 l 1288 119 m 692 368 l 692 879 l 378 368 "},"Ç":{"ha":1013,"x_min":0,"x_max":0,"o":"m 701 -194 b 522 -346 701 -285 626 -346 b 343 -206 432 -346 357 -296 l 447 -206 b 524 -261 451 -232 478 -261 b 599 -196 568 -261 599 -237 b 468 -126 599 -150 564 -126 l 478 -19 b 63 500 224 0 63 183 b 532 1021 63 838 257 1021 b 956 679 772 1021 942 863 l 813 679 b 532 903 794 815 686 903 b 207 500 340 903 207 771 b 524 99 207 242 336 99 b 814 353 686 99 806 208 l 957 353 b 575 -18 946 172 799 6 l 575 -58 b 701 -194 657 -76 701 -119 "},"È":{"ha":797,"x_min":0,"x_max":0,"o":"m 688 450 l 246 450 l 246 119 l 728 119 l 728 0 l 104 0 l 104 1000 l 728 1000 l 728 881 l 246 881 l 246 567 l 688 567 m 529 1067 l 410 1067 l 215 1257 l 388 1257 "},"É":{"ha":797,"x_min":0,"x_max":0,"o":"m 688 450 l 246 450 l 246 119 l 728 119 l 728 0 l 104 0 l 104 1000 l 728 1000 l 728 881 l 246 881 l 246 567 l 688 567 m 463 1257 l 635 1257 l 440 1067 l 321 1067 "},"Ê":{"ha":797,"x_min":0,"x_max":0,"o":"m 688 450 l 246 450 l 246 119 l 728 119 l 728 0 l 104 0 l 104 1000 l 728 1000 l 728 881 l 246 881 l 246 567 l 688 567 m 651 1067 l 517 1067 l 413 1181 l 308 1067 l 174 1067 l 338 1257 l 489 1257 "},"Ë":{"ha":797,"x_min":0,"x_max":0,"o":"m 688 450 l 246 450 l 246 119 l 728 119 l 728 0 l 104 0 l 104 1000 l 728 1000 l 728 881 l 246 881 l 246 567 l 688 567 m 189 1097 l 189 1236 l 333 1236 l 333 1097 m 503 1097 l 503 1236 l 647 1236 l 647 1097 "},"Ì":{"ha":350,"x_min":0,"x_max":0,"o":"m 246 1000 l 246 0 l 104 0 l 104 1000 m 288 1067 l 168 1067 l -26 1257 l 146 1257 "},"Í":{"ha":350,"x_min":0,"x_max":0,"o":"m 246 1000 l 246 0 l 104 0 l 104 1000 m 200 1257 l 372 1257 l 178 1067 l 58 1067 "},"Î":{"ha":350,"x_min":0,"x_max":0,"o":"m 246 1000 l 246 0 l 104 0 l 104 1000 m 414 1067 l 279 1067 l 175 1181 l 71 1067 l -64 1067 l 100 1257 l 251 1257 "},"Ï":{"ha":350,"x_min":0,"x_max":0,"o":"m 246 1000 l 246 0 l 104 0 l 104 1000 m -54 1097 l -54 1236 l 90 1236 l 90 1097 m 260 1097 l 260 1236 l 404 1236 l 404 1097 "},"Ð":{"ha":983,"x_min":0,"x_max":0,"o":"m 104 465 l 35 465 l 35 585 l 104 585 l 104 1000 l 429 1000 b 921 500 724 1000 921 843 b 419 0 921 176 713 0 l 104 0 m 246 465 l 246 117 l 433 117 b 778 500 653 117 778 249 b 431 888 778 763 644 888 l 246 888 l 246 585 l 531 585 l 531 465 "},"Ñ":{"ha":999,"x_min":0,"x_max":0,"o":"m 894 1000 l 894 0 l 715 0 l 233 838 l 233 0 l 104 0 l 104 1000 l 292 1000 l 768 169 l 768 1000 m 594 1085 b 428 1138 506 1085 500 1138 b 310 1085 389 1138 350 1117 l 310 1197 b 433 1243 350 1226 388 1243 b 600 1190 522 1243 529 1190 b 713 1243 640 1190 672 1211 l 713 1131 b 594 1085 672 1101 640 1085 "},"Ò":{"ha":1075,"x_min":0,"x_max":0,"o":"m 538 -21 b 63 500 260 -21 63 169 b 539 1021 63 836 275 1021 b 1013 500 803 1021 1013 844 b 538 -21 1013 169 807 -21 m 538 94 b 868 500 733 94 868 236 b 538 906 868 764 733 906 b 207 500 342 906 207 764 b 538 94 207 236 342 94 m 647 1067 l 528 1067 l 333 1257 l 506 1257 "},"Ó":{"ha":1075,"x_min":0,"x_max":0,"o":"m 538 -21 b 63 500 260 -21 63 169 b 539 1021 63 836 275 1021 b 1013 500 803 1021 1013 844 b 538 -21 1013 169 807 -21 m 538 94 b 868 500 733 94 868 236 b 538 906 868 764 733 906 b 207 500 342 906 207 764 b 538 94 207 236 342 94 m 574 1257 l 746 1257 l 551 1067 l 432 1067 "},"Ô":{"ha":1075,"x_min":0,"x_max":0,"o":"m 538 -21 b 63 500 260 -21 63 169 b 539 1021 63 836 275 1021 b 1013 500 803 1021 1013 844 b 538 -21 1013 169 807 -21 m 538 94 b 868 500 733 94 868 236 b 538 906 868 764 733 906 b 207 500 342 906 207 764 b 538 94 207 236 342 94 m 767 1067 l 632 1067 l 528 1181 l 424 1067 l 289 1067 l 453 1257 l 604 1257 "},"Õ":{"ha":1075,"x_min":0,"x_max":0,"o":"m 538 -21 b 63 500 260 -21 63 169 b 539 1021 63 836 275 1021 b 1013 500 803 1021 1013 844 b 538 -21 1013 169 807 -21 m 538 94 b 868 500 733 94 868 236 b 538 906 868 764 733 906 b 207 500 342 906 207 764 b 538 94 207 236 342 94 m 617 1085 b 450 1138 528 1085 522 1138 b 332 1085 411 1138 372 1117 l 332 1197 b 456 1243 372 1226 410 1243 b 622 1190 544 1243 551 1190 b 735 1243 663 1190 694 1211 l 735 1131 b 617 1085 694 1101 663 1085 "},"Ö":{"ha":1075,"x_min":0,"x_max":0,"o":"m 538 -21 b 63 500 260 -21 63 169 b 539 1021 63 836 275 1021 b 1013 500 803 1021 1013 844 b 538 -21 1013 169 807 -21 m 538 94 b 868 500 733 94 868 236 b 538 906 868 764 733 906 b 207 500 342 906 207 764 b 538 94 207 236 342 94 m 294 1097 l 294 1236 l 439 1236 l 439 1097 m 608 1097 l 608 1236 l 753 1236 l 753 1097 "},"×":{"ha":833,"x_min":0,"x_max":0,"o":"m 415 531 l 583 696 l 667 613 l 500 447 l 667 282 l 583 199 l 415 364 l 250 200 l 167 283 l 332 447 l 167 611 l 250 694 "},"Ø":{"ha":1075,"x_min":0,"x_max":0,"o":"m 538 -21 b 414 -6 496 -21 454 -15 l 363 -153 l 239 -153 l 304 33 b 63 500 168 104 63 249 b 538 1021 63 878 315 1021 b 663 1006 579 1021 621 1015 l 713 1139 l 836 1139 l 772 965 b 1013 500 907 894 1013 749 b 538 -21 1013 122 760 -21 m 538 94 b 868 500 733 94 868 236 b 721 851 868 669 813 788 l 449 106 b 538 94 476 99 506 94 m 207 500 b 354 147 207 331 263 211 l 624 894 b 538 906 597 901 568 906 b 207 500 342 906 207 764 "},"Ù":{"ha":982,"x_min":0,"x_max":0,"o":"m 239 1000 l 239 322 b 493 99 239 189 329 99 b 747 322 657 99 747 190 l 747 1000 l 885 1000 l 885 335 b 492 -21 885 114 728 -21 b 97 335 250 -21 97 119 l 97 1000 m 613 1067 l 493 1067 l 299 1257 l 471 1257 "},"Ú":{"ha":982,"x_min":0,"x_max":0,"o":"m 239 1000 l 239 322 b 493 99 239 189 329 99 b 747 322 657 99 747 190 l 747 1000 l 885 1000 l 885 335 b 492 -21 885 114 728 -21 b 97 335 250 -21 97 119 l 97 1000 m 526 1257 l 699 1257 l 504 1067 l 385 1067 "},"Û":{"ha":982,"x_min":0,"x_max":0,"o":"m 239 1000 l 239 322 b 493 99 239 189 329 99 b 747 322 657 99 747 190 l 747 1000 l 885 1000 l 885 335 b 492 -21 885 114 728 -21 b 97 335 250 -21 97 119 l 97 1000 m 733 1067 l 599 1067 l 494 1181 l 390 1067 l 256 1067 l 419 1257 l 571 1257 "},"Ü":{"ha":982,"x_min":0,"x_max":0,"o":"m 239 1000 l 239 322 b 493 99 239 189 329 99 b 747 322 657 99 747 190 l 747 1000 l 885 1000 l 885 335 b 492 -21 885 114 728 -21 b 97 335 250 -21 97 119 l 97 1000 m 260 1097 l 260 1236 l 404 1236 l 404 1097 m 574 1097 l 574 1236 l 718 1236 l 718 1097 "},"Ý":{"ha":874,"x_min":0,"x_max":0,"o":"m 367 0 l 367 397 l 0 1000 l 156 1000 l 438 519 l 729 1000 l 874 1000 l 507 397 l 507 0 m 514 1257 l 686 1257 l 492 1067 l 372 1067 "},"Þ":{"ha":856,"x_min":0,"x_max":0,"o":"m 821 503 b 424 168 821 281 661 168 l 246 168 l 246 0 l 104 0 l 104 1000 l 246 1000 l 246 839 l 424 839 b 821 503 661 839 821 725 m 246 724 l 246 283 l 426 283 b 674 503 594 283 674 364 b 426 724 674 642 594 724 "},"ß":{"ha":838,"x_min":0,"x_max":0,"o":"m 535 -21 b 278 175 383 -21 297 49 l 414 175 b 535 92 422 119 463 92 b 674 215 622 92 674 138 b 557 374 674 292 644 331 b 394 567 432 435 394 472 b 521 803 394 678 521 701 b 379 907 521 863 467 907 b 231 731 286 907 231 842 l 231 0 l 97 0 l 97 728 b 379 1021 97 896 201 1021 b 653 810 518 1021 653 954 b 521 564 653 658 521 647 b 622 471 521 536 535 513 b 810 221 758 406 810 333 b 535 -21 810 103 710 -21 "},"à":{"ha":764,"x_min":0,"x_max":0,"o":"m 69 521 b 379 743 83 654 199 743 b 674 493 568 743 674 642 l 674 0 l 564 0 l 547 99 b 306 -21 500 32 422 -21 b 56 186 147 -21 56 68 b 329 426 56 318 135 393 l 540 463 l 540 499 b 374 638 540 588 481 638 b 211 521 271 638 221 593 m 338 92 b 540 265 439 92 540 167 l 540 358 l 361 326 b 197 200 232 304 197 264 b 338 92 197 131 247 92 m 464 831 l 344 831 l 150 1021 l 322 1021 "},"á":{"ha":764,"x_min":0,"x_max":0,"o":"m 69 521 b 379 743 83 654 199 743 b 674 493 568 743 674 642 l 674 0 l 564 0 l 547 99 b 306 -21 500 32 422 -21 b 56 186 147 -21 56 68 b 329 426 56 318 135 393 l 540 463 l 540 499 b 374 638 540 588 481 638 b 211 521 271 638 221 593 m 338 92 b 540 265 439 92 540 167 l 540 358 l 361 326 b 197 200 232 304 197 264 b 338 92 197 131 247 92 m 453 1021 l 625 1021 l 431 831 l 311 831 "},"â":{"ha":764,"x_min":0,"x_max":0,"o":"m 69 521 b 379 743 83 654 199 743 b 674 493 568 743 674 642 l 674 0 l 564 0 l 547 99 b 306 -21 500 32 422 -21 b 56 186 147 -21 56 68 b 329 426 56 318 135 393 l 540 463 l 540 499 b 374 638 540 588 481 638 b 211 521 271 638 221 593 m 338 92 b 540 265 439 92 540 167 l 540 358 l 361 326 b 197 200 232 304 197 264 b 338 92 197 131 247 92 m 617 831 l 482 831 l 378 944 l 274 831 l 139 831 l 303 1021 l 454 1021 "},"ã":{"ha":764,"x_min":0,"x_max":0,"o":"m 69 521 b 379 743 83 654 199 743 b 674 493 568 743 674 642 l 674 0 l 564 0 l 547 99 b 306 -21 500 32 422 -21 b 56 186 147 -21 56 68 b 329 426 56 318 135 393 l 540 463 l 540 499 b 374 638 540 588 481 638 b 211 521 271 638 221 593 m 338 92 b 540 265 439 92 540 167 l 540 358 l 361 326 b 197 200 232 304 197 264 b 338 92 197 131 247 92 m 463 849 b 296 901 374 849 368 901 b 178 849 257 901 218 881 l 178 961 b 301 1007 218 990 256 1007 b 468 954 390 1007 397 954 b 581 1007 508 954 540 975 l 581 894 b 463 849 540 865 508 849 "},"ä":{"ha":764,"x_min":0,"x_max":0,"o":"m 69 521 b 379 743 83 654 199 743 b 674 493 568 743 674 642 l 674 0 l 564 0 l 547 99 b 306 -21 500 32 422 -21 b 56 186 147 -21 56 68 b 329 426 56 318 135 393 l 540 463 l 540 499 b 374 638 540 588 481 638 b 211 521 271 638 221 593 m 338 92 b 540 265 439 92 540 167 l 540 358 l 361 326 b 197 200 232 304 197 264 b 338 92 197 131 247 92 m 147 861 l 147 1000 l 292 1000 l 292 861 m 461 861 l 461 1000 l 606 1000 l 606 861 "},"å":{"ha":764,"x_min":0,"x_max":0,"o":"m 69 521 b 379 743 83 654 199 743 b 674 493 568 743 674 642 l 674 0 l 564 0 l 547 99 b 306 -21 500 32 422 -21 b 56 186 147 -21 56 68 b 329 426 56 318 135 393 l 540 463 l 540 499 b 374 638 540 588 481 638 b 211 521 271 638 221 593 m 338 92 b 540 265 439 92 540 167 l 540 358 l 361 326 b 197 200 232 304 197 264 b 338 92 197 131 247 92 m 293 972 b 381 885 293 919 328 885 b 469 972 433 885 469 919 b 381 1060 469 1025 435 1060 b 293 972 328 1060 293 1025 m 564 972 b 381 806 564 879 494 806 b 199 972 267 806 199 879 b 381 1139 199 1065 267 1139 b 564 972 494 1139 564 1065 "},"æ":{"ha":1289,"x_min":0,"x_max":0,"o":"m 1218 208 b 894 -21 1182 72 1063 -21 b 601 128 789 -21 672 13 b 321 -21 553 46 453 -21 b 56 189 169 -21 56 44 b 321 413 56 339 178 394 l 540 440 l 540 499 b 374 638 540 583 485 638 b 211 521 301 638 221 613 l 69 521 b 379 743 86 661 204 743 b 628 626 499 743 581 701 b 888 743 700 715 804 743 b 1226 342 1086 743 1226 626 l 676 342 b 899 92 685 138 807 92 b 1074 208 989 92 1053 143 m 338 92 b 540 254 428 92 535 157 l 540 336 l 353 313 b 197 196 233 297 197 261 b 338 92 197 142 232 92 m 890 636 b 683 447 797 636 708 585 l 1090 447 b 890 636 1081 575 1001 636 "},"ç":{"ha":769,"x_min":0,"x_max":0,"o":"m 571 -194 b 392 -346 571 -285 496 -346 b 213 -206 301 -346 226 -296 l 317 -206 b 393 -261 321 -232 347 -261 b 468 -196 438 -261 468 -237 b 338 -126 468 -150 433 -126 l 347 -17 b 56 356 179 4 56 132 b 396 743 56 597 192 743 b 708 508 560 743 685 656 l 561 508 b 399 631 543 588 483 631 b 197 351 281 631 197 543 b 400 92 197 175 288 92 b 568 232 489 92 554 142 l 714 232 b 444 -18 696 104 597 0 l 444 -58 b 571 -194 526 -76 571 -119 "},"è":{"ha":804,"x_min":0,"x_max":0,"o":"m 733 208 b 410 -21 697 76 583 -21 b 56 361 204 -21 56 107 b 403 743 56 613 203 743 b 742 332 603 743 742 624 l 192 332 b 414 92 203 165 293 92 b 589 208 501 92 568 142 m 406 636 b 197 438 299 636 218 571 l 606 438 b 406 636 596 572 517 636 m 478 831 l 358 831 l 164 1021 l 336 1021 "},"é":{"ha":804,"x_min":0,"x_max":0,"o":"m 733 208 b 410 -21 697 76 583 -21 b 56 361 204 -21 56 107 b 403 743 56 613 203 743 b 742 332 603 743 742 624 l 192 332 b 414 92 203 165 293 92 b 589 208 501 92 568 142 m 406 636 b 197 438 299 636 218 571 l 606 438 b 406 636 596 572 517 636 m 469 1021 l 642 1021 l 447 831 l 328 831 "},"ê":{"ha":804,"x_min":0,"x_max":0,"o":"m 733 208 b 410 -21 697 76 583 -21 b 56 361 204 -21 56 107 b 403 743 56 613 203 743 b 742 332 603 743 742 624 l 192 332 b 414 92 203 165 293 92 b 589 208 501 92 568 142 m 406 636 b 197 438 299 636 218 571 l 606 438 b 406 636 596 572 517 636 m 638 831 l 503 831 l 399 944 l 294 831 l 160 831 l 324 1021 l 475 1021 "},"ë":{"ha":804,"x_min":0,"x_max":0,"o":"m 733 208 b 410 -21 697 76 583 -21 b 56 361 204 -21 56 107 b 403 743 56 613 203 743 b 742 332 603 743 742 624 l 192 332 b 414 92 203 165 293 92 b 589 208 501 92 568 142 m 406 636 b 197 438 299 636 218 571 l 606 438 b 406 636 596 572 517 636 m 167 861 l 167 1000 l 311 1000 l 311 861 m 481 861 l 481 1000 l 625 1000 l 625 861 "},"ì":{"ha":328,"x_min":0,"x_max":0,"o":"m 97 0 l 97 722 l 231 722 l 231 0 m 261 831 l 142 831 l -53 1021 l 119 1021 "},"í":{"ha":328,"x_min":0,"x_max":0,"o":"m 97 0 l 97 722 l 231 722 l 231 0 m 217 1021 l 389 1021 l 194 831 l 75 831 "},"î":{"ha":328,"x_min":0,"x_max":0,"o":"m 97 0 l 97 722 l 231 722 l 231 0 m 403 831 l 268 831 l 164 944 l 60 831 l -75 831 l 89 1021 l 240 1021 "},"ï":{"ha":328,"x_min":0,"x_max":0,"o":"m 97 0 l 97 722 l 231 722 l 231 0 m -65 861 l -65 1000 l 79 1000 l 79 861 m 249 861 l 249 1000 l 393 1000 l 393 861 "},"ð":{"ha":807,"x_min":0,"x_max":0,"o":"m 214 1043 b 468 958 313 1022 397 994 l 508 1000 l 651 1000 l 557 901 b 743 444 683 801 743 653 b 396 -21 743 140 607 -21 b 56 331 201 -21 56 107 b 371 671 56 538 194 671 b 615 544 475 671 581 617 b 476 817 599 668 553 756 l 435 772 l 292 772 l 386 871 b 214 918 336 893 278 908 m 388 560 b 192 324 274 560 192 479 b 396 90 192 149 290 90 b 611 326 518 90 611 181 b 388 560 611 474 519 560 "},"ñ":{"ha":788,"x_min":0,"x_max":0,"o":"m 97 0 l 97 722 l 207 722 l 222 631 b 442 743 275 704 356 743 b 697 471 599 743 697 647 l 697 0 l 564 0 l 564 469 b 410 629 564 578 508 629 b 231 446 314 629 231 560 l 231 0 m 492 849 b 325 901 403 849 397 901 b 207 849 286 901 247 881 l 207 961 b 331 1007 247 990 285 1007 b 497 954 419 1007 426 954 b 610 1007 538 954 569 975 l 610 894 b 492 849 569 865 538 849 "},"ò":{"ha":824,"x_min":0,"x_max":0,"o":"m 56 361 b 413 743 56 621 217 743 b 768 361 610 743 768 621 b 411 -21 768 108 615 -21 b 56 361 210 -21 56 111 m 194 361 b 414 88 194 182 289 88 b 629 361 542 88 629 182 b 413 635 629 544 536 635 b 194 361 289 635 194 542 m 500 831 l 381 831 l 186 1021 l 358 1021 "},"ó":{"ha":824,"x_min":0,"x_max":0,"o":"m 56 361 b 413 743 56 621 217 743 b 768 361 610 743 768 621 b 411 -21 768 108 615 -21 b 56 361 210 -21 56 111 m 194 361 b 414 88 194 182 289 88 b 629 361 542 88 629 182 b 413 635 629 544 536 635 b 194 361 289 635 194 542 m 472 1021 l 644 1021 l 450 831 l 331 831 "},"ô":{"ha":824,"x_min":0,"x_max":0,"o":"m 56 361 b 413 743 56 621 217 743 b 768 361 610 743 768 621 b 411 -21 768 108 615 -21 b 56 361 210 -21 56 111 m 194 361 b 414 88 194 182 289 88 b 629 361 542 88 629 182 b 413 635 629 544 536 635 b 194 361 289 635 194 542 m 643 831 l 508 831 l 404 944 l 300 831 l 165 831 l 329 1021 l 481 1021 "},"õ":{"ha":824,"x_min":0,"x_max":0,"o":"m 56 361 b 413 743 56 621 217 743 b 768 361 610 743 768 621 b 411 -21 768 108 615 -21 b 56 361 210 -21 56 111 m 194 361 b 414 88 194 182 289 88 b 629 361 542 88 629 182 b 413 635 629 544 536 635 b 194 361 289 635 194 542 m 490 849 b 324 901 401 849 396 901 b 206 849 285 901 246 881 l 206 961 b 329 1007 246 990 283 1007 b 496 954 418 1007 425 954 b 608 1007 536 954 568 975 l 608 894 b 490 849 568 865 536 849 "},"ö":{"ha":824,"x_min":0,"x_max":0,"o":"m 56 361 b 413 743 56 621 217 743 b 768 361 610 743 768 621 b 411 -21 768 108 615 -21 b 56 361 210 -21 56 111 m 194 361 b 414 88 194 182 289 88 b 629 361 542 88 629 182 b 413 635 629 544 536 635 b 194 361 289 635 194 542 m 182 861 l 182 1000 l 326 1000 l 326 861 m 496 861 l 496 1000 l 640 1000 l 640 861 "},"÷":{"ha":833,"x_min":0,"x_max":0,"o":"m 336 89 l 336 250 l 497 250 l 497 89 m 336 644 l 336 806 l 497 806 l 497 644 m 125 389 l 125 507 l 708 507 l 708 389 "},"ø":{"ha":824,"x_min":0,"x_max":0,"o":"m 56 361 b 413 743 56 621 217 743 b 519 729 450 743 486 739 l 588 875 l 711 875 l 622 683 b 768 361 711 622 768 517 b 411 -21 768 108 615 -21 b 306 -7 374 -21 339 -17 l 239 -153 l 113 -153 l 201 39 b 56 361 113 101 56 208 m 194 361 b 261 153 194 268 219 199 l 476 625 b 413 635 456 632 435 635 b 194 361 289 635 194 542 m 629 361 b 564 569 629 454 604 524 l 350 96 b 414 88 371 90 392 88 b 629 361 542 88 629 182 "},"ù":{"ha":782,"x_min":0,"x_max":0,"o":"m 224 722 l 224 249 b 374 93 224 142 281 93 b 551 282 494 93 551 183 l 551 722 l 685 722 l 685 0 l 575 0 l 560 83 b 343 -21 508 14 431 -21 b 90 251 194 -21 90 67 l 90 722 m 485 831 l 365 831 l 171 1021 l 343 1021 "},"ú":{"ha":782,"x_min":0,"x_max":0,"o":"m 224 722 l 224 249 b 374 93 224 142 281 93 b 551 282 494 93 551 183 l 551 722 l 685 722 l 685 0 l 575 0 l 560 83 b 343 -21 508 14 431 -21 b 90 251 194 -21 90 67 l 90 722 m 442 1021 l 614 1021 l 419 831 l 300 831 "},"û":{"ha":782,"x_min":0,"x_max":0,"o":"m 224 722 l 224 249 b 374 93 224 142 281 93 b 551 282 494 93 551 183 l 551 722 l 685 722 l 685 0 l 575 0 l 560 83 b 343 -21 508 14 431 -21 b 90 251 194 -21 90 67 l 90 722 m 628 831 l 493 831 l 389 944 l 285 831 l 150 831 l 314 1021 l 465 1021 "},"ü":{"ha":782,"x_min":0,"x_max":0,"o":"m 224 722 l 224 249 b 374 93 224 142 281 93 b 551 282 494 93 551 183 l 551 722 l 685 722 l 685 0 l 575 0 l 560 83 b 343 -21 508 14 431 -21 b 90 251 194 -21 90 67 l 90 722 m 157 861 l 157 1000 l 301 1000 l 301 861 m 471 861 l 471 1000 l 615 1000 l 615 861 "},"ý":{"ha":714,"x_min":0,"x_max":0,"o":"m 449 -10 b 213 -271 394 -168 346 -271 b 126 -258 183 -271 165 -268 l 126 -150 b 196 -160 154 -157 174 -160 b 322 0 260 -160 281 -114 l 279 0 l 14 722 l 158 722 l 363 108 l 567 722 l 700 722 m 431 1021 l 603 1021 l 408 831 l 289 831 "},"þ":{"ha":846,"x_min":0,"x_max":0,"o":"m 97 -250 l 97 1000 l 231 1000 l 231 622 b 472 743 279 692 360 743 b 790 367 624 743 790 647 b 463 -21 790 107 644 -21 b 232 92 354 -21 279 25 l 232 -250 m 651 369 b 442 629 651 576 535 629 b 224 369 304 629 224 521 b 442 93 224 233 283 93 b 651 369 543 93 651 153 "},"ÿ":{"ha":714,"x_min":0,"x_max":0,"o":"m 449 -10 b 213 -271 394 -168 346 -271 b 126 -258 183 -271 165 -268 l 126 -150 b 196 -160 154 -157 174 -160 b 322 0 260 -160 281 -114 l 279 0 l 14 722 l 158 722 l 363 108 l 567 722 l 700 722 m 128 861 l 128 1000 l 272 1000 l 272 861 m 442 861 l 442 1000 l 586 1000 l 586 861 "},"Ā":{"ha":981,"x_min":0,"x_max":0,"o":"m 824 0 l 725 253 l 249 253 l 149 0 l 0 0 l 411 1000 l 571 1000 l 981 0 m 294 368 l 679 368 l 489 858 m 299 1115 l 299 1229 l 674 1229 l 674 1115 "},"ā":{"ha":764,"x_min":0,"x_max":0,"o":"m 69 521 b 379 743 83 654 199 743 b 674 493 568 743 674 642 l 674 0 l 564 0 l 547 99 b 306 -21 500 32 422 -21 b 56 186 147 -21 56 68 b 329 426 56 318 135 393 l 540 463 l 540 499 b 374 638 540 588 481 638 b 211 521 271 638 221 593 m 338 92 b 540 265 439 92 540 167 l 540 358 l 361 326 b 197 200 232 304 197 264 b 338 92 197 131 247 92 m 183 879 l 183 993 l 558 993 l 558 879 "},"Ă":{"ha":981,"x_min":0,"x_max":0,"o":"m 824 0 l 725 253 l 249 253 l 149 0 l 0 0 l 411 1000 l 571 1000 l 981 0 m 294 368 l 679 368 l 489 858 m 485 1072 b 283 1257 369 1072 299 1139 l 400 1257 b 485 1161 404 1200 426 1161 b 569 1257 543 1161 565 1200 l 686 1257 b 485 1072 671 1139 599 1072 "},"ă":{"ha":764,"x_min":0,"x_max":0,"o":"m 69 521 b 379 743 83 654 199 743 b 674 493 568 743 674 642 l 674 0 l 564 0 l 547 99 b 306 -21 500 32 422 -21 b 56 186 147 -21 56 68 b 329 426 56 318 135 393 l 540 463 l 540 499 b 374 638 540 588 481 638 b 211 521 271 638 221 593 m 338 92 b 540 265 439 92 540 167 l 540 358 l 361 326 b 197 200 232 304 197 264 b 338 92 197 131 247 92 m 378 836 b 176 1021 263 836 192 903 l 293 1021 b 378 925 297 964 319 925 b 463 1021 436 925 458 964 l 579 1021 b 378 836 564 903 492 836 "},"Ą":{"ha":981,"x_min":0,"x_max":0,"o":"m 943 0 b 785 -175 869 -42 785 -106 b 864 -254 785 -229 817 -254 b 933 -207 907 -254 928 -232 l 1042 -207 b 858 -343 1018 -293 949 -343 b 678 -196 754 -343 678 -286 b 824 0 678 -124 733 -46 l 725 253 l 249 253 l 149 0 l 0 0 l 411 1000 l 571 1000 l 981 0 m 294 368 l 679 368 l 489 858 "},"ą":{"ha":764,"x_min":0,"x_max":0,"o":"m 69 521 b 379 743 83 654 199 743 b 674 493 568 743 674 642 l 674 0 b 515 -175 600 -42 515 -106 b 594 -254 515 -229 547 -254 b 664 -207 638 -254 658 -232 l 772 -207 b 589 -343 749 -293 679 -343 b 408 -196 485 -343 408 -286 b 563 4 408 -122 468 -40 l 547 99 b 306 -21 500 32 422 -21 b 56 186 147 -21 56 68 b 329 426 56 318 135 393 l 540 463 l 540 499 b 374 638 540 588 481 638 b 211 521 271 638 221 593 m 540 358 l 361 326 b 197 200 232 304 197 264 b 338 92 197 131 247 92 b 540 263 431 92 540 161 "},"Ć":{"ha":1013,"x_min":0,"x_max":0,"o":"m 524 99 b 814 353 686 99 806 208 l 957 353 b 521 -21 946 158 775 -21 b 63 500 242 -21 63 167 b 532 1021 63 838 257 1021 b 956 679 772 1021 942 863 l 813 679 b 532 903 794 815 686 903 b 207 500 340 903 207 771 b 524 99 207 242 336 99 m 575 1257 l 747 1257 l 553 1067 l 433 1067 "},"ć":{"ha":769,"x_min":0,"x_max":0,"o":"m 714 232 b 397 -21 694 92 576 -21 b 56 356 206 -21 56 111 b 396 743 56 597 192 743 b 708 508 560 743 685 656 l 561 508 b 399 631 543 588 483 631 b 197 351 281 631 197 543 b 400 92 197 175 288 92 b 568 232 489 92 554 142 m 472 1021 l 644 1021 l 450 831 l 331 831 "},"Ĉ":{"ha":1013,"x_min":0,"x_max":0,"o":"m 524 99 b 814 353 686 99 806 208 l 957 353 b 521 -21 946 158 775 -21 b 63 500 242 -21 63 167 b 532 1021 63 838 257 1021 b 956 679 772 1021 942 863 l 813 679 b 532 903 794 815 686 903 b 207 500 340 903 207 771 b 524 99 207 242 336 99 m 740 1067 l 606 1067 l 501 1181 l 397 1067 l 263 1067 l 426 1257 l 578 1257 "},"ĉ":{"ha":769,"x_min":0,"x_max":0,"o":"m 714 232 b 397 -21 694 92 576 -21 b 56 356 206 -21 56 111 b 396 743 56 597 192 743 b 708 508 560 743 685 656 l 561 508 b 399 631 543 588 483 631 b 197 351 281 631 197 543 b 400 92 197 175 288 92 b 568 232 489 92 554 142 m 626 831 l 492 831 l 388 944 l 283 831 l 149 831 l 313 1021 l 464 1021 "},"Ċ":{"ha":1013,"x_min":0,"x_max":0,"o":"m 524 99 b 814 353 686 99 806 208 l 957 353 b 521 -21 946 158 775 -21 b 63 500 242 -21 63 167 b 532 1021 63 838 257 1021 b 956 679 772 1021 942 863 l 813 679 b 532 903 794 815 686 903 b 207 500 340 903 207 771 b 524 99 207 242 336 99 m 428 1079 l 428 1236 l 578 1236 l 578 1079 "},"ċ":{"ha":769,"x_min":0,"x_max":0,"o":"m 714 232 b 397 -21 694 92 576 -21 b 56 356 206 -21 56 111 b 396 743 56 597 192 743 b 708 508 560 743 685 656 l 561 508 b 399 631 543 588 483 631 b 197 351 281 631 197 543 b 400 92 197 175 288 92 b 568 232 489 92 554 142 m 308 843 l 308 1000 l 458 1000 l 458 843 "},"Č":{"ha":1013,"x_min":0,"x_max":0,"o":"m 524 99 b 814 353 686 99 806 208 l 957 353 b 521 -21 946 158 775 -21 b 63 500 242 -21 63 167 b 532 1021 63 838 257 1021 b 956 679 772 1021 942 863 l 813 679 b 532 903 794 815 686 903 b 207 500 340 903 207 771 b 524 99 207 242 336 99 m 583 1067 l 432 1067 l 268 1257 l 403 1257 l 507 1143 l 611 1257 l 746 1257 "},"č":{"ha":769,"x_min":0,"x_max":0,"o":"m 714 232 b 397 -21 694 92 576 -21 b 56 356 206 -21 56 111 b 396 743 56 597 192 743 b 708 508 560 743 685 656 l 561 508 b 399 631 543 588 483 631 b 197 351 281 631 197 543 b 400 92 197 175 288 92 b 568 232 489 92 554 142 m 453 831 l 301 831 l 138 1021 l 272 1021 l 376 907 l 481 1021 l 615 1021 "},"Ď":{"ha":983,"x_min":0,"x_max":0,"o":"m 429 1000 b 921 500 724 1000 921 843 b 419 0 921 176 713 0 l 104 0 l 104 1000 m 246 888 l 246 117 l 433 117 b 778 500 653 117 778 249 b 431 888 778 763 644 888 m 508 1067 l 357 1067 l 193 1257 l 328 1257 l 432 1143 l 536 1257 l 671 1257 "},"ď":{"ha":997,"x_min":0,"x_max":0,"o":"m 639 0 l 615 101 b 375 -21 567 31 488 -21 b 56 357 193 -21 56 113 b 383 743 56 615 190 743 b 615 631 493 743 568 696 l 615 1000 l 749 1000 l 749 0 m 194 354 b 404 93 194 181 283 93 b 622 353 542 93 622 201 b 404 629 622 529 538 629 b 194 354 278 629 194 543 m 997 890 b 814 694 997 769 901 706 l 814 764 b 900 867 865 775 900 803 l 858 867 l 858 1000 l 997 1000 "},"Đ":{"ha":983,"x_min":0,"x_max":0,"o":"m 104 465 l 35 465 l 35 585 l 104 585 l 104 1000 l 429 1000 b 921 500 724 1000 921 843 b 419 0 921 176 713 0 l 104 0 m 246 465 l 246 117 l 433 117 b 778 500 653 117 778 249 b 431 888 778 763 644 888 l 246 888 l 246 585 l 531 585 l 531 465 "},"đ":{"ha":846,"x_min":0,"x_max":0,"o":"m 639 0 l 615 101 b 375 -21 567 31 488 -21 b 56 357 193 -21 56 113 b 383 743 56 615 190 743 b 615 631 493 743 568 696 l 615 831 l 411 831 l 411 931 l 615 931 l 615 1000 l 749 1000 l 749 931 l 825 931 l 825 831 l 749 831 l 749 0 m 194 354 b 404 93 194 181 283 93 b 622 353 542 93 622 201 b 404 629 622 529 538 629 b 194 354 278 629 194 543 "},"Ē":{"ha":797,"x_min":0,"x_max":0,"o":"m 688 450 l 246 450 l 246 119 l 728 119 l 728 0 l 104 0 l 104 1000 l 728 1000 l 728 881 l 246 881 l 246 567 l 688 567 m 235 1115 l 235 1229 l 610 1229 l 610 1115 "},"ē":{"ha":804,"x_min":0,"x_max":0,"o":"m 733 208 b 410 -21 697 76 583 -21 b 56 361 204 -21 56 107 b 403 743 56 613 203 743 b 742 332 603 743 742 624 l 192 332 b 414 92 203 165 293 92 b 589 208 501 92 568 142 m 406 636 b 197 438 299 636 218 571 l 606 438 b 406 636 596 572 517 636 m 204 879 l 204 993 l 579 993 l 579 879 "},"Ė":{"ha":797,"x_min":0,"x_max":0,"o":"m 688 450 l 246 450 l 246 119 l 728 119 l 728 0 l 104 0 l 104 1000 l 728 1000 l 728 881 l 246 881 l 246 567 l 688 567 m 344 1079 l 344 1236 l 494 1236 l 494 1079 "},"ė":{"ha":804,"x_min":0,"x_max":0,"o":"m 733 208 b 410 -21 697 76 583 -21 b 56 361 204 -21 56 107 b 403 743 56 613 203 743 b 742 332 603 743 742 624 l 192 332 b 414 92 203 165 293 92 b 589 208 501 92 568 142 m 406 636 b 197 438 299 636 218 571 l 606 438 b 406 636 596 572 517 636 m 322 843 l 322 1000 l 472 1000 l 472 843 "},"Ę":{"ha":797,"x_min":0,"x_max":0,"o":"m 688 450 l 246 450 l 246 119 l 728 119 l 728 0 l 601 0 b 444 -175 529 -42 444 -106 b 524 -254 444 -229 476 -254 b 593 -207 567 -254 588 -232 l 701 -207 b 518 -343 678 -293 608 -343 b 338 -196 414 -343 338 -286 b 482 0 338 -125 393 -46 l 104 0 l 104 1000 l 728 1000 l 728 881 l 246 881 l 246 567 l 688 567 "},"ę":{"ha":804,"x_min":0,"x_max":0,"o":"m 458 -343 b 278 -196 354 -343 278 -286 b 388 -21 278 -135 318 -68 b 56 361 193 -11 56 115 b 403 743 56 613 203 743 b 742 332 603 743 742 624 l 192 332 b 414 92 203 165 293 92 b 589 208 501 92 568 142 l 733 208 b 551 3 707 115 654 50 b 385 -175 474 -33 385 -104 b 464 -254 385 -229 417 -254 b 533 -207 507 -254 528 -232 l 642 -207 b 458 -343 618 -293 549 -343 m 406 636 b 197 438 299 636 218 571 l 606 438 b 406 636 596 572 517 636 "},"Ě":{"ha":797,"x_min":0,"x_max":0,"o":"m 688 450 l 246 450 l 246 119 l 728 119 l 728 0 l 104 0 l 104 1000 l 728 1000 l 728 881 l 246 881 l 246 567 l 688 567 m 503 1067 l 351 1067 l 188 1257 l 322 1257 l 426 1143 l 531 1257 l 665 1257 "},"ě":{"ha":804,"x_min":0,"x_max":0,"o":"m 733 208 b 410 -21 697 76 583 -21 b 56 361 204 -21 56 107 b 403 743 56 613 203 743 b 742 332 603 743 742 624 l 192 332 b 414 92 203 165 293 92 b 589 208 501 92 568 142 m 406 636 b 197 438 299 636 218 571 l 606 438 b 406 636 596 572 517 636 m 471 831 l 319 831 l 156 1021 l 290 1021 l 394 907 l 499 1021 l 633 1021 "},"Ĝ":{"ha":1025,"x_min":0,"x_max":0,"o":"m 936 0 l 832 0 l 813 119 b 506 -21 750 32 639 -21 b 63 501 257 -21 63 165 b 521 1021 63 844 267 1021 b 935 707 749 1021 911 883 l 796 707 b 521 903 771 829 668 903 b 207 501 346 903 207 772 b 522 96 207 232 358 96 b 808 346 678 96 808 199 l 808 424 l 515 424 l 515 538 l 936 538 m 750 1067 l 615 1067 l 511 1181 l 407 1067 l 272 1067 l 436 1257 l 588 1257 "},"ĝ":{"ha":846,"x_min":0,"x_max":0,"o":"m 232 -49 b 411 -165 244 -121 306 -165 b 615 22 546 -165 615 -97 l 615 115 b 375 21 567 58 486 21 b 56 378 206 21 56 147 b 383 743 56 604 188 743 b 618 626 496 743 572 694 l 639 722 l 749 722 l 749 15 b 415 -271 749 -149 629 -271 b 89 -49 222 -271 113 -183 m 194 375 b 404 135 194 222 289 135 b 622 371 542 135 622 225 b 404 629 622 540 533 629 b 194 375 282 629 194 547 m 658 831 l 524 831 l 419 944 l 315 831 l 181 831 l 344 1021 l 496 1021 "},"Ğ":{"ha":1025,"x_min":0,"x_max":0,"o":"m 936 0 l 832 0 l 813 119 b 506 -21 750 32 639 -21 b 63 501 257 -21 63 165 b 521 1021 63 844 267 1021 b 935 707 749 1021 911 883 l 796 707 b 521 903 771 829 668 903 b 207 501 346 903 207 772 b 522 96 207 232 358 96 b 808 346 678 96 808 199 l 808 424 l 515 424 l 515 538 l 936 538 m 510 1072 b 308 1257 394 1072 324 1139 l 425 1257 b 510 1161 429 1200 451 1161 b 594 1257 568 1161 590 1200 l 711 1257 b 510 1072 696 1139 624 1072 "},"ğ":{"ha":846,"x_min":0,"x_max":0,"o":"m 232 -49 b 411 -165 244 -121 306 -165 b 615 22 546 -165 615 -97 l 615 115 b 375 21 567 58 486 21 b 56 378 206 21 56 147 b 383 743 56 604 188 743 b 618 626 496 743 572 694 l 639 722 l 749 722 l 749 15 b 415 -271 749 -149 629 -271 b 89 -49 222 -271 113 -183 m 194 375 b 404 135 194 222 289 135 b 622 371 542 135 622 225 b 404 629 622 540 533 629 b 194 375 282 629 194 547 m 411 836 b 210 1021 296 836 225 903 l 326 1021 b 411 925 331 964 353 925 b 496 1021 469 925 492 964 l 613 1021 b 411 836 597 903 525 836 "},"Ġ":{"ha":1025,"x_min":0,"x_max":0,"o":"m 936 0 l 832 0 l 813 119 b 506 -21 750 32 639 -21 b 63 501 257 -21 63 165 b 521 1021 63 844 267 1021 b 935 707 749 1021 911 883 l 796 707 b 521 903 771 829 668 903 b 207 501 346 903 207 772 b 522 96 207 232 358 96 b 808 346 678 96 808 199 l 808 424 l 515 424 l 515 538 l 936 538 m 443 1079 l 443 1236 l 593 1236 l 593 1079 "},"ġ":{"ha":846,"x_min":0,"x_max":0,"o":"m 232 -49 b 411 -165 244 -121 306 -165 b 615 22 546 -165 615 -97 l 615 115 b 375 21 567 58 486 21 b 56 378 206 21 56 147 b 383 743 56 604 188 743 b 618 626 496 743 572 694 l 639 722 l 749 722 l 749 15 b 415 -271 749 -149 629 -271 b 89 -49 222 -271 113 -183 m 194 375 b 404 135 194 222 289 135 b 622 371 542 135 622 225 b 404 629 622 540 533 629 b 194 375 282 629 194 547 m 339 843 l 339 1000 l 489 1000 l 489 843 "},"Ģ":{"ha":1025,"x_min":0,"x_max":0,"o":"m 936 0 l 832 0 l 813 119 b 506 -21 750 32 639 -21 b 63 501 257 -21 63 165 b 521 1021 63 844 267 1021 b 935 707 749 1021 911 883 l 796 707 b 521 903 771 829 668 903 b 207 501 346 903 207 772 b 522 96 207 232 358 96 b 808 346 678 96 808 199 l 808 424 l 515 424 l 515 538 l 936 538 m 588 -193 b 404 -410 588 -325 492 -399 l 404 -340 b 490 -217 456 -329 490 -281 l 449 -217 l 449 -83 l 588 -83 "},"ģ":{"ha":846,"x_min":0,"x_max":0,"o":"m 232 -49 b 411 -165 244 -121 306 -165 b 615 22 546 -165 615 -97 l 615 115 b 375 21 567 58 486 21 b 56 378 206 21 56 147 b 383 743 56 604 188 743 b 618 626 496 743 572 694 l 639 722 l 749 722 l 749 15 b 415 -271 749 -149 629 -271 b 89 -49 222 -271 113 -183 m 194 375 b 404 135 194 222 289 135 b 622 371 542 135 622 225 b 404 629 622 540 533 629 b 194 375 282 629 194 547 m 336 915 b 519 1111 336 1036 432 1100 l 519 1042 b 433 939 468 1031 433 1003 l 475 939 l 475 806 l 336 806 "},"Ĥ":{"ha":982,"x_min":0,"x_max":0,"o":"m 878 1000 l 878 0 l 735 0 l 735 446 l 246 446 l 246 0 l 104 0 l 104 1000 l 246 1000 l 246 565 l 735 565 l 735 1000 m 731 1067 l 596 1067 l 492 1181 l 388 1067 l 253 1067 l 417 1257 l 568 1257 "},"ĥ":{"ha":788,"x_min":0,"x_max":0,"o":"m 97 0 l 97 1000 l 231 1000 l 231 640 b 442 743 283 708 360 743 b 697 471 599 743 697 647 l 697 0 l 564 0 l 564 469 b 410 629 564 578 508 629 b 231 440 311 629 231 560 l 231 0 m 585 1067 l 450 1067 l 346 1181 l 242 1067 l 107 1067 l 271 1257 l 422 1257 "},"Ħ":{"ha":1010,"x_min":0,"x_max":0,"o":"m 892 1000 l 892 868 l 996 868 l 996 763 l 892 763 l 892 0 l 749 0 l 749 446 l 260 446 l 260 0 l 118 0 l 118 763 l 14 763 l 14 868 l 118 868 l 118 1000 l 260 1000 l 260 868 l 749 868 l 749 1000 m 260 565 l 749 565 l 749 763 l 260 763 "},"ħ":{"ha":788,"x_min":0,"x_max":0,"o":"m 97 0 l 97 831 l 21 831 l 21 931 l 97 931 l 97 1000 l 231 1000 l 231 931 l 435 931 l 435 831 l 231 831 l 231 640 b 442 743 283 708 360 743 b 697 471 599 743 697 647 l 697 0 l 564 0 l 564 469 b 410 629 564 578 508 629 b 231 446 314 629 231 560 l 231 0 "},"Ĩ":{"ha":350,"x_min":0,"x_max":0,"o":"m 246 1000 l 246 0 l 104 0 l 104 1000 m 258 1085 b 92 1138 169 1085 164 1138 b -26 1085 53 1138 14 1117 l -26 1197 b 97 1243 14 1226 51 1243 b 264 1190 186 1243 193 1190 b 376 1243 304 1190 336 1211 l 376 1131 b 258 1085 336 1101 304 1085 "},"ĩ":{"ha":328,"x_min":0,"x_max":0,"o":"m 97 0 l 97 722 l 231 722 l 231 0 m 247 849 b 81 901 158 849 153 901 b -37 849 42 901 3 881 l -37 961 b 86 1007 3 990 40 1007 b 253 954 175 1007 182 954 b 365 1007 293 954 325 975 l 365 894 b 247 849 325 865 293 849 "},"Ī":{"ha":350,"x_min":0,"x_max":0,"o":"m 246 1000 l 246 0 l 104 0 l 104 1000 m -12 1115 l -12 1229 l 363 1229 l 363 1115 "},"ī":{"ha":328,"x_min":0,"x_max":0,"o":"m 97 0 l 97 722 l 231 722 l 231 0 m -24 879 l -24 993 l 351 993 l 351 879 "},"Į":{"ha":350,"x_min":0,"x_max":0,"o":"m 246 1000 l 246 0 l 221 0 b 63 -175 147 -42 63 -106 b 142 -254 63 -229 94 -254 b 211 -207 185 -254 206 -232 l 319 -207 b 136 -343 296 -293 226 -343 b -44 -196 32 -343 -44 -286 b 104 1 -44 -124 13 -43 l 104 1000 "},"į":{"ha":328,"x_min":0,"x_max":0,"o":"m 218 0 b 60 -175 144 -42 60 -106 b 139 -254 60 -229 92 -254 b 208 -207 182 -254 203 -232 l 317 -207 b 133 -343 293 -293 224 -343 b -47 -196 29 -343 -47 -286 b 97 0 -47 -125 8 -46 l 97 722 l 231 722 l 231 0 m 89 843 l 89 1000 l 239 1000 l 239 843 "},"İ":{"ha":350,"x_min":0,"x_max":0,"o":"m 246 1000 l 246 0 l 104 0 l 104 1000 m 100 1079 l 100 1236 l 250 1236 l 250 1079 "},"ı":{"ha":328,"x_min":0,"x_max":0,"o":"m 97 0 l 97 722 l 231 722 l 231 0 "},"Ĵ":{"ha":750,"x_min":0,"x_max":0,"o":"m 178 281 b 347 99 183 153 247 99 b 511 294 450 99 511 169 l 511 1000 l 653 1000 l 653 293 b 342 -21 653 92 540 -21 b 35 281 160 -21 40 107 m 814 1067 l 679 1067 l 575 1181 l 471 1067 l 336 1067 l 500 1257 l 651 1257 "},"ĵ":{"ha":328,"x_min":0,"x_max":0,"o":"m -68 -144 b 15 -157 -37 -151 -4 -157 b 97 -65 71 -157 97 -142 l 97 722 l 231 722 l 231 -72 b 36 -271 231 -190 161 -271 b -68 -254 6 -271 -33 -265 m 403 831 l 268 831 l 164 944 l 60 831 l -75 831 l 89 1021 l 240 1021 "},"Ķ":{"ha":878,"x_min":0,"x_max":0,"o":"m 683 0 l 246 471 l 246 0 l 104 0 l 104 1000 l 246 1000 l 246 556 l 653 1000 l 828 1000 l 374 522 l 871 0 m 497 -193 b 314 -410 497 -325 401 -399 l 314 -340 b 400 -217 365 -329 400 -281 l 358 -217 l 358 -83 l 497 -83 "},"ķ":{"ha":722,"x_min":0,"x_max":0,"o":"m 97 0 l 97 1000 l 231 1000 l 231 442 l 514 722 l 689 722 l 364 408 l 729 0 l 551 0 l 231 364 l 231 0 m 435 -193 b 251 -410 435 -325 339 -399 l 251 -340 b 338 -217 303 -329 338 -281 l 296 -217 l 296 -83 l 435 -83 "},"ĸ":{"ha":722,"x_min":0,"x_max":0,"o":"m 97 0 l 97 722 l 231 722 l 231 404 l 526 722 l 689 722 l 364 382 l 729 0 l 542 0 l 231 329 l 231 0 "},"Ĺ":{"ha":767,"x_min":0,"x_max":0,"o":"m 247 1000 l 247 126 l 718 126 l 718 0 l 104 0 l 104 1000 m 208 1257 l 381 1257 l 186 1067 l 67 1067 "},"ĺ":{"ha":328,"x_min":0,"x_max":0,"o":"m 231 0 l 97 0 l 97 1000 l 231 1000 m 185 1257 l 357 1257 l 163 1067 l 43 1067 "},"Ļ":{"ha":767,"x_min":0,"x_max":0,"o":"m 247 1000 l 247 126 l 718 126 l 718 0 l 104 0 l 104 1000 m 482 -193 b 299 -410 482 -325 386 -399 l 299 -340 b 385 -217 350 -329 385 -281 l 343 -217 l 343 -83 l 482 -83 "},"ļ":{"ha":328,"x_min":0,"x_max":0,"o":"m 231 0 l 97 0 l 97 1000 l 231 1000 m 233 -193 b 50 -410 233 -325 138 -399 l 50 -340 b 136 -217 101 -329 136 -281 l 94 -217 l 94 -83 l 233 -83 "},"Ľ":{"ha":767,"x_min":0,"x_max":0,"o":"m 247 1000 l 247 126 l 718 126 l 718 0 l 104 0 l 104 1000 m 517 890 b 333 694 517 769 421 706 l 333 764 b 419 867 385 775 419 803 l 378 867 l 378 1000 l 517 1000 "},"ľ":{"ha":476,"x_min":0,"x_max":0,"o":"m 231 0 l 97 0 l 97 1000 l 231 1000 m 476 890 b 293 694 476 769 381 706 l 293 764 b 379 867 344 775 379 803 l 338 867 l 338 1000 l 476 1000 "},"Ł":{"ha":767,"x_min":0,"x_max":0,"o":"m 247 1000 l 247 614 l 465 736 l 465 594 l 247 472 l 247 126 l 718 126 l 718 0 l 104 0 l 104 392 l 35 353 l 35 494 l 104 533 l 104 1000 "},"ł":{"ha":356,"x_min":0,"x_max":0,"o":"m 231 629 l 342 697 l 342 567 l 231 499 l 231 0 l 97 0 l 97 417 l 14 367 l 14 497 l 97 547 l 97 1000 l 231 1000 "},"Ń":{"ha":999,"x_min":0,"x_max":0,"o":"m 894 1000 l 894 0 l 715 0 l 233 838 l 233 0 l 104 0 l 104 1000 l 292 1000 l 768 169 l 768 1000 m 560 1257 l 732 1257 l 538 1067 l 418 1067 "},"ń":{"ha":788,"x_min":0,"x_max":0,"o":"m 97 0 l 97 722 l 207 722 l 222 631 b 442 743 275 704 356 743 b 697 471 599 743 697 647 l 697 0 l 564 0 l 564 469 b 410 629 564 578 508 629 b 231 446 314 629 231 560 l 231 0 m 475 1021 l 647 1021 l 453 831 l 333 831 "},"Ņ":{"ha":999,"x_min":0,"x_max":0,"o":"m 894 1000 l 894 0 l 715 0 l 233 838 l 233 0 l 104 0 l 104 1000 l 292 1000 l 768 169 l 768 1000 m 582 -193 b 399 -410 582 -325 486 -399 l 399 -340 b 485 -217 450 -329 485 -281 l 443 -217 l 443 -83 l 582 -83 "},"ņ":{"ha":788,"x_min":0,"x_max":0,"o":"m 97 0 l 97 722 l 207 722 l 222 631 b 442 743 275 704 356 743 b 697 471 599 743 697 647 l 697 0 l 564 0 l 564 469 b 410 629 564 578 508 629 b 231 446 314 629 231 560 l 231 0 m 465 -193 b 282 -410 465 -325 369 -399 l 282 -340 b 368 -217 333 -329 368 -281 l 326 -217 l 326 -83 l 465 -83 "},"Ň":{"ha":999,"x_min":0,"x_max":0,"o":"m 596 1067 l 444 1067 l 281 1257 l 415 1257 l 519 1143 l 624 1257 l 758 1257 m 894 1000 l 894 0 l 715 0 l 233 838 l 233 0 l 104 0 l 104 1000 l 292 1000 l 768 169 l 768 1000 "},"ň":{"ha":788,"x_min":0,"x_max":0,"o":"m 97 0 l 97 722 l 207 722 l 222 631 b 442 743 275 704 356 743 b 697 471 599 743 697 647 l 697 0 l 564 0 l 564 469 b 410 629 564 578 508 629 b 231 446 314 629 231 560 l 231 0 m 486 831 l 335 831 l 171 1021 l 306 1021 l 410 907 l 514 1021 l 649 1021 "},"Ŋ":{"ha":999,"x_min":0,"x_max":0,"o":"m 894 1000 l 894 -76 b 700 -271 894 -194 829 -271 b 596 -254 669 -271 631 -265 l 596 -143 b 679 -156 626 -150 660 -156 b 768 -64 736 -156 768 -140 l 768 0 l 715 0 l 233 838 l 233 0 l 104 0 l 104 1000 l 292 1000 l 768 169 l 768 1000 "},"ŋ":{"ha":788,"x_min":0,"x_max":0,"o":"m 97 0 l 97 722 l 207 722 l 222 631 b 442 743 275 704 356 743 b 697 471 599 743 697 647 l 697 -76 b 503 -271 697 -194 632 -271 b 399 -254 472 -271 433 -265 l 399 -143 b 482 -156 429 -150 463 -156 b 564 -64 535 -156 564 -140 l 564 469 b 410 629 564 578 508 629 b 231 444 314 629 231 558 l 231 0 "},"Ō":{"ha":1075,"x_min":0,"x_max":0,"o":"m 538 -21 b 63 500 260 -21 63 169 b 539 1021 63 836 275 1021 b 1013 500 803 1021 1013 844 b 538 -21 1013 169 807 -21 m 538 94 b 868 500 733 94 868 236 b 538 906 868 764 733 906 b 207 500 342 906 207 764 b 538 94 207 236 342 94 m 338 1115 l 338 1229 l 713 1229 l 713 1115 "},"ō":{"ha":824,"x_min":0,"x_max":0,"o":"m 56 361 b 413 743 56 621 217 743 b 768 361 610 743 768 621 b 411 -21 768 108 615 -21 b 56 361 210 -21 56 111 m 194 361 b 414 88 194 182 289 88 b 629 361 542 88 629 182 b 413 635 629 544 536 635 b 194 361 289 635 194 542 m 225 879 l 225 993 l 600 993 l 600 879 "},"Ő":{"ha":1075,"x_min":0,"x_max":0,"o":"m 538 -21 b 63 500 260 -21 63 169 b 539 1021 63 836 275 1021 b 1013 500 803 1021 1013 844 b 538 -21 1013 169 807 -21 m 538 94 b 868 500 733 94 868 236 b 538 906 868 764 733 906 b 207 500 342 906 207 764 b 538 94 207 236 342 94 m 482 1257 l 631 1257 l 453 1067 l 347 1067 m 724 1257 l 872 1257 l 694 1067 l 589 1067 "},"ő":{"ha":824,"x_min":0,"x_max":0,"o":"m 56 361 b 413 743 56 621 217 743 b 768 361 610 743 768 621 b 411 -21 768 108 615 -21 b 56 361 210 -21 56 111 m 194 361 b 414 88 194 182 289 88 b 629 361 542 88 629 182 b 413 635 629 544 536 635 b 194 361 289 635 194 542 m 368 1021 l 517 1021 l 339 831 l 233 831 m 610 1021 l 758 1021 l 581 831 l 475 831 "},"Œ":{"ha":1376,"x_min":0,"x_max":0,"o":"m 1307 0 l 711 0 b 538 -21 669 -10 619 -21 b 63 500 310 -21 63 114 b 538 1021 63 878 315 1021 b 711 1000 619 1021 665 1011 l 1307 1000 l 1307 881 l 853 881 l 853 567 l 1267 567 l 1267 450 l 853 450 l 853 119 l 1307 119 m 538 94 b 711 128 594 94 657 104 l 711 872 b 538 906 657 896 594 906 b 207 500 342 906 207 764 b 538 94 207 236 338 94 "},"œ":{"ha":1372,"x_min":0,"x_max":0,"o":"m 1301 208 b 978 -21 1265 72 1146 -21 b 700 122 874 -21 768 19 b 413 -21 628 11 506 -21 b 56 361 271 -21 56 54 b 413 743 56 668 271 743 b 700 600 506 743 628 711 b 971 743 768 704 878 743 b 1310 332 1169 743 1310 625 l 760 332 b 982 92 772 136 892 92 b 1157 208 1072 92 1136 143 m 194 361 b 414 88 194 167 303 88 b 629 361 525 88 629 164 b 413 635 629 558 522 635 b 194 361 303 635 194 556 m 974 636 b 765 438 878 636 788 582 l 1174 438 b 974 636 1164 572 1085 636 "},"Ŕ":{"ha":906,"x_min":0,"x_max":0,"o":"m 725 0 l 483 381 l 246 381 l 246 0 l 104 0 l 104 1000 l 428 1000 b 824 686 682 1000 824 888 b 622 410 824 535 732 451 l 892 0 m 246 885 l 246 496 l 435 496 b 676 686 590 496 676 569 b 431 885 676 815 599 885 m 456 1257 l 628 1257 l 433 1067 l 314 1067 "},"ŕ":{"ha":494,"x_min":0,"x_max":0,"o":"m 97 0 l 97 722 l 207 722 l 225 615 b 408 743 265 699 328 743 b 488 733 443 743 471 738 l 488 600 b 403 613 461 607 435 613 b 231 363 311 613 231 544 l 231 0 m 354 1021 l 526 1021 l 332 831 l 213 831 "},"Ŗ":{"ha":906,"x_min":0,"x_max":0,"o":"m 725 0 l 483 381 l 246 381 l 246 0 l 104 0 l 104 1000 l 428 1000 b 824 686 682 1000 824 888 b 622 410 824 535 732 451 l 892 0 m 246 885 l 246 496 l 435 496 b 676 686 590 496 676 569 b 431 885 676 815 599 885 m 501 -193 b 318 -410 501 -325 406 -399 l 318 -340 b 404 -217 369 -329 404 -281 l 363 -217 l 363 -83 l 501 -83 "},"ŗ":{"ha":494,"x_min":0,"x_max":0,"o":"m 97 0 l 97 722 l 207 722 l 225 615 b 408 743 265 699 328 743 b 488 733 443 743 471 738 l 488 600 b 403 613 461 607 435 613 b 231 363 311 613 231 544 l 231 0 m 233 -193 b 50 -410 233 -325 138 -399 l 50 -340 b 136 -217 101 -329 136 -281 l 94 -217 l 94 -83 l 233 -83 "},"Ř":{"ha":906,"x_min":0,"x_max":0,"o":"m 725 0 l 483 381 l 246 381 l 246 0 l 104 0 l 104 1000 l 428 1000 b 824 686 682 1000 824 888 b 622 410 824 535 732 451 l 892 0 m 246 885 l 246 496 l 435 496 b 676 686 590 496 676 569 b 431 885 676 815 599 885 m 490 1067 l 339 1067 l 175 1257 l 310 1257 l 414 1143 l 518 1257 l 653 1257 "},"ř":{"ha":494,"x_min":0,"x_max":0,"o":"m 97 0 l 97 722 l 207 722 l 225 615 b 408 743 265 699 328 743 b 488 733 443 743 471 738 l 488 600 b 403 613 461 607 435 613 b 231 363 311 613 231 544 l 231 0 m 360 831 l 208 831 l 44 1021 l 179 1021 l 283 907 l 388 1021 l 522 1021 "},"Ś":{"ha":907,"x_min":0,"x_max":0,"o":"m 703 271 b 388 481 703 364 657 407 b 83 764 156 544 83 626 b 442 1021 83 910 213 1021 b 838 750 656 1021 813 919 l 692 750 b 442 904 676 847 592 904 b 225 769 289 904 225 844 b 488 590 225 692 258 654 b 844 276 765 513 844 431 b 454 -21 844 121 703 -21 b 49 281 239 -21 76 97 l 194 281 b 451 96 211 168 303 96 b 703 271 618 96 703 176 m 496 1257 l 668 1257 l 474 1067 l 354 1067 "},"ś":{"ha":710,"x_min":0,"x_max":0,"o":"m 519 196 b 310 329 519 281 439 300 b 72 538 140 367 72 431 b 353 743 72 661 171 743 b 649 532 514 743 625 664 l 513 532 b 351 638 497 599 443 638 b 207 550 251 638 207 600 b 375 439 207 494 236 469 b 654 206 543 401 654 354 b 353 -21 654 74 544 -21 b 42 207 172 -21 54 68 l 178 207 b 354 85 193 121 253 85 b 519 196 463 85 519 133 m 410 1021 l 582 1021 l 388 831 l 268 831 "},"Ŝ":{"ha":907,"x_min":0,"x_max":0,"o":"m 703 271 b 388 481 703 364 657 407 b 83 764 156 544 83 626 b 442 1021 83 910 213 1021 b 838 750 656 1021 813 919 l 692 750 b 442 904 676 847 592 904 b 225 769 289 904 225 844 b 488 590 225 692 258 654 b 844 276 765 513 844 431 b 454 -21 844 121 703 -21 b 49 281 239 -21 76 97 l 194 281 b 451 96 211 168 303 96 b 703 271 618 96 703 176 m 683 1067 l 549 1067 l 444 1181 l 340 1067 l 206 1067 l 369 1257 l 521 1257 "},"ŝ":{"ha":710,"x_min":0,"x_max":0,"o":"m 519 196 b 310 329 519 281 439 300 b 72 538 140 367 72 431 b 353 743 72 661 171 743 b 649 532 514 743 625 664 l 513 532 b 351 638 497 599 443 638 b 207 550 251 638 207 600 b 375 439 207 494 236 469 b 654 206 543 401 654 354 b 353 -21 654 74 544 -21 b 42 207 172 -21 54 68 l 178 207 b 354 85 193 121 253 85 b 519 196 463 85 519 133 m 592 831 l 457 831 l 353 944 l 249 831 l 114 831 l 278 1021 l 429 1021 "},"Ş":{"ha":907,"x_min":0,"x_max":0,"o":"m 631 -194 b 451 -346 631 -285 556 -346 b 272 -206 361 -346 286 -296 l 376 -206 b 453 -261 381 -232 407 -261 b 528 -196 497 -261 528 -237 b 397 -126 528 -150 493 -126 l 407 -18 b 49 281 215 -3 74 111 l 194 281 b 451 96 211 168 303 96 b 703 271 618 96 703 176 b 388 481 703 364 657 407 b 83 764 156 544 83 626 b 442 1021 83 910 213 1021 b 838 750 656 1021 813 919 l 692 750 b 442 904 676 847 592 904 b 225 769 289 904 225 844 b 488 590 225 692 258 654 b 844 276 765 513 844 431 b 504 -18 844 131 721 -1 l 504 -58 b 631 -194 586 -76 631 -119 "},"ş":{"ha":710,"x_min":0,"x_max":0,"o":"m 532 -194 b 353 -346 532 -285 457 -346 b 174 -206 264 -346 188 -296 l 278 -206 b 354 -261 282 -232 308 -261 b 429 -196 399 -261 429 -237 b 299 -126 429 -150 394 -126 l 308 -18 b 42 207 153 -6 53 79 l 178 207 b 354 85 193 121 253 85 b 519 196 463 85 519 133 b 310 329 519 281 439 300 b 72 538 140 367 72 431 b 353 743 72 661 171 743 b 649 532 514 743 625 664 l 513 532 b 351 638 497 599 443 638 b 207 550 251 638 207 600 b 375 439 207 494 236 469 b 654 206 543 401 654 354 b 406 -18 654 86 564 -1 l 406 -58 b 532 -194 488 -76 532 -119 "},"Š":{"ha":907,"x_min":0,"x_max":0,"o":"m 703 271 b 388 481 703 364 657 407 b 83 764 156 544 83 626 b 442 1021 83 910 213 1021 b 838 750 656 1021 813 919 l 692 750 b 442 904 676 847 592 904 b 225 769 289 904 225 844 b 488 590 225 692 258 654 b 844 276 765 513 844 431 b 454 -21 844 121 703 -21 b 49 281 239 -21 76 97 l 194 281 b 451 96 211 168 303 96 b 703 271 618 96 703 176 m 518 1067 l 367 1067 l 203 1257 l 338 1257 l 442 1143 l 546 1257 l 681 1257 "},"š":{"ha":710,"x_min":0,"x_max":0,"o":"m 519 196 b 310 329 519 281 439 300 b 72 538 140 367 72 431 b 353 743 72 661 171 743 b 649 532 514 743 625 664 l 513 532 b 351 638 497 599 443 638 b 207 550 251 638 207 600 b 375 439 207 494 236 469 b 654 206 543 401 654 354 b 353 -21 654 74 544 -21 b 42 207 172 -21 54 68 l 178 207 b 354 85 193 121 253 85 b 519 196 463 85 519 133 m 433 831 l 282 831 l 118 1021 l 253 1021 l 357 907 l 461 1021 l 596 1021 "},"Ţ":{"ha":838,"x_min":0,"x_max":0,"o":"m 824 874 l 488 874 l 488 0 l 346 0 l 346 874 l 14 874 l 14 1000 l 824 1000 m 485 -193 b 301 -410 485 -325 389 -399 l 301 -340 b 388 -217 353 -329 388 -281 l 346 -217 l 346 -83 l 485 -83 "},"ţ":{"ha":447,"x_min":0,"x_max":0,"o":"m 419 -7 b 321 -21 383 -17 354 -21 b 128 179 193 -21 128 60 l 128 608 l 21 608 l 21 722 l 128 722 l 136 896 l 261 896 l 261 722 l 417 722 l 417 608 l 261 608 l 261 176 b 338 96 261 122 288 96 b 419 107 361 96 379 97 m 306 -193 b 122 -410 306 -325 210 -399 l 122 -340 b 208 -217 174 -329 208 -281 l 167 -217 l 167 -83 l 306 -83 "},"Ť":{"ha":838,"x_min":0,"x_max":0,"o":"m 824 874 l 488 874 l 488 0 l 346 0 l 346 874 l 14 874 l 14 1000 l 824 1000 m 493 1067 l 342 1067 l 178 1257 l 313 1257 l 417 1143 l 521 1257 l 656 1257 "},"ť":{"ha":524,"x_min":0,"x_max":0,"o":"m 538 918 b 376 756 538 814 464 763 l 376 822 b 442 881 428 831 442 853 l 401 881 l 401 1000 l 538 1000 m 419 -7 b 321 -21 383 -17 354 -21 b 128 179 193 -21 128 60 l 128 608 l 21 608 l 21 722 l 128 722 l 136 896 l 261 896 l 261 722 l 417 722 l 417 608 l 261 608 l 261 176 b 338 96 261 122 288 96 b 419 107 361 96 379 97 "},"Ŧ":{"ha":838,"x_min":0,"x_max":0,"o":"m 824 874 l 488 874 l 488 619 l 685 619 l 685 515 l 488 515 l 488 0 l 346 0 l 346 515 l 153 515 l 153 619 l 346 619 l 346 874 l 14 874 l 14 1000 l 824 1000 "},"ŧ":{"ha":447,"x_min":0,"x_max":0,"o":"m 261 608 l 261 529 l 403 529 l 403 429 l 261 429 l 261 176 b 338 96 261 122 288 96 b 419 107 361 96 379 97 l 419 -7 b 321 -21 383 -17 354 -21 b 128 179 193 -21 128 60 l 128 429 l 31 429 l 31 529 l 128 529 l 128 608 l 21 608 l 21 722 l 128 722 l 136 896 l 261 896 l 261 722 l 417 722 l 417 608 "},"Ũ":{"ha":982,"x_min":0,"x_max":0,"o":"m 239 1000 l 239 322 b 493 99 239 189 329 99 b 747 322 657 99 747 190 l 747 1000 l 885 1000 l 885 335 b 492 -21 885 114 728 -21 b 97 335 250 -21 97 119 l 97 1000 m 586 1085 b 419 1138 497 1085 492 1138 b 301 1085 381 1138 342 1117 l 301 1197 b 425 1243 342 1226 379 1243 b 592 1190 514 1243 521 1190 b 704 1243 632 1190 664 1211 l 704 1131 b 586 1085 664 1101 632 1085 "},"ũ":{"ha":782,"x_min":0,"x_max":0,"o":"m 224 722 l 224 249 b 374 93 224 142 281 93 b 551 282 494 93 551 183 l 551 722 l 685 722 l 685 0 l 575 0 l 560 83 b 343 -21 508 14 431 -21 b 90 251 194 -21 90 67 l 90 722 m 464 849 b 297 901 375 849 369 901 b 179 849 258 901 219 881 l 179 961 b 303 1007 219 990 257 1007 b 469 954 392 1007 399 954 b 582 1007 510 954 542 975 l 582 894 b 464 849 542 865 510 849 "},"Ū":{"ha":982,"x_min":0,"x_max":0,"o":"m 239 1000 l 239 322 b 493 99 239 189 329 99 b 747 322 657 99 747 190 l 747 1000 l 885 1000 l 885 335 b 492 -21 885 114 728 -21 b 97 335 250 -21 97 119 l 97 1000 m 306 1115 l 306 1229 l 681 1229 l 681 1115 "},"ū":{"ha":782,"x_min":0,"x_max":0,"o":"m 224 722 l 224 249 b 374 93 224 142 281 93 b 551 282 494 93 551 183 l 551 722 l 685 722 l 685 0 l 575 0 l 560 83 b 343 -21 508 14 431 -21 b 90 251 194 -21 90 67 l 90 722 m 200 879 l 200 993 l 575 993 l 575 879 "},"Ŭ":{"ha":982,"x_min":0,"x_max":0,"o":"m 239 1000 l 239 322 b 493 99 239 189 329 99 b 747 322 657 99 747 190 l 747 1000 l 885 1000 l 885 335 b 492 -21 885 114 728 -21 b 97 335 250 -21 97 119 l 97 1000 m 490 1072 b 289 1257 375 1072 304 1139 l 406 1257 b 490 1161 410 1200 432 1161 b 575 1257 549 1161 571 1200 l 692 1257 b 490 1072 676 1139 604 1072 "},"ŭ":{"ha":782,"x_min":0,"x_max":0,"o":"m 224 722 l 224 249 b 374 93 224 142 281 93 b 551 282 494 93 551 183 l 551 722 l 685 722 l 685 0 l 575 0 l 560 83 b 343 -21 508 14 431 -21 b 90 251 194 -21 90 67 l 90 722 m 382 836 b 181 1021 267 836 196 903 l 297 1021 b 382 925 301 964 324 925 b 467 1021 440 925 463 964 l 583 1021 b 382 836 568 903 496 836 "},"Ů":{"ha":982,"x_min":0,"x_max":0,"o":"m 239 1000 l 239 322 b 493 99 239 189 329 99 b 747 322 657 99 747 190 l 747 1000 l 885 1000 l 885 335 b 492 -21 885 114 728 -21 b 97 335 250 -21 97 119 l 97 1000 m 404 1208 b 492 1121 404 1156 439 1121 b 581 1208 544 1121 581 1156 b 492 1296 581 1261 546 1296 b 404 1208 439 1296 404 1261 m 675 1208 b 492 1042 675 1115 606 1042 b 310 1208 378 1042 310 1115 b 492 1375 310 1301 378 1375 b 675 1208 606 1375 675 1301 "},"ů":{"ha":782,"x_min":0,"x_max":0,"o":"m 224 722 l 224 249 b 374 93 224 142 281 93 b 551 282 494 93 551 183 l 551 722 l 685 722 l 685 0 l 575 0 l 560 83 b 343 -21 508 14 431 -21 b 90 251 194 -21 90 67 l 90 722 m 301 972 b 389 885 301 919 336 885 b 478 972 442 885 478 919 b 389 1060 478 1025 443 1060 b 301 972 336 1060 301 1025 m 572 972 b 389 806 572 879 503 806 b 207 972 275 806 207 879 b 389 1139 207 1065 275 1139 b 572 972 503 1139 572 1065 "},"Ű":{"ha":982,"x_min":0,"x_max":0,"o":"m 239 1000 l 239 322 b 493 99 239 189 329 99 b 747 322 657 99 747 190 l 747 1000 l 885 1000 l 885 335 b 492 -21 885 114 728 -21 b 97 335 250 -21 97 119 l 97 1000 m 442 1257 l 590 1257 l 413 1067 l 307 1067 m 683 1257 l 832 1257 l 654 1067 l 549 1067 "},"ű":{"ha":782,"x_min":0,"x_max":0,"o":"m 224 722 l 224 249 b 374 93 224 142 281 93 b 551 282 494 93 551 183 l 551 722 l 685 722 l 685 0 l 575 0 l 560 83 b 343 -21 508 14 431 -21 b 90 251 194 -21 90 67 l 90 722 m 351 1021 l 500 1021 l 322 831 l 217 831 m 593 1021 l 742 1021 l 564 831 l 458 831 "},"Ų":{"ha":982,"x_min":0,"x_max":0,"o":"m 567 -343 b 386 -196 463 -343 386 -286 b 494 -21 386 -135 426 -68 b 97 335 250 -21 97 119 l 97 1000 l 239 1000 l 239 322 b 493 99 239 189 329 99 b 747 322 657 99 747 190 l 747 1000 l 885 1000 l 885 335 b 669 8 885 174 803 67 b 493 -175 590 -26 493 -101 b 572 -254 493 -229 525 -254 b 642 -207 615 -254 636 -232 l 750 -207 b 567 -343 726 -293 657 -343 "},"ų":{"ha":782,"x_min":0,"x_max":0,"o":"m 685 722 l 685 0 b 528 -175 611 -42 528 -106 b 607 -254 528 -229 560 -254 b 676 -207 650 -254 671 -232 l 785 -207 b 601 -339 761 -289 692 -339 b 425 -196 497 -339 425 -286 b 574 4 425 -122 483 -42 l 560 83 b 343 -21 508 14 431 -21 b 90 251 194 -21 90 67 l 90 722 l 224 722 l 224 249 b 374 93 224 142 281 93 b 551 274 492 93 551 178 l 551 722 "},"Ŵ":{"ha":1338,"x_min":0,"x_max":0,"o":"m 1331 1000 l 1067 0 l 903 0 l 676 847 l 443 0 l 269 0 l 7 1000 l 151 1000 l 364 168 l 593 1000 l 769 1000 l 986 171 l 1200 1000 m 910 1067 l 775 1067 l 671 1181 l 567 1067 l 432 1067 l 596 1257 l 747 1257 "},"ŵ":{"ha":1125,"x_min":0,"x_max":0,"o":"m 1104 722 l 893 0 l 739 0 l 564 571 l 392 0 l 232 0 l 21 722 l 160 722 l 315 142 l 488 722 l 647 722 l 817 144 l 971 722 m 801 831 l 667 831 l 563 944 l 458 831 l 324 831 l 488 1021 l 639 1021 "},"Ÿ":{"ha":874,"x_min":0,"x_max":0,"o":"m 367 0 l 367 397 l 0 1000 l 156 1000 l 438 519 l 729 1000 l 874 1000 l 507 397 l 507 0 m 208 1097 l 208 1236 l 353 1236 l 353 1097 m 522 1097 l 522 1236 l 667 1236 l 667 1097 "},"Ź":{"ha":888,"x_min":0,"x_max":0,"o":"m 222 122 l 818 122 l 818 0 l 56 0 l 56 124 l 664 878 l 88 878 l 88 1000 l 832 1000 l 832 881 m 503 1257 l 675 1257 l 481 1067 l 361 1067 "},"ź":{"ha":669,"x_min":0,"x_max":0,"o":"m 199 114 l 628 114 l 628 0 l 42 0 l 42 126 l 471 610 l 63 610 l 63 722 l 628 722 l 628 596 m 418 1021 l 590 1021 l 396 831 l 276 831 "},"Ż":{"ha":888,"x_min":0,"x_max":0,"o":"m 222 122 l 818 122 l 818 0 l 56 0 l 56 124 l 664 878 l 88 878 l 88 1000 l 832 1000 l 832 881 m 376 1079 l 376 1236 l 526 1236 l 526 1079 "},"ż":{"ha":669,"x_min":0,"x_max":0,"o":"m 199 114 l 628 114 l 628 0 l 42 0 l 42 126 l 471 610 l 63 610 l 63 722 l 628 722 l 628 596 m 274 843 l 274 1000 l 424 1000 l 424 843 "},"Ž":{"ha":888,"x_min":0,"x_max":0,"o":"m 222 122 l 818 122 l 818 0 l 56 0 l 56 124 l 664 878 l 88 878 l 88 1000 l 832 1000 l 832 881 m 538 1067 l 386 1067 l 222 1257 l 357 1257 l 461 1143 l 565 1257 l 700 1257 "},"ž":{"ha":669,"x_min":0,"x_max":0,"o":"m 199 114 l 628 114 l 628 0 l 42 0 l 42 126 l 471 610 l 63 610 l 63 722 l 628 722 l 628 596 m 433 831 l 282 831 l 118 1021 l 253 1021 l 357 907 l 461 1021 l 596 1021 "},"ƒ":{"ha":447,"x_min":0,"x_max":0,"o":"m 454 861 b 344 878 410 872 376 878 b 268 804 306 878 268 857 l 268 701 l 424 701 l 424 588 l 268 588 l 268 -250 l 135 -250 l 135 588 l 28 588 l 28 701 l 135 701 l 135 796 b 336 993 135 907 210 993 b 454 976 385 993 417 986 "},"Ș":{"ha":907,"x_min":0,"x_max":0,"o":"m 703 271 b 388 481 703 364 657 407 b 83 764 156 544 83 626 b 442 1021 83 910 213 1021 b 838 750 656 1021 813 919 l 692 750 b 442 904 676 847 592 904 b 225 769 289 904 225 844 b 488 590 225 692 258 654 b 844 276 765 513 844 431 b 454 -21 844 121 703 -21 b 49 281 239 -21 76 97 l 194 281 b 451 96 211 168 303 96 b 703 271 618 96 703 176 m 526 -193 b 343 -410 526 -325 431 -399 l 343 -340 b 429 -217 394 -329 429 -281 l 388 -217 l 388 -83 l 526 -83 "},"ș":{"ha":710,"x_min":0,"x_max":0,"o":"m 519 196 b 310 329 519 281 439 300 b 72 538 140 367 72 431 b 353 743 72 661 171 743 b 649 532 514 743 625 664 l 513 532 b 351 638 497 599 443 638 b 207 550 251 638 207 600 b 375 439 207 494 236 469 b 654 206 543 401 654 354 b 353 -21 654 74 544 -21 b 42 207 172 -21 54 68 l 178 207 b 354 85 193 121 253 85 b 519 196 463 85 519 133 m 429 -193 b 246 -410 429 -325 333 -399 l 246 -340 b 332 -217 297 -329 332 -281 l 290 -217 l 290 -83 l 429 -83 "},"Ț":{"ha":838,"x_min":0,"x_max":0,"o":"m 824 874 l 488 874 l 488 0 l 346 0 l 346 874 l 14 874 l 14 1000 l 824 1000 m 485 -193 b 301 -410 485 -325 389 -399 l 301 -340 b 388 -217 353 -329 388 -281 l 346 -217 l 346 -83 l 485 -83 "},"ț":{"ha":447,"x_min":0,"x_max":0,"o":"m 419 -7 b 321 -21 383 -17 354 -21 b 128 179 193 -21 128 60 l 128 608 l 21 608 l 21 722 l 128 722 l 136 896 l 261 896 l 261 722 l 417 722 l 417 608 l 261 608 l 261 176 b 338 96 261 122 288 96 b 419 107 361 96 379 97 m 306 -193 b 122 -410 306 -325 210 -399 l 122 -340 b 208 -217 174 -329 208 -281 l 167 -217 l 167 -83 l 306 -83 "},"ȷ":{"ha":328,"x_min":0,"x_max":0,"o":"m -68 -144 b 15 -157 -37 -151 -4 -157 b 97 -65 71 -157 97 -142 l 97 722 l 231 722 l 231 -72 b 36 -271 231 -190 161 -271 b -68 -254 6 -271 -33 -265 "},"ˆ":{"ha":556,"x_min":0,"x_max":0,"o":"m 517 831 l 382 831 l 278 944 l 174 831 l 39 831 l 203 1021 l 354 1021 "},"ˇ":{"ha":556,"x_min":0,"x_max":0,"o":"m 354 831 l 203 831 l 39 1021 l 174 1021 l 278 907 l 382 1021 l 517 1021 "},"ˉ":{"ha":458,"x_min":0,"x_max":0,"o":"m 42 882 l 42 990 l 417 990 l 417 882 "},"˘":{"ha":458,"x_min":0,"x_max":0,"o":"m 229 836 b 28 1021 114 836 43 903 l 144 1021 b 229 925 149 964 171 925 b 314 1021 288 925 310 964 l 431 1021 b 229 836 415 903 343 836 "},"˙":{"ha":233,"x_min":0,"x_max":0,"o":"m 42 843 l 42 1000 l 192 1000 l 192 843 "},"˚":{"ha":449,"x_min":0,"x_max":0,"o":"m 136 972 b 224 885 136 919 171 885 b 313 972 276 885 313 919 b 224 1060 313 1025 278 1060 b 136 972 171 1060 136 1025 m 407 972 b 224 806 407 879 338 806 b 42 972 110 806 42 879 b 224 1139 42 1065 110 1139 b 407 972 338 1139 407 1065 "},"˛":{"ha":443,"x_min":0,"x_max":0,"o":"m 218 -343 b 38 -196 114 -343 38 -286 b 249 26 38 -108 121 -10 l 353 26 b 144 -175 276 -10 144 -89 b 224 -254 144 -229 176 -254 b 293 -207 267 -254 288 -232 l 401 -207 b 218 -343 378 -293 308 -343 "},"˜":{"ha":486,"x_min":0,"x_max":0,"o":"m 326 849 b 160 901 238 849 232 901 b 42 849 121 901 82 881 l 42 961 b 165 1007 82 990 119 1007 b 332 954 254 1007 261 954 b 444 1007 372 954 404 975 l 444 894 b 326 849 404 865 372 849 "},"˝":{"ha":608,"x_min":0,"x_max":0,"o":"m 176 1021 l 325 1021 l 147 831 l 42 831 m 418 1021 l 567 1021 l 389 831 l 283 831 "},"̒":{"ha":232,"x_min":0,"x_max":0,"o":"m 40 915 b 224 1111 40 1036 136 1100 l 224 1042 b 138 939 172 1031 138 1003 l 179 939 l 179 806 l 40 806 "},"̣":{"ha":233,"x_min":0,"x_max":0,"o":"m 47 -250 l 47 -93 l 197 -93 l 197 -250 "},";":{"ha":417,"x_min":0,"x_max":0,"o":"m 128 561 l 128 722 l 289 722 l 289 561 m 289 21 b 107 -208 289 -137 194 -197 l 107 -139 b 193 0 158 -128 193 -92 l 128 0 l 128 161 l 289 161 "},"΄":{"ha":286,"x_min":0,"x_max":0,"o":"m 79 1000 l 244 1000 l 140 796 l 42 796 "},"΅":{"ha":542,"x_min":0,"x_max":0,"o":"m 251 1182 l 417 1182 l 313 978 l 214 978 m 47 819 l 47 958 l 192 958 l 192 819 m 333 819 l 333 958 l 478 958 l 478 819 "},"Ά":{"ha":981,"x_min":0,"x_max":0,"o":"m 824 0 l 725 253 l 249 253 l 149 0 l 0 0 l 411 1000 l 571 1000 l 981 0 m 294 368 l 679 368 l 489 858 m 168 1000 l 333 1000 l 229 796 l 131 796 "},"·":{"ha":417,"x_min":0,"x_max":0,"o":"m 128 361 l 128 522 l 289 522 l 289 361 "},"Έ":{"ha":936,"x_min":0,"x_max":0,"o":"m 826 450 l 385 450 l 385 119 l 867 119 l 867 0 l 243 0 l 243 1000 l 867 1000 l 867 881 l 385 881 l 385 567 l 826 567 m 15 1000 l 181 1000 l 76 796 l -22 796 "},"Ή":{"ha":1107,"x_min":0,"x_max":0,"o":"m 1003 1000 l 1003 0 l 860 0 l 860 446 l 371 446 l 371 0 l 229 0 l 229 1000 l 371 1000 l 371 565 l 860 565 l 860 1000 m 15 1000 l 181 1000 l 76 796 l -22 796 "},"Ί":{"ha":475,"x_min":0,"x_max":0,"o":"m 371 1000 l 371 0 l 229 0 l 229 1000 m 15 1000 l 181 1000 l 76 796 l -22 796 "},"Ό":{"ha":1115,"x_min":0,"x_max":0,"o":"m 578 94 b 908 500 774 94 908 236 b 578 906 908 764 774 906 b 247 500 382 906 247 764 b 578 94 247 236 382 94 m 578 -21 b 103 500 300 -21 103 169 b 579 1021 103 836 315 1021 b 1053 500 843 1021 1053 844 b 578 -21 1053 169 847 -21 m 36 1000 l 201 1000 l 97 796 l -1 796 "},"Ύ":{"ha":1060,"x_min":0,"x_max":0,"o":"m 553 0 l 553 397 l 186 1000 l 342 1000 l 624 519 l 915 1000 l 1060 1000 l 693 397 l 693 0 m -12 1000 l 153 1000 l 49 796 l -50 796 "},"Ώ":{"ha":1118,"x_min":0,"x_max":0,"o":"m 435 0 l 149 0 l 149 126 l 283 126 b 106 500 176 181 106 331 b 581 1021 106 878 358 1021 b 1056 500 803 1021 1056 886 b 874 126 1056 331 983 181 l 1013 126 l 1013 0 l 726 0 l 726 126 b 911 500 839 182 911 308 b 581 906 911 764 776 906 b 250 500 385 906 250 764 b 435 126 250 308 321 182 m 36 1000 l 201 1000 l 97 796 l -1 796 "},"ΐ":{"ha":328,"x_min":0,"x_max":0,"o":"m 97 0 l 97 722 l 231 722 l 231 0 m 153 1182 l 318 1182 l 214 978 l 115 978 m -51 819 l -51 958 l 93 958 l 93 819 m 235 819 l 235 958 l 379 958 l 379 819 "},"Α":{"ha":981,"x_min":0,"x_max":0,"o":"m 824 0 l 725 253 l 249 253 l 149 0 l 0 0 l 411 1000 l 571 1000 l 981 0 m 294 368 l 679 368 l 489 858 "},"Β":{"ha":906,"x_min":0,"x_max":0,"o":"m 464 1000 b 813 735 694 1000 813 900 b 651 529 813 640 743 553 b 843 282 754 511 843 414 b 461 0 843 106 713 0 l 104 0 l 104 1000 m 246 469 l 246 115 l 482 115 b 696 282 626 115 696 175 b 488 469 696 404 625 469 m 246 893 l 246 578 l 483 578 b 669 735 606 578 669 642 b 475 893 669 833 599 893 "},"Γ":{"ha":689,"x_min":0,"x_max":0,"o":"m 675 881 l 246 881 l 246 0 l 104 0 l 104 1000 l 675 1000 "},"Δ":{"ha":981,"x_min":0,"x_max":0,"o":"m 0 0 l 411 1000 l 571 1000 l 981 0 m 196 119 l 776 119 l 489 858 "},"Ε":{"ha":797,"x_min":0,"x_max":0,"o":"m 688 450 l 246 450 l 246 119 l 728 119 l 728 0 l 104 0 l 104 1000 l 728 1000 l 728 881 l 246 881 l 246 567 l 688 567 "},"Ζ":{"ha":888,"x_min":0,"x_max":0,"o":"m 222 122 l 818 122 l 818 0 l 56 0 l 56 124 l 664 878 l 88 878 l 88 1000 l 832 1000 l 832 881 "},"Η":{"ha":982,"x_min":0,"x_max":0,"o":"m 878 1000 l 878 0 l 735 0 l 735 446 l 246 446 l 246 0 l 104 0 l 104 1000 l 246 1000 l 246 565 l 735 565 l 735 1000 "},"Θ":{"ha":1075,"x_min":0,"x_max":0,"o":"m 781 450 l 294 450 l 294 567 l 781 567 m 538 -21 b 63 500 260 -21 63 169 b 539 1021 63 836 275 1021 b 1013 500 803 1021 1013 844 b 538 -21 1013 169 807 -21 m 538 94 b 868 500 733 94 868 236 b 538 906 868 764 733 906 b 207 500 342 906 207 764 b 538 94 207 236 342 94 "},"Ι":{"ha":350,"x_min":0,"x_max":0,"o":"m 246 1000 l 246 0 l 104 0 l 104 1000 "},"Κ":{"ha":878,"x_min":0,"x_max":0,"o":"m 683 0 l 246 471 l 246 0 l 104 0 l 104 1000 l 246 1000 l 246 556 l 653 1000 l 828 1000 l 374 522 l 871 0 "},"Λ":{"ha":967,"x_min":0,"x_max":0,"o":"m 810 0 l 482 858 l 149 0 l 0 0 l 404 1000 l 564 1000 l 967 0 "},"Μ":{"ha":1210,"x_min":0,"x_max":0,"o":"m 550 0 l 242 783 l 242 0 l 104 0 l 104 1000 l 301 1000 l 619 167 l 919 1000 l 1106 1000 l 1106 0 l 972 0 l 972 776 l 683 0 "},"Ν":{"ha":999,"x_min":0,"x_max":0,"o":"m 894 1000 l 894 0 l 715 0 l 233 838 l 233 0 l 104 0 l 104 1000 l 292 1000 l 768 169 l 768 1000 "},"Ξ":{"ha":804,"x_min":0,"x_max":0,"o":"m 735 0 l 69 0 l 69 126 l 735 126 m 735 875 l 69 875 l 69 1000 l 735 1000 m 631 446 l 172 446 l 172 571 l 631 571 "},"Ο":{"ha":1075,"x_min":0,"x_max":0,"o":"m 538 94 b 868 500 733 94 868 236 b 538 906 868 764 733 906 b 207 500 342 906 207 764 b 538 94 207 236 342 94 m 538 -21 b 63 500 260 -21 63 169 b 539 1021 63 836 275 1021 b 1013 500 803 1021 1013 844 b 538 -21 1013 169 807 -21 "},"Π":{"ha":982,"x_min":0,"x_max":0,"o":"m 878 1000 l 878 0 l 735 0 l 735 881 l 246 881 l 246 0 l 104 0 l 104 1000 "},"Ρ":{"ha":876,"x_min":0,"x_max":0,"o":"m 429 1000 b 821 675 681 1000 821 886 b 424 357 821 472 686 357 l 246 357 l 246 0 l 104 0 l 104 1000 m 246 885 l 246 472 l 426 472 b 674 675 603 472 674 544 b 432 885 674 807 589 885 "},"Σ":{"ha":790,"x_min":0,"x_max":0,"o":"m 218 118 l 742 118 l 742 0 l 49 0 l 49 119 l 389 501 l 49 881 l 49 1000 l 742 1000 l 742 882 l 218 882 l 517 550 l 517 451 "},"Τ":{"ha":838,"x_min":0,"x_max":0,"o":"m 824 874 l 488 874 l 488 0 l 346 0 l 346 874 l 14 874 l 14 1000 l 824 1000 "},"Υ":{"ha":874,"x_min":0,"x_max":0,"o":"m 367 0 l 367 397 l 0 1000 l 156 1000 l 438 519 l 729 1000 l 874 1000 l 507 397 l 507 0 "},"Φ":{"ha":1189,"x_min":0,"x_max":0,"o":"m 665 1021 l 665 965 b 1126 500 922 958 1126 801 b 665 35 1126 201 935 40 l 665 -21 l 524 -21 l 524 35 b 63 500 253 40 63 201 b 524 965 63 801 267 958 l 524 1021 m 207 500 b 524 150 207 256 335 154 l 524 850 b 207 500 335 844 207 743 m 982 500 b 665 850 982 743 853 844 l 665 150 b 982 500 853 154 982 256 "},"Χ":{"ha":906,"x_min":0,"x_max":0,"o":"m 532 521 l 892 0 l 722 0 l 454 404 l 174 0 l 14 0 l 375 517 l 39 1000 l 206 1000 l 460 628 l 719 1000 l 881 1000 "},"Ψ":{"ha":1065,"x_min":0,"x_max":0,"o":"m 225 1000 l 225 568 b 465 351 225 450 300 369 l 465 1000 l 607 1000 l 607 353 b 844 568 768 371 844 451 l 844 1000 l 982 1000 l 982 581 b 607 232 982 379 851 253 l 607 0 l 465 0 l 465 232 b 83 581 214 251 83 382 l 83 1000 "},"Ω":{"ha":1075,"x_min":0,"x_max":0,"o":"m 392 0 l 106 0 l 106 126 l 240 126 b 63 500 133 181 63 331 b 538 1021 63 878 315 1021 b 1013 500 760 1021 1013 886 b 831 126 1013 331 940 181 l 969 126 l 969 0 l 683 0 l 683 126 b 868 500 796 182 868 308 b 538 906 868 764 733 906 b 207 500 342 906 207 764 b 392 126 207 308 278 182 "},"Ϊ":{"ha":350,"x_min":0,"x_max":0,"o":"m 246 1000 l 246 0 l 104 0 l 104 1000 m -54 1097 l -54 1236 l 90 1236 l 90 1097 m 260 1097 l 260 1236 l 404 1236 l 404 1097 "},"Ϋ":{"ha":874,"x_min":0,"x_max":0,"o":"m 367 0 l 367 397 l 0 1000 l 156 1000 l 438 519 l 729 1000 l 874 1000 l 507 397 l 507 0 m 207 1097 l 207 1236 l 351 1236 l 351 1097 m 521 1097 l 521 1236 l 665 1236 l 665 1097 "},"ά":{"ha":839,"x_min":0,"x_max":0,"o":"m 632 0 l 608 100 b 371 -21 560 31 482 -21 b 56 357 189 -21 56 113 b 375 743 56 615 188 743 b 608 625 483 743 560 693 l 629 722 l 742 722 l 742 0 m 194 354 b 400 93 194 181 279 93 b 615 353 535 93 615 201 b 400 629 615 529 526 629 b 194 354 274 629 194 543 m 378 1000 l 543 1000 l 439 796 l 340 796 "},"έ":{"ha":742,"x_min":0,"x_max":0,"o":"m 364 90 b 540 225 472 90 525 133 l 686 225 b 365 -21 665 83 554 -21 b 56 197 158 -21 56 69 b 219 379 56 282 117 356 b 79 542 128 406 79 469 b 356 743 79 657 172 743 b 682 515 535 743 660 649 l 535 515 b 358 636 518 589 457 636 b 215 535 263 636 215 594 b 353 431 215 468 263 431 l 425 431 l 425 315 l 350 315 b 192 201 244 315 192 268 b 364 90 192 129 251 90 m 354 1000 l 519 1000 l 415 796 l 317 796 "},"ή":{"ha":788,"x_min":0,"x_max":0,"o":"m 97 0 l 97 722 l 207 722 l 222 631 b 442 743 275 704 356 743 b 697 471 599 743 697 647 l 697 -250 l 564 -250 l 564 469 b 410 629 564 578 508 629 b 231 444 314 629 231 558 l 231 0 m 368 1000 l 533 1000 l 429 796 l 331 796 "},"ί":{"ha":328,"x_min":0,"x_max":0,"o":"m 97 0 l 97 722 l 231 722 l 231 0 m 149 1000 l 314 1000 l 210 796 l 111 796 "},"ΰ":{"ha":790,"x_min":0,"x_max":0,"o":"m 396 -21 b 97 251 219 -21 97 67 l 97 722 l 231 722 l 231 249 b 396 93 231 142 303 93 b 560 249 489 93 560 142 l 560 722 l 693 722 l 693 251 b 396 -21 693 67 572 -21 m 388 1182 l 553 1182 l 449 978 l 350 978 m 183 819 l 183 958 l 328 958 l 328 819 m 469 819 l 469 958 l 614 958 l 614 819 "},"α":{"ha":839,"x_min":0,"x_max":0,"o":"m 632 0 l 608 100 b 371 -21 560 31 482 -21 b 56 357 189 -21 56 113 b 375 743 56 615 188 743 b 608 625 483 743 560 693 l 629 722 l 742 722 l 742 0 m 194 354 b 400 93 194 181 279 93 b 615 353 535 93 615 201 b 400 629 615 529 526 629 b 194 354 274 629 194 543 "},"β":{"ha":792,"x_min":0,"x_max":0,"o":"m 97 -250 l 97 722 b 383 1021 97 913 203 1021 b 675 767 560 1021 675 922 b 528 547 675 668 629 581 b 729 281 639 529 729 411 b 442 -21 729 96 604 -21 b 231 78 342 -21 275 15 l 231 -250 m 381 910 b 231 729 282 910 231 857 l 231 263 b 414 90 231 161 317 90 b 593 276 522 90 593 153 b 419 479 593 413 521 479 l 374 479 l 374 594 l 417 594 b 539 753 490 594 539 657 b 381 910 539 849 488 910 "},"γ":{"ha":714,"x_min":0,"x_max":0,"o":"m 288 -250 l 288 0 l 14 722 l 158 722 l 357 128 l 560 722 l 700 722 l 421 0 l 421 -250 "},"δ":{"ha":796,"x_min":0,"x_max":0,"o":"m 186 1000 l 681 1000 l 681 886 l 458 886 b 740 431 624 843 740 678 b 392 -21 740 144 606 -21 b 56 331 197 -21 56 108 b 372 671 56 535 193 671 b 615 544 476 671 581 617 b 186 897 589 738 404 875 m 392 560 b 192 324 271 560 192 475 b 389 90 192 172 265 90 b 611 326 510 90 611 181 b 392 560 611 464 524 560 "},"ε":{"ha":742,"x_min":0,"x_max":0,"o":"m 364 90 b 540 225 472 90 525 133 l 686 225 b 365 -21 665 83 554 -21 b 56 197 158 -21 56 69 b 219 379 56 282 117 356 b 79 542 128 406 79 469 b 356 743 79 657 172 743 b 682 515 535 743 660 649 l 535 515 b 358 636 518 589 457 636 b 215 535 263 636 215 594 b 353 431 215 468 263 431 l 425 431 l 425 315 l 350 315 b 192 201 244 315 192 268 b 364 90 192 129 251 90 "},"ζ":{"ha":622,"x_min":0,"x_max":0,"o":"m 56 892 l 56 1000 l 608 1000 l 608 906 b 193 361 340 803 193 600 b 407 89 193 200 265 115 b 606 -90 557 61 606 7 b 503 -271 606 -165 551 -231 l 422 -210 b 482 -106 450 -181 482 -142 b 351 -18 482 -58 451 -35 b 57 336 161 13 57 151 b 418 892 57 593 192 799 "},"η":{"ha":788,"x_min":0,"x_max":0,"o":"m 97 0 l 97 722 l 207 722 l 222 631 b 442 743 275 704 356 743 b 697 471 599 743 697 647 l 697 -250 l 564 -250 l 564 469 b 410 629 564 578 508 629 b 231 444 314 629 231 558 l 231 0 "},"θ":{"ha":819,"x_min":0,"x_max":0,"o":"m 410 -21 b 56 503 213 -21 56 140 b 410 1021 56 875 214 1021 b 764 503 606 1021 764 875 b 410 -21 764 140 607 -21 m 410 90 b 622 451 542 90 614 201 l 196 451 b 410 90 204 201 276 90 m 410 910 b 197 565 279 910 207 806 l 622 565 b 410 910 611 806 540 910 "},"ι":{"ha":328,"x_min":0,"x_max":0,"o":"m 97 0 l 97 722 l 231 722 l 231 0 "},"κ":{"ha":722,"x_min":0,"x_max":0,"o":"m 97 0 l 97 722 l 231 722 l 231 429 l 514 722 l 689 722 l 365 401 l 729 0 l 551 0 l 231 351 l 231 0 "},"λ":{"ha":717,"x_min":0,"x_max":0,"o":"m 703 0 l 563 0 l 356 614 l 147 0 l 14 0 l 276 722 l 318 722 b 181 910 260 886 235 910 b 111 900 158 910 139 907 l 111 1008 b 197 1021 150 1018 168 1021 b 449 732 304 1021 364 967 "},"μ":{"ha":789,"x_min":0,"x_max":0,"o":"m 692 722 l 692 0 l 582 0 l 568 78 b 364 -21 515 7 438 -21 b 231 21 313 -21 268 -4 l 231 -250 l 97 -250 l 97 722 l 231 722 l 231 249 b 381 93 231 125 307 93 b 558 276 499 93 558 181 l 558 722 "},"ν":{"ha":714,"x_min":0,"x_max":0,"o":"m 700 722 l 446 0 l 265 0 l 14 722 l 160 722 l 360 108 l 561 722 "},"ξ":{"ha":701,"x_min":0,"x_max":0,"o":"m 63 892 l 63 1000 l 608 1000 l 608 904 l 581 904 b 226 690 328 904 226 808 b 367 549 226 610 286 549 l 519 549 l 519 433 l 364 433 b 200 271 268 433 200 360 b 414 89 200 176 265 118 b 646 -94 589 54 646 0 b 526 -271 646 -149 614 -199 l 444 -210 b 508 -106 472 -181 508 -142 b 358 -18 508 -60 483 -39 b 64 260 163 15 64 117 b 249 497 64 385 129 467 b 101 685 160 524 101 607 b 279 892 101 781 149 851 "},"ο":{"ha":824,"x_min":0,"x_max":0,"o":"m 56 361 b 413 743 56 621 217 743 b 768 361 610 743 768 621 b 411 -21 768 108 615 -21 b 56 361 210 -21 56 111 m 194 361 b 414 88 194 182 289 88 b 629 361 542 88 629 182 b 413 635 629 544 536 635 b 194 361 289 635 194 542 "},"π":{"ha":789,"x_min":0,"x_max":0,"o":"m 97 0 l 97 608 l 7 608 l 7 722 l 782 722 l 782 608 l 692 608 l 692 0 l 558 0 l 558 608 l 231 608 l 231 0 "},"ρ":{"ha":839,"x_min":0,"x_max":0,"o":"m 90 375 b 444 743 93 603 204 743 b 783 367 646 743 783 604 b 456 -21 783 117 646 -21 b 224 93 346 -21 269 26 l 224 -250 l 90 -250 l 90 375 m 217 369 b 435 93 217 194 304 93 b 644 369 560 93 644 179 b 435 629 644 547 554 629 b 217 369 306 629 217 542 "},"ς":{"ha":764,"x_min":0,"x_max":0,"o":"m 197 374 b 468 94 197 204 264 121 b 692 -89 633 74 692 10 b 574 -271 692 -162 629 -224 l 493 -210 b 554 -106 524 -179 554 -142 b 407 -17 554 -56 524 -26 b 56 371 196 0 56 132 b 396 743 56 592 192 743 b 708 508 560 743 685 656 l 561 508 b 399 631 543 588 483 631 b 197 374 281 631 197 542 "},"σ":{"ha":824,"x_min":0,"x_max":0,"o":"m 686 614 b 768 361 735 556 768 465 b 411 -21 768 108 615 -21 b 56 361 210 -21 56 111 b 407 743 56 617 211 743 b 539 722 453 743 497 736 l 796 722 l 796 610 m 194 361 b 414 88 194 182 289 88 b 629 361 542 88 629 182 b 514 624 629 488 581 581 b 413 635 488 629 446 635 b 194 361 289 635 194 542 "},"τ":{"ha":667,"x_min":0,"x_max":0,"o":"m 267 0 l 267 608 l 21 608 l 21 722 l 646 722 l 646 608 l 400 608 l 400 0 "},"υ":{"ha":790,"x_min":0,"x_max":0,"o":"m 396 -21 b 97 251 219 -21 97 67 l 97 722 l 231 722 l 231 249 b 396 93 231 142 303 93 b 560 249 489 93 560 142 l 560 722 l 693 722 l 693 251 b 396 -21 693 67 572 -21 "},"φ":{"ha":1017,"x_min":0,"x_max":0,"o":"m 429 453 b 682 743 429 638 515 743 b 961 389 858 743 961 640 b 563 -18 961 144 853 -1 l 563 -250 l 429 -250 l 429 -18 b 56 321 161 -1 56 108 b 150 722 56 464 97 599 l 283 722 b 189 326 228 579 189 463 b 429 93 189 176 249 107 l 429 453 m 563 92 b 824 390 761 103 824 182 b 681 629 824 576 772 629 b 563 428 600 629 563 579 "},"χ":{"ha":735,"x_min":0,"x_max":0,"o":"m 438 260 l 721 -250 l 558 -250 l 363 147 l 171 -250 l 14 -250 l 283 250 l 31 722 l 190 722 l 363 361 l 526 722 l 679 722 "},"ψ":{"ha":1038,"x_min":0,"x_max":0,"o":"m 232 722 l 232 322 b 456 103 232 204 307 121 l 456 722 l 589 722 l 589 103 b 810 322 735 122 810 207 l 810 722 l 940 722 l 940 335 b 589 -17 940 133 810 4 l 589 -250 l 456 -250 l 456 -18 b 97 335 226 3 97 138 l 97 722 "},"ω":{"ha":1043,"x_min":0,"x_max":0,"o":"m 726 -21 b 521 111 628 -21 556 29 b 314 -21 485 29 413 -21 b 56 308 153 -21 56 88 b 150 722 56 471 97 599 l 283 722 b 189 314 229 579 189 464 b 331 93 189 149 242 93 b 454 258 408 93 454 142 l 454 528 l 589 528 l 589 258 b 713 93 589 142 635 93 b 854 314 800 93 854 149 b 760 722 854 464 814 579 l 893 722 b 988 308 946 599 988 471 b 726 -21 988 76 886 -21 "},"ϊ":{"ha":328,"x_min":0,"x_max":0,"o":"m 97 0 l 97 722 l 231 722 l 231 0 m -65 861 l -65 1000 l 79 1000 l 79 861 m 249 861 l 249 1000 l 393 1000 l 393 861 "},"ϋ":{"ha":790,"x_min":0,"x_max":0,"o":"m 396 -21 b 97 251 219 -21 97 67 l 97 722 l 231 722 l 231 249 b 396 93 231 142 303 93 b 560 249 489 93 560 142 l 560 722 l 693 722 l 693 251 b 396 -21 693 67 572 -21 m 169 861 l 169 1000 l 314 1000 l 314 861 m 483 861 l 483 1000 l 628 1000 l 628 861 "},"ό":{"ha":824,"x_min":0,"x_max":0,"o":"m 56 361 b 413 743 56 621 217 743 b 768 361 610 743 768 621 b 411 -21 768 108 615 -21 b 56 361 210 -21 56 111 m 194 361 b 414 88 194 182 289 88 b 629 361 542 88 629 182 b 413 635 629 544 536 635 b 194 361 289 635 194 542 m 404 1000 l 569 1000 l 465 796 l 367 796 "},"ύ":{"ha":790,"x_min":0,"x_max":0,"o":"m 396 -21 b 97 251 219 -21 97 67 l 97 722 l 231 722 l 231 249 b 396 93 231 142 303 93 b 560 249 489 93 560 142 l 560 722 l 693 722 l 693 251 b 396 -21 693 67 572 -21 m 375 1000 l 540 1000 l 436 796 l 338 796 "},"ώ":{"ha":1043,"x_min":0,"x_max":0,"o":"m 726 -21 b 521 111 628 -21 556 29 b 314 -21 485 29 413 -21 b 56 308 153 -21 56 88 b 150 722 56 471 97 599 l 283 722 b 189 314 229 579 189 464 b 331 93 189 149 242 93 b 454 258 408 93 454 142 l 454 528 l 589 528 l 589 258 b 713 93 589 142 635 93 b 854 314 800 93 854 149 b 760 722 854 464 814 579 l 893 722 b 988 308 946 599 988 471 b 726 -21 988 76 886 -21 m 507 1000 l 672 1000 l 568 796 l 469 796 "},"Ё":{"ha":797,"x_min":0,"x_max":0,"o":"m 688 450 l 246 450 l 246 119 l 728 119 l 728 0 l 104 0 l 104 1000 l 728 1000 l 728 881 l 246 881 l 246 567 l 688 567 m 189 1097 l 189 1236 l 333 1236 l 333 1097 m 503 1097 l 503 1236 l 647 1236 l 647 1097 "},"Ђ":{"ha":1096,"x_min":0,"x_max":0,"o":"m 682 686 b 1026 340 886 686 1026 558 l 1026 176 b 832 -22 1026 58 957 -22 b 728 -6 801 -22 763 -17 l 728 104 b 811 92 758 97 792 92 b 885 183 863 92 885 107 l 885 344 b 664 568 885 485 818 568 b 446 378 553 568 446 504 l 446 0 l 304 0 l 304 874 l 14 874 l 14 1000 l 740 1000 l 740 874 l 446 874 l 446 594 b 682 686 500 647 579 686 "},"Ѓ":{"ha":689,"x_min":0,"x_max":0,"o":"m 675 881 l 246 881 l 246 0 l 104 0 l 104 1000 l 675 1000 m 415 1257 l 588 1257 l 393 1067 l 274 1067 "},"Є":{"ha":1013,"x_min":0,"x_max":0,"o":"m 638 450 l 208 450 b 524 99 224 222 349 99 b 814 353 686 99 806 208 l 957 353 b 521 -21 946 158 775 -21 b 63 500 242 -21 63 167 b 532 1021 63 838 257 1021 b 956 679 772 1021 942 863 l 813 679 b 532 903 794 815 686 903 b 210 567 357 903 229 792 l 638 567 "},"Ѕ":{"ha":907,"x_min":0,"x_max":0,"o":"m 703 271 b 388 481 703 364 657 407 b 83 764 156 544 83 626 b 442 1021 83 910 213 1021 b 838 750 656 1021 813 919 l 692 750 b 442 904 676 847 592 904 b 225 769 289 904 225 844 b 488 590 225 692 258 654 b 844 276 765 513 844 431 b 454 -21 844 121 703 -21 b 49 281 239 -21 76 97 l 194 281 b 451 96 211 168 303 96 b 703 271 618 96 703 176 "},"І":{"ha":350,"x_min":0,"x_max":0,"o":"m 246 1000 l 246 0 l 104 0 l 104 1000 "},"Ї":{"ha":350,"x_min":0,"x_max":0,"o":"m 246 1000 l 246 0 l 104 0 l 104 1000 m -54 1097 l -54 1236 l 90 1236 l 90 1097 m 260 1097 l 260 1236 l 404 1236 l 404 1097 "},"Ј":{"ha":750,"x_min":0,"x_max":0,"o":"m 178 281 b 347 99 183 153 247 99 b 511 294 450 99 511 169 l 511 1000 l 653 1000 l 653 293 b 342 -21 653 92 540 -21 b 35 281 160 -21 40 107 "},"Љ":{"ha":1468,"x_min":0,"x_max":0,"o":"m 696 881 l 319 881 l 260 236 b 14 0 246 92 192 0 l 14 125 b 124 231 78 125 115 135 l 193 1000 l 838 1000 l 838 643 l 1021 643 b 1413 318 1272 643 1413 529 b 1015 0 1413 115 1278 0 l 696 0 m 838 528 l 838 115 l 1018 115 b 1265 318 1194 115 1265 188 b 1024 528 1265 450 1181 528 "},"Њ":{"ha":1453,"x_min":0,"x_max":0,"o":"m 822 1000 l 822 601 l 1006 601 b 1397 299 1257 601 1397 496 b 1000 0 1397 110 1263 0 l 679 0 l 679 485 l 246 485 l 246 0 l 104 0 l 104 1000 l 246 1000 l 246 601 l 679 601 l 679 1000 m 822 486 l 822 115 l 1003 115 b 1250 299 1179 115 1250 182 b 1008 486 1250 417 1165 486 "},"Ћ":{"ha":1096,"x_min":0,"x_max":0,"o":"m 304 0 l 304 874 l 14 874 l 14 1000 l 740 1000 l 740 874 l 446 874 l 446 594 b 682 686 500 647 579 686 b 1026 340 886 686 1026 558 l 1026 0 l 885 0 l 885 344 b 664 568 885 485 818 568 b 446 382 556 568 446 503 l 446 0 "},"Ќ":{"ha":878,"x_min":0,"x_max":0,"o":"m 465 1257 l 638 1257 l 443 1067 l 324 1067 m 697 0 l 393 457 l 246 457 l 246 0 l 104 0 l 104 1000 l 246 1000 l 246 575 l 400 575 l 671 1000 l 821 1000 l 504 522 l 864 0 "},"Ў":{"ha":822,"x_min":0,"x_max":0,"o":"m 503 192 b 261 -21 449 63 394 -21 b 175 -8 232 -21 214 -18 l 175 106 b 244 96 214 96 228 96 b 376 232 313 96 342 125 l 329 232 l 0 1000 l 149 1000 l 421 335 l 685 1000 l 822 1000 m 414 1051 b 213 1207 311 1051 228 1094 l 329 1207 b 414 1140 332 1164 361 1140 b 499 1207 467 1140 496 1164 l 615 1207 b 414 1051 600 1094 517 1051 "},"Џ":{"ha":982,"x_min":0,"x_max":0,"o":"m 554 0 l 554 -194 l 422 -194 l 422 0 l 104 0 l 104 1000 l 246 1000 l 246 119 l 735 119 l 735 1000 l 878 1000 l 878 0 "},"А":{"ha":981,"x_min":0,"x_max":0,"o":"m 824 0 l 725 253 l 249 253 l 149 0 l 0 0 l 411 1000 l 571 1000 l 981 0 m 294 368 l 679 368 l 489 858 "},"Б":{"ha":876,"x_min":0,"x_max":0,"o":"m 689 881 l 246 881 l 246 643 l 429 643 b 821 318 681 643 821 529 b 424 0 821 115 686 0 l 104 0 l 104 1000 l 689 1000 m 246 528 l 246 115 l 426 115 b 674 318 603 115 674 188 b 432 528 674 450 589 528 "},"В":{"ha":906,"x_min":0,"x_max":0,"o":"m 464 1000 b 813 735 694 1000 813 900 b 651 529 813 640 743 553 b 843 282 754 511 843 414 b 461 0 843 106 713 0 l 104 0 l 104 1000 m 246 469 l 246 115 l 482 115 b 696 282 626 115 696 175 b 488 469 696 404 625 469 m 246 893 l 246 578 l 483 578 b 669 735 606 578 669 642 b 475 893 669 833 599 893 "},"Г":{"ha":689,"x_min":0,"x_max":0,"o":"m 675 881 l 246 881 l 246 0 l 104 0 l 104 1000 l 675 1000 "},"Д":{"ha":928,"x_min":0,"x_max":0,"o":"m 824 1000 l 824 122 l 914 122 l 914 -194 l 782 -194 l 782 0 l 153 0 l 153 -194 l 21 -194 l 21 122 l 75 122 b 157 324 125 153 153 232 l 185 1000 m 293 332 b 204 122 289 228 256 161 l 682 122 l 682 881 l 317 881 "},"Е":{"ha":797,"x_min":0,"x_max":0,"o":"m 688 450 l 246 450 l 246 119 l 728 119 l 728 0 l 104 0 l 104 1000 l 728 1000 l 728 881 l 246 881 l 246 567 l 688 567 "},"Ж":{"ha":1240,"x_min":0,"x_max":0,"o":"m 196 1000 l 404 576 l 553 576 l 553 1000 l 688 1000 l 688 576 l 835 576 l 1044 1000 l 1190 1000 l 940 521 l 1233 0 l 1071 0 l 832 456 l 688 456 l 688 0 l 553 0 l 553 456 l 408 456 l 169 0 l 7 0 l 300 521 l 50 1000 "},"З":{"ha":856,"x_min":0,"x_max":0,"o":"m 793 272 b 424 -21 793 106 653 -21 b 49 240 199 -21 71 85 l 194 240 b 421 90 217 143 282 90 b 650 275 568 90 650 165 b 444 465 650 386 563 465 l 357 465 l 357 581 l 442 581 b 617 750 533 581 617 653 b 413 910 617 844 542 910 b 196 771 282 910 210 854 l 51 771 b 419 1021 72 911 200 1021 b 760 760 631 1021 760 914 b 585 531 760 657 689 564 b 793 272 711 506 793 404 "},"И":{"ha":999,"x_min":0,"x_max":0,"o":"m 104 0 l 104 1000 l 243 1000 l 243 242 l 753 946 l 753 1000 l 894 1000 l 894 0 l 753 0 l 753 758 l 243 56 l 243 0 "},"Й":{"ha":999,"x_min":0,"x_max":0,"o":"m 104 0 l 104 1000 l 243 1000 l 243 242 l 753 946 l 753 1000 l 894 1000 l 894 0 l 753 0 l 753 758 l 243 56 l 243 0 m 508 1051 b 307 1207 406 1051 322 1094 l 424 1207 b 508 1140 426 1164 456 1140 b 593 1207 561 1140 590 1164 l 710 1207 b 508 1051 694 1094 611 1051 "},"К":{"ha":878,"x_min":0,"x_max":0,"o":"m 697 0 l 393 457 l 246 457 l 246 0 l 104 0 l 104 1000 l 246 1000 l 246 575 l 400 575 l 671 1000 l 821 1000 l 504 522 l 864 0 "},"Л":{"ha":942,"x_min":0,"x_max":0,"o":"m 838 1000 l 838 0 l 696 0 l 696 881 l 325 881 l 265 236 b 14 0 251 92 192 0 l 14 125 b 124 231 78 125 115 135 l 193 1000 "},"М":{"ha":1210,"x_min":0,"x_max":0,"o":"m 550 0 l 242 783 l 242 0 l 104 0 l 104 1000 l 301 1000 l 619 167 l 919 1000 l 1106 1000 l 1106 0 l 972 0 l 972 776 l 683 0 "},"Н":{"ha":982,"x_min":0,"x_max":0,"o":"m 878 1000 l 878 0 l 735 0 l 735 446 l 246 446 l 246 0 l 104 0 l 104 1000 l 246 1000 l 246 565 l 735 565 l 735 1000 "},"О":{"ha":1075,"x_min":0,"x_max":0,"o":"m 538 -21 b 63 500 260 -21 63 169 b 539 1021 63 836 275 1021 b 1013 500 803 1021 1013 844 b 538 -21 1013 169 807 -21 m 538 94 b 868 500 733 94 868 236 b 538 906 868 764 733 906 b 207 500 342 906 207 764 b 538 94 207 236 342 94 "},"П":{"ha":982,"x_min":0,"x_max":0,"o":"m 878 1000 l 878 0 l 735 0 l 735 881 l 246 881 l 246 0 l 104 0 l 104 1000 "},"Р":{"ha":876,"x_min":0,"x_max":0,"o":"m 429 1000 b 821 675 681 1000 821 886 b 424 357 821 472 686 357 l 246 357 l 246 0 l 104 0 l 104 1000 m 246 885 l 246 472 l 426 472 b 674 675 603 472 674 544 b 432 885 674 807 589 885 "},"С":{"ha":1013,"x_min":0,"x_max":0,"o":"m 524 99 b 814 353 686 99 806 208 l 957 353 b 521 -21 946 158 775 -21 b 63 500 242 -21 63 167 b 532 1021 63 838 257 1021 b 956 679 772 1021 942 863 l 813 679 b 532 903 794 815 686 903 b 207 500 340 903 207 771 b 524 99 207 242 336 99 "},"Т":{"ha":838,"x_min":0,"x_max":0,"o":"m 824 874 l 488 874 l 488 0 l 346 0 l 346 874 l 14 874 l 14 1000 l 824 1000 "},"У":{"ha":822,"x_min":0,"x_max":0,"o":"m 503 192 b 261 -21 449 63 394 -21 b 175 -8 232 -21 214 -18 l 175 106 b 244 96 214 96 228 96 b 376 232 313 96 342 125 l 329 232 l 0 1000 l 149 1000 l 421 335 l 685 1000 l 822 1000 "},"Ф":{"ha":1189,"x_min":0,"x_max":0,"o":"m 665 1021 l 665 965 b 1126 500 922 958 1126 801 b 665 35 1126 201 935 40 l 665 -21 l 524 -21 l 524 35 b 63 500 253 40 63 201 b 524 965 63 801 267 958 l 524 1021 m 207 500 b 524 150 207 256 335 154 l 524 850 b 207 500 335 844 207 743 m 982 500 b 665 850 982 743 853 844 l 665 150 b 982 500 853 154 982 256 "},"Х":{"ha":906,"x_min":0,"x_max":0,"o":"m 532 521 l 892 0 l 722 0 l 454 404 l 174 0 l 14 0 l 375 517 l 39 1000 l 206 1000 l 460 628 l 719 1000 l 881 1000 "},"Ц":{"ha":982,"x_min":0,"x_max":0,"o":"m 246 119 l 735 119 l 735 1000 l 878 1000 l 878 119 l 968 119 l 968 -194 l 836 -194 l 836 0 l 104 0 l 104 1000 l 246 1000 "},"Ч":{"ha":910,"x_min":0,"x_max":0,"o":"m 806 1000 l 806 0 l 664 0 l 664 425 b 413 314 606 349 521 314 b 83 660 213 314 83 429 l 83 1000 l 225 1000 l 225 656 b 447 432 225 507 293 432 b 664 650 569 432 664 521 l 664 1000 "},"Ш":{"ha":1344,"x_min":0,"x_max":0,"o":"m 104 0 l 104 1000 l 246 1000 l 246 122 l 604 122 l 604 1000 l 740 1000 l 740 122 l 1099 122 l 1099 1000 l 1240 1000 l 1240 0 "},"Щ":{"ha":1344,"x_min":0,"x_max":0,"o":"m 1240 119 l 1331 119 l 1331 -194 l 1199 -194 l 1199 0 l 104 0 l 104 1000 l 246 1000 l 246 122 l 604 122 l 604 1000 l 740 1000 l 740 122 l 1099 122 l 1099 1000 l 1240 1000 "},"Ъ":{"ha":1111,"x_min":0,"x_max":0,"o":"m 339 881 l 14 881 l 14 1000 l 481 1000 l 481 643 l 664 643 b 1056 318 915 643 1056 529 b 658 0 1056 115 921 0 l 339 0 m 481 528 l 481 115 l 661 115 b 908 318 838 115 908 188 b 667 528 908 450 824 528 "},"Ы":{"ha":1183,"x_min":0,"x_max":0,"o":"m 104 1000 l 246 1000 l 246 643 l 429 643 b 821 318 681 643 821 529 b 424 0 821 115 686 0 l 104 0 m 246 528 l 246 115 l 426 115 b 674 318 603 115 674 188 b 432 528 674 450 589 528 m 1079 1000 l 1079 0 l 938 0 l 938 1000 "},"Ь":{"ha":876,"x_min":0,"x_max":0,"o":"m 104 1000 l 246 1000 l 246 643 l 429 643 b 821 318 681 643 821 529 b 424 0 821 115 686 0 l 104 0 m 246 528 l 246 115 l 426 115 b 674 318 603 115 674 188 b 432 528 674 450 589 528 "},"Э":{"ha":1013,"x_min":0,"x_max":0,"o":"m 375 567 l 803 567 b 494 903 783 792 669 903 b 200 679 340 903 218 815 l 57 679 b 494 1021 71 867 250 1021 b 950 506 772 1021 950 838 b 497 -21 950 179 769 -21 b 56 353 232 -21 67 158 l 199 353 b 497 99 207 208 321 99 b 804 450 667 99 789 222 l 375 450 "},"Ю":{"ha":1417,"x_min":0,"x_max":0,"o":"m 893 -21 b 433 446 643 -21 454 149 l 246 446 l 246 0 l 104 0 l 104 1000 l 246 1000 l 246 565 l 435 565 b 894 1021 460 860 661 1021 b 1354 500 1144 1021 1354 844 b 893 -21 1354 169 1149 -21 m 893 94 b 1210 500 1075 94 1210 236 b 893 906 1210 764 1075 906 b 576 500 711 906 576 764 b 893 94 576 236 711 94 "},"Я":{"ha":914,"x_min":0,"x_max":0,"o":"m 14 0 l 288 404 b 94 689 183 444 94 533 b 450 1000 94 906 251 1000 l 810 1000 l 810 0 l 668 0 l 668 381 l 433 381 l 181 0 m 239 689 b 443 496 239 563 324 496 l 668 496 l 668 885 l 447 885 b 239 689 324 885 239 818 "},"а":{"ha":764,"x_min":0,"x_max":0,"o":"m 69 521 b 379 743 83 654 199 743 b 674 493 568 743 674 642 l 674 0 l 564 0 l 547 99 b 306 -21 500 32 422 -21 b 56 186 147 -21 56 68 b 329 426 56 318 135 393 l 540 463 l 540 499 b 374 638 540 588 481 638 b 211 521 271 638 221 593 m 338 92 b 540 265 439 92 540 167 l 540 358 l 361 326 b 197 200 232 304 197 264 b 338 92 197 131 247 92 "},"б":{"ha":813,"x_min":0,"x_max":0,"o":"m 56 408 b 356 913 56 694 133 863 b 508 1000 460 936 508 954 l 658 1000 b 381 815 658 907 617 885 b 189 558 244 775 213 703 b 436 688 239 640 325 688 b 757 340 604 688 757 560 b 407 -21 757 124 606 -21 b 56 408 178 -21 56 135 m 197 333 b 410 88 197 188 290 88 b 618 340 538 88 618 189 b 413 579 618 488 536 579 b 197 333 288 579 197 483 "},"в":{"ha":717,"x_min":0,"x_max":0,"o":"m 375 722 b 644 532 561 722 644 651 b 513 379 644 464 599 403 b 668 208 610 358 668 292 b 381 0 668 76 569 0 l 97 0 l 97 722 l 375 722 m 379 110 b 532 211 489 110 532 147 b 403 319 532 278 483 319 l 231 319 l 231 110 m 231 613 l 231 429 l 379 429 b 508 525 471 429 508 464 b 371 613 508 583 469 613 "},"г":{"ha":549,"x_min":0,"x_max":0,"o":"m 97 0 l 97 722 l 528 722 l 528 608 l 231 608 l 231 0 "},"д":{"ha":801,"x_min":0,"x_max":0,"o":"m 99 114 b 147 253 125 138 142 164 l 174 722 l 704 722 l 704 114 l 774 114 l 774 -194 l 650 -194 l 650 0 l 144 0 l 144 -194 l 21 -194 l 21 114 m 297 608 l 278 263 b 213 114 274 190 247 147 l 571 114 l 571 608 "},"е":{"ha":804,"x_min":0,"x_max":0,"o":"m 733 208 b 410 -21 697 76 583 -21 b 56 361 204 -21 56 107 b 403 743 56 613 203 743 b 742 332 603 743 742 624 l 192 332 b 414 92 203 165 293 92 b 589 208 501 92 568 142 m 406 636 b 197 438 299 636 218 571 l 606 438 b 406 636 596 572 517 636 "},"ж":{"ha":1025,"x_min":0,"x_max":0,"o":"m 182 722 l 357 432 l 442 432 l 442 722 l 569 722 l 569 432 l 667 432 l 843 722 l 990 722 l 781 385 l 1032 0 l 874 0 l 671 319 l 569 319 l 569 0 l 442 0 l 442 319 l 354 319 l 151 0 l -7 0 l 244 385 l 35 722 "},"з":{"ha":739,"x_min":0,"x_max":0,"o":"m 379 636 b 207 508 289 636 225 588 l 60 508 b 378 743 83 656 208 743 b 667 538 567 743 667 656 b 526 379 667 467 617 403 b 690 200 624 360 690 289 b 379 -21 690 82 594 -21 b 56 232 185 -21 75 92 l 201 232 b 382 90 215 142 274 90 b 554 203 503 90 554 138 b 385 315 554 267 493 315 l 303 315 l 303 431 l 382 431 b 531 532 486 431 531 467 b 379 636 531 594 476 636 "},"и":{"ha":788,"x_min":0,"x_max":0,"o":"m 97 0 l 97 722 l 228 722 l 228 225 l 560 681 l 560 722 l 690 722 l 690 0 l 560 0 l 560 497 l 228 42 l 228 0 "},"й":{"ha":788,"x_min":0,"x_max":0,"o":"m 97 0 l 97 722 l 228 722 l 228 225 l 560 681 l 560 722 l 690 722 l 690 0 l 560 0 l 560 497 l 228 42 l 228 0 m 397 815 b 196 971 294 815 211 858 l 313 971 b 397 904 315 928 344 904 b 482 971 450 904 479 928 l 599 971 b 397 815 583 858 500 815 "},"к":{"ha":722,"x_min":0,"x_max":0,"o":"m 97 0 l 97 722 l 231 722 l 231 432 l 289 432 l 529 722 l 689 722 l 393 382 l 729 0 l 556 0 l 276 319 l 231 319 l 231 0 "},"л":{"ha":775,"x_min":0,"x_max":0,"o":"m 678 722 l 678 0 l 544 0 l 544 608 l 272 608 l 239 236 b 14 0 224 71 151 0 l 14 119 b 110 225 75 119 103 140 l 153 722 "},"м":{"ha":968,"x_min":0,"x_max":0,"o":"m 432 0 l 224 531 l 224 0 l 97 0 l 97 722 l 289 722 l 494 181 l 678 722 l 871 722 l 871 0 l 743 0 l 743 519 l 554 0 "},"н":{"ha":794,"x_min":0,"x_max":0,"o":"m 97 0 l 97 722 l 231 722 l 231 444 l 564 444 l 564 722 l 697 722 l 697 0 l 564 0 l 564 331 l 231 331 l 231 0 "},"о":{"ha":824,"x_min":0,"x_max":0,"o":"m 56 361 b 413 743 56 621 217 743 b 768 361 610 743 768 621 b 411 -21 768 108 615 -21 b 56 361 210 -21 56 111 m 194 361 b 414 88 194 182 289 88 b 629 361 542 88 629 182 b 413 635 629 544 536 635 b 194 361 289 635 194 542 "},"п":{"ha":794,"x_min":0,"x_max":0,"o":"m 97 0 l 97 722 l 697 722 l 697 0 l 564 0 l 564 608 l 231 608 l 231 0 "},"р":{"ha":846,"x_min":0,"x_max":0,"o":"m 207 722 l 228 628 b 472 743 279 694 361 743 b 790 367 663 743 790 607 b 463 -21 790 117 653 -21 b 231 93 353 -21 276 26 l 231 -250 l 97 -250 l 97 722 m 651 369 b 442 629 651 547 561 629 b 224 369 322 629 224 542 b 442 93 224 194 311 93 b 651 369 567 93 651 179 "},"с":{"ha":769,"x_min":0,"x_max":0,"o":"m 714 232 b 397 -21 694 92 576 -21 b 56 356 206 -21 56 111 b 396 743 56 597 192 743 b 708 508 560 743 685 656 l 561 508 b 399 631 543 588 483 631 b 197 351 281 631 197 543 b 400 92 197 175 288 92 b 568 232 489 92 554 142 "},"т":{"ha":667,"x_min":0,"x_max":0,"o":"m 267 0 l 267 608 l 21 608 l 21 722 l 646 722 l 646 608 l 400 608 l 400 0 "},"у":{"ha":714,"x_min":0,"x_max":0,"o":"m 449 -10 b 213 -271 394 -168 346 -271 b 126 -258 183 -271 165 -268 l 126 -150 b 196 -160 154 -157 174 -160 b 322 0 260 -160 281 -114 l 279 0 l 14 722 l 158 722 l 363 108 l 567 722 l 700 722 "},"ф":{"ha":1197,"x_min":0,"x_max":0,"o":"m 532 72 b 342 -21 493 17 432 -21 b 56 367 179 -21 56 117 b 332 743 56 607 169 743 b 532 649 424 743 489 704 l 532 1000 l 665 1000 l 665 649 b 865 743 708 704 774 743 b 1142 367 1028 743 1142 607 b 856 -21 1142 117 1018 -21 b 665 72 765 -21 704 17 l 665 -250 l 532 -250 m 1003 369 b 835 629 1003 547 926 629 b 658 369 729 629 658 542 b 835 93 658 194 718 93 b 1003 369 932 93 1003 179 m 194 369 b 363 93 194 179 265 93 b 539 369 479 93 539 194 b 363 629 539 542 468 629 b 194 369 271 629 194 547 "},"х":{"ha":735,"x_min":0,"x_max":0,"o":"m 438 385 l 721 0 l 558 0 l 363 279 l 171 0 l 14 0 l 283 375 l 31 722 l 190 722 l 363 479 l 526 722 l 679 722 "},"ц":{"ha":794,"x_min":0,"x_max":0,"o":"m 697 722 l 697 114 l 767 114 l 767 -194 l 643 -194 l 643 0 l 97 0 l 97 722 l 231 722 l 231 114 l 564 114 l 564 722 "},"ч":{"ha":782,"x_min":0,"x_max":0,"o":"m 224 722 l 224 443 b 374 288 224 336 281 288 b 551 471 492 288 551 375 l 551 722 l 685 722 l 685 0 l 551 0 l 551 267 b 343 174 500 204 425 174 b 90 446 194 174 90 261 l 90 722 "},"ш":{"ha":1122,"x_min":0,"x_max":0,"o":"m 97 0 l 97 722 l 231 722 l 231 114 l 494 114 l 494 722 l 628 722 l 628 114 l 892 114 l 892 722 l 1025 722 l 1025 0 "},"щ":{"ha":1122,"x_min":0,"x_max":0,"o":"m 97 0 l 97 722 l 231 722 l 231 114 l 494 114 l 494 722 l 628 722 l 628 114 l 892 114 l 892 722 l 1025 722 l 1025 114 l 1094 114 l 1094 -194 l 971 -194 l 971 0 "},"ъ":{"ha":856,"x_min":0,"x_max":0,"o":"m 368 722 l 368 504 l 503 504 b 807 254 697 504 807 400 b 489 0 807 103 688 0 l 235 0 l 235 608 l 14 608 l 14 722 m 368 401 l 368 103 l 481 103 b 668 253 601 103 668 160 b 488 401 668 347 610 401 "},"ы":{"ha":974,"x_min":0,"x_max":0,"o":"m 231 722 l 231 504 l 365 504 b 669 254 560 504 669 400 b 351 0 669 103 550 0 l 97 0 l 97 722 m 231 401 l 231 103 l 343 103 b 531 253 464 103 531 160 b 350 401 531 347 472 401 m 743 0 l 743 722 l 876 722 l 876 0 "},"ь":{"ha":725,"x_min":0,"x_max":0,"o":"m 231 722 l 231 504 l 365 504 b 669 254 560 504 669 400 b 351 0 669 103 550 0 l 97 0 l 97 722 m 231 401 l 231 103 l 343 103 b 531 253 464 103 531 160 b 350 401 531 347 472 401 "},"э":{"ha":769,"x_min":0,"x_max":0,"o":"m 201 232 b 378 92 215 142 289 92 b 571 318 482 92 561 164 l 333 318 l 333 424 l 568 424 b 381 631 551 565 482 631 b 208 508 296 631 226 588 l 61 508 b 383 743 85 656 219 743 b 714 356 588 743 714 597 b 381 -21 714 111 572 -21 b 56 232 201 -21 75 92 "},"ю":{"ha":1110,"x_min":0,"x_max":0,"o":"m 97 0 l 97 722 l 231 722 l 231 444 l 375 444 b 713 743 404 647 544 743 b 1054 361 903 743 1054 621 b 711 -21 1054 108 908 -21 b 369 331 525 -21 382 100 l 231 331 l 231 0 m 508 361 b 714 88 508 182 596 88 b 915 361 835 88 915 182 b 713 635 915 544 829 635 b 508 361 596 635 508 542 "},"я":{"ha":744,"x_min":0,"x_max":0,"o":"m 14 0 l 231 276 b 71 488 140 303 71 382 b 349 722 71 640 192 722 l 647 722 l 647 0 l 514 0 l 514 267 l 382 267 l 171 0 m 210 493 b 326 379 210 422 258 379 l 514 379 l 514 621 l 364 621 b 210 493 261 621 210 568 "},"ё":{"ha":804,"x_min":0,"x_max":0,"o":"m 733 208 b 410 -21 697 76 583 -21 b 56 361 204 -21 56 107 b 403 743 56 613 203 743 b 742 332 603 743 742 624 l 192 332 b 414 92 203 165 293 92 b 589 208 501 92 568 142 m 406 636 b 197 438 299 636 218 571 l 606 438 b 406 636 596 572 517 636 m 172 861 l 172 1000 l 317 1000 l 317 861 m 486 861 l 486 1000 l 631 1000 l 631 861 "},"ђ":{"ha":818,"x_min":0,"x_max":0,"o":"m 261 810 l 261 640 b 472 743 314 708 390 743 b 728 471 629 743 728 647 l 728 -72 b 533 -271 728 -190 658 -271 b 429 -254 503 -271 464 -265 l 429 -144 b 513 -157 460 -151 493 -157 b 594 -65 568 -157 594 -142 l 594 469 b 440 629 594 578 539 629 b 261 444 344 629 261 558 l 261 0 l 128 0 l 128 810 l 21 810 l 21 924 l 128 924 l 128 1000 l 261 1000 l 261 924 l 417 924 l 417 810 "},"ѓ":{"ha":549,"x_min":0,"x_max":0,"o":"m 97 0 l 97 722 l 528 722 l 528 608 l 231 608 l 231 0 m 340 1021 l 513 1021 l 318 831 l 199 831 "},"є":{"ha":769,"x_min":0,"x_max":0,"o":"m 714 232 b 397 -21 694 92 576 -21 b 56 356 206 -21 56 111 b 396 743 56 597 192 743 b 708 508 560 743 685 656 l 561 508 b 399 631 543 588 483 631 b 201 424 296 631 219 565 l 436 424 l 436 318 l 199 318 b 400 92 208 164 294 92 b 568 232 489 92 554 142 "},"ѕ":{"ha":710,"x_min":0,"x_max":0,"o":"m 519 196 b 310 329 519 281 439 300 b 72 538 140 367 72 431 b 353 743 72 661 171 743 b 649 532 514 743 625 664 l 513 532 b 351 638 497 599 443 638 b 207 550 251 638 207 600 b 375 439 207 494 236 469 b 654 206 543 401 654 354 b 353 -21 654 74 544 -21 b 42 207 172 -21 54 68 l 178 207 b 354 85 193 121 253 85 b 519 196 463 85 519 133 "},"і":{"ha":328,"x_min":0,"x_max":0,"o":"m 89 843 l 89 1000 l 239 1000 l 239 843 m 97 0 l 97 722 l 231 722 l 231 0 "},"ї":{"ha":328,"x_min":0,"x_max":0,"o":"m 97 0 l 97 722 l 231 722 l 231 0 m -65 861 l -65 1000 l 79 1000 l 79 861 m 249 861 l 249 1000 l 393 1000 l 393 861 "},"ј":{"ha":328,"x_min":0,"x_max":0,"o":"m -68 -144 b 15 -157 -37 -151 -4 -157 b 97 -65 76 -157 97 -136 l 97 722 l 231 722 l 231 -72 b 36 -271 231 -190 161 -271 b -68 -254 6 -271 -33 -265 m 89 843 l 89 1000 l 239 1000 l 239 843 "},"љ":{"ha":1158,"x_min":0,"x_max":0,"o":"m 664 722 l 664 504 l 799 504 b 1103 254 993 504 1103 400 b 785 0 1103 103 983 0 l 531 0 l 531 608 l 272 608 l 239 236 b 14 0 225 92 169 0 l 14 119 b 110 225 64 119 101 129 l 153 722 m 664 401 l 664 103 l 776 103 b 964 253 897 103 964 160 b 783 401 964 347 906 401 "},"њ":{"ha":1164,"x_min":0,"x_max":0,"o":"m 97 0 l 97 722 l 231 722 l 231 444 l 536 444 l 536 722 l 669 722 l 669 504 l 804 504 b 1108 254 999 504 1108 400 b 790 0 1108 103 989 0 l 536 0 l 536 331 l 231 331 l 231 0 m 669 401 l 669 103 l 782 103 b 969 253 903 103 969 160 b 789 401 969 347 911 401 "},"ћ":{"ha":818,"x_min":0,"x_max":0,"o":"m 128 0 l 128 810 l 21 810 l 21 924 l 128 924 l 128 1000 l 261 1000 l 261 924 l 417 924 l 417 810 l 261 810 l 261 640 b 472 743 314 708 390 743 b 728 471 629 743 728 647 l 728 0 l 594 0 l 594 469 b 440 629 594 578 539 629 b 261 444 344 629 261 558 l 261 0 "},"ќ":{"ha":722,"x_min":0,"x_max":0,"o":"m 401 1021 l 574 1021 l 379 831 l 260 831 m 97 0 l 97 722 l 231 722 l 231 432 l 289 432 l 529 722 l 689 722 l 393 382 l 729 0 l 556 0 l 276 319 l 231 319 l 231 0 "},"ў":{"ha":714,"x_min":0,"x_max":0,"o":"m 449 -10 b 213 -271 394 -168 346 -271 b 126 -258 183 -271 165 -268 l 126 -150 b 196 -160 154 -157 174 -160 b 322 0 260 -160 281 -114 l 279 0 l 14 722 l 158 722 l 363 108 l 567 722 l 700 722 m 357 815 b 156 971 254 815 171 858 l 272 971 b 357 904 275 928 304 904 b 442 971 410 904 439 928 l 558 971 b 357 815 543 858 460 815 "},"џ":{"ha":794,"x_min":0,"x_max":0,"o":"m 697 722 l 697 0 l 460 0 l 460 -194 l 336 -194 l 336 0 l 97 0 l 97 722 l 231 722 l 231 114 l 564 114 l 564 722 "},"Ѣ":{"ha":1076,"x_min":0,"x_max":0,"o":"m 304 874 l 14 874 l 14 1000 l 740 1000 l 740 874 l 446 874 l 446 643 l 629 643 b 1021 318 881 643 1021 529 b 624 0 1021 115 886 0 l 304 0 m 446 528 l 446 115 l 626 115 b 874 318 803 115 874 188 b 632 528 874 450 789 528 "},"ѣ":{"ha":725,"x_min":0,"x_max":0,"o":"m 231 694 l 231 504 l 365 504 b 669 254 560 504 669 400 b 351 0 669 103 550 0 l 97 0 l 97 694 l -7 694 l -7 808 l 97 808 l 97 924 l 231 924 l 231 808 l 386 808 l 386 694 m 231 401 l 231 103 l 343 103 b 531 253 464 103 531 160 b 350 401 531 347 472 401 "},"Ѳ":{"ha":1075,"x_min":0,"x_max":0,"o":"m 538 -21 b 63 500 260 -21 63 169 b 539 1021 63 836 275 1021 b 1013 500 803 1021 1013 844 b 538 -21 1013 169 807 -21 m 538 94 b 867 450 721 94 850 218 l 208 450 b 538 94 224 218 354 94 m 538 906 b 210 567 358 906 231 788 l 864 567 b 538 906 843 788 715 906 "},"ѳ":{"ha":824,"x_min":0,"x_max":0,"o":"m 56 361 b 413 743 56 621 217 743 b 768 361 610 743 768 621 b 411 -21 768 108 615 -21 b 56 361 210 -21 56 111 m 414 88 b 626 311 529 88 611 164 l 197 311 b 414 88 213 164 301 88 m 413 635 b 197 417 301 635 215 560 l 625 417 b 413 635 608 563 522 635 "},"Ѵ":{"ha":899,"x_min":0,"x_max":0,"o":"m 899 1000 l 540 0 l 364 0 l 0 1000 l 150 1000 l 453 133 l 760 1000 "},"ѵ":{"ha":714,"x_min":0,"x_max":0,"o":"m 700 722 l 446 0 l 265 0 l 14 722 l 160 722 l 360 108 l 561 722 "},"Ґ":{"ha":689,"x_min":0,"x_max":0,"o":"m 675 1194 l 675 881 l 246 881 l 246 0 l 104 0 l 104 1000 l 543 1000 l 543 1194 "},"ґ":{"ha":549,"x_min":0,"x_max":0,"o":"m 97 0 l 97 722 l 404 722 l 404 896 l 528 896 l 528 608 l 231 608 l 231 0 "},"Ғ":{"ha":689,"x_min":0,"x_max":0,"o":"m 675 881 l 246 881 l 246 567 l 507 567 l 507 450 l 246 450 l 246 0 l 104 0 l 104 450 l -21 450 l -21 567 l 104 567 l 104 1000 l 675 1000 "},"ғ":{"ha":549,"x_min":0,"x_max":0,"o":"m 231 608 l 231 444 l 424 444 l 424 331 l 231 331 l 231 0 l 97 0 l 97 331 l 28 331 l 28 444 l 97 444 l 97 722 l 528 722 l 528 608 "},"Җ":{"ha":1240,"x_min":0,"x_max":0,"o":"m 196 1000 l 404 576 l 553 576 l 553 1000 l 688 1000 l 688 576 l 835 576 l 1044 1000 l 1190 1000 l 940 521 l 1165 119 l 1268 119 l 1268 -194 l 1136 -194 l 1136 0 l 1071 0 l 832 456 l 688 456 l 688 0 l 553 0 l 553 456 l 408 456 l 169 0 l 7 0 l 300 521 l 50 1000 "},"җ":{"ha":1033,"x_min":0,"x_max":0,"o":"m 182 722 l 357 432 l 442 432 l 442 722 l 569 722 l 569 432 l 667 432 l 843 722 l 990 722 l 781 385 l 957 114 l 1068 114 l 1068 -194 l 944 -194 l 944 0 l 874 0 l 671 319 l 569 319 l 569 0 l 442 0 l 442 319 l 354 319 l 151 0 l -7 0 l 244 385 l 35 722 "},"Ҙ":{"ha":856,"x_min":0,"x_max":0,"o":"m 594 -194 b 415 -346 594 -285 519 -346 b 236 -206 325 -346 250 -296 l 340 -206 b 417 -261 344 -232 371 -261 b 492 -196 461 -261 492 -237 b 361 -126 492 -150 457 -126 l 371 -18 b 49 240 178 -3 68 97 l 194 240 b 421 90 217 143 282 90 b 650 275 568 90 650 165 b 444 465 650 386 563 465 l 357 465 l 357 581 l 442 581 b 617 750 533 581 617 653 b 413 910 617 844 542 910 b 196 771 282 910 210 854 l 51 771 b 419 1021 72 911 200 1021 b 760 760 631 1021 760 914 b 585 531 760 657 689 564 b 793 272 711 506 793 404 b 468 -19 793 117 671 -4 l 468 -58 b 594 -194 550 -76 594 -119 "},"ҙ":{"ha":739,"x_min":0,"x_max":0,"o":"m 567 -194 b 388 -346 567 -285 492 -346 b 208 -206 297 -346 222 -296 l 313 -206 b 389 -261 317 -232 343 -261 b 464 -196 433 -261 464 -237 b 333 -126 464 -150 429 -126 l 343 -19 b 56 232 171 -6 74 100 l 201 232 b 382 90 215 142 274 90 b 554 203 503 90 554 138 b 385 315 554 267 493 315 l 303 315 l 303 431 l 382 431 b 531 532 486 431 531 467 b 379 636 531 594 476 636 b 207 508 289 636 225 588 l 60 508 b 378 743 83 656 208 743 b 667 538 567 743 667 656 b 526 379 667 467 617 403 b 690 200 624 360 690 289 b 440 -18 690 93 613 0 l 440 -58 b 567 -194 522 -76 567 -119 "},"Қ":{"ha":878,"x_min":0,"x_max":0,"o":"m 821 1000 l 504 522 l 782 119 l 871 119 l 871 -194 l 739 -194 l 739 0 l 697 0 l 393 457 l 246 457 l 246 0 l 104 0 l 104 1000 l 246 1000 l 246 575 l 400 575 l 671 1000 "},"қ":{"ha":731,"x_min":0,"x_max":0,"o":"m 689 722 l 393 382 l 626 114 l 750 114 l 750 -194 l 626 -194 l 626 0 l 556 0 l 276 319 l 231 319 l 231 0 l 97 0 l 97 722 l 231 722 l 231 432 l 289 432 l 529 722 "},"Ҝ":{"ha":906,"x_min":0,"x_max":0,"o":"m 725 0 l 421 457 l 400 457 l 400 129 l 296 129 l 296 457 l 246 457 l 246 0 l 104 0 l 104 1000 l 246 1000 l 246 575 l 296 575 l 296 821 l 400 821 l 400 575 l 418 575 l 690 1000 l 839 1000 l 531 526 l 892 0 "},"ҝ":{"ha":781,"x_min":0,"x_max":0,"o":"m 97 0 l 97 722 l 231 722 l 231 432 l 253 432 l 253 557 l 349 557 l 349 440 l 583 722 l 747 722 l 456 382 l 788 0 l 610 0 l 349 296 l 349 74 l 253 74 l 253 319 l 231 319 l 231 0 "},"Ҡ":{"ha":1100,"x_min":0,"x_max":0,"o":"m 919 0 l 615 457 l 468 457 l 468 0 l 326 0 l 326 881 l 1 881 l 1 1000 l 468 1000 l 468 575 l 622 575 l 893 1000 l 1043 1000 l 726 522 l 1086 0 "},"ҡ":{"ha":860,"x_min":0,"x_max":0,"o":"m 235 0 l 235 608 l 14 608 l 14 722 l 368 722 l 368 432 l 426 432 l 667 722 l 826 722 l 531 382 l 867 0 l 693 0 l 414 319 l 368 319 l 368 0 "},"Ң":{"ha":982,"x_min":0,"x_max":0,"o":"m 878 1000 l 878 119 l 968 119 l 968 -194 l 836 -194 l 836 0 l 735 0 l 735 446 l 246 446 l 246 0 l 104 0 l 104 1000 l 246 1000 l 246 565 l 735 565 l 735 1000 "},"ң":{"ha":794,"x_min":0,"x_max":0,"o":"m 97 0 l 97 722 l 231 722 l 231 444 l 564 444 l 564 722 l 697 722 l 697 114 l 767 114 l 767 -194 l 643 -194 l 643 0 l 564 0 l 564 331 l 231 331 l 231 0 "},"Ҫ":{"ha":1013,"x_min":0,"x_max":0,"o":"m 597 -343 b 417 -196 493 -343 417 -286 b 525 -21 417 -135 457 -68 b 63 500 239 -21 63 167 b 532 1021 63 838 257 1021 b 956 679 772 1021 942 863 l 813 679 b 532 903 794 815 686 903 b 207 500 340 903 207 771 b 524 99 207 242 336 99 b 814 353 686 99 806 208 l 957 353 b 721 21 949 217 864 90 b 524 -175 644 -17 524 -92 b 603 -254 524 -229 556 -254 b 672 -207 646 -254 667 -232 l 781 -207 b 597 -343 757 -293 688 -343 "},"ҫ":{"ha":769,"x_min":0,"x_max":0,"o":"m 444 -343 b 264 -196 340 -343 264 -286 b 374 -19 264 -133 304 -67 b 56 356 193 -10 56 121 b 396 743 56 597 192 743 b 708 508 560 743 685 656 l 561 508 b 399 631 543 588 483 631 b 197 351 281 631 197 543 b 400 92 197 175 288 92 b 568 232 489 92 554 142 l 714 232 b 542 7 701 146 658 65 b 371 -175 465 -31 371 -103 b 450 -254 371 -229 403 -254 b 519 -207 493 -254 514 -232 l 628 -207 b 444 -343 604 -293 535 -343 "},"Ү":{"ha":874,"x_min":0,"x_max":0,"o":"m 367 0 l 367 397 l 0 1000 l 156 1000 l 438 519 l 729 1000 l 874 1000 l 507 397 l 507 0 "},"ү":{"ha":714,"x_min":0,"x_max":0,"o":"m 288 -250 l 288 0 l 14 722 l 158 722 l 357 128 l 560 722 l 700 722 l 421 0 l 421 -250 "},"Ұ":{"ha":874,"x_min":0,"x_max":0,"o":"m 367 0 l 367 381 l 179 381 l 179 497 l 306 497 l 0 1000 l 156 1000 l 438 519 l 729 1000 l 874 1000 l 567 497 l 693 497 l 693 381 l 507 381 l 507 0 "},"ұ":{"ha":714,"x_min":0,"x_max":0,"o":"m 700 722 l 464 114 l 569 114 l 569 0 l 421 0 l 421 -250 l 288 -250 l 288 0 l 146 0 l 146 114 l 244 114 l 14 722 l 158 722 l 357 128 l 560 722 "},"Ҳ":{"ha":906,"x_min":0,"x_max":0,"o":"m 532 521 l 808 119 l 908 119 l 908 -194 l 776 -194 l 776 0 l 722 0 l 454 404 l 174 0 l 14 0 l 375 517 l 39 1000 l 206 1000 l 460 628 l 719 1000 l 881 1000 "},"ҳ":{"ha":735,"x_min":0,"x_max":0,"o":"m 438 385 l 636 114 l 760 114 l 760 -194 l 636 -194 l 636 0 l 558 0 l 363 279 l 171 0 l 14 0 l 283 375 l 31 722 l 190 722 l 363 479 l 526 722 l 679 722 "},"Ҹ":{"ha":910,"x_min":0,"x_max":0,"o":"m 806 1000 l 806 0 l 664 0 l 664 425 b 510 325 625 374 572 340 l 510 129 l 406 129 l 406 314 b 83 660 210 317 83 432 l 83 1000 l 225 1000 l 225 656 b 406 433 225 521 281 447 l 406 821 l 510 821 l 510 439 b 664 650 599 463 664 544 l 664 1000 "},"ҹ":{"ha":782,"x_min":0,"x_max":0,"o":"m 438 557 l 438 297 b 551 476 514 322 551 397 l 551 722 l 685 722 l 685 0 l 551 0 l 551 267 b 438 188 519 229 481 203 l 438 74 l 342 74 l 342 174 b 90 446 193 174 90 261 l 90 722 l 224 722 l 224 443 b 342 289 224 349 267 300 l 342 557 "},"Һ":{"ha":896,"x_min":0,"x_max":0,"o":"m 104 0 l 104 1000 l 246 1000 l 246 585 b 496 686 303 644 389 686 b 826 340 690 686 826 567 l 826 0 l 685 0 l 685 344 b 478 568 685 499 617 568 b 246 363 360 568 246 499 l 246 0 "},"һ":{"ha":788,"x_min":0,"x_max":0,"o":"m 97 0 l 97 1000 l 231 1000 l 231 543 b 442 646 283 611 360 646 b 697 374 599 646 697 550 l 697 0 l 564 0 l 564 372 b 410 532 564 481 508 532 b 231 343 311 532 231 463 l 231 0 "},"Ӏ":{"ha":350,"x_min":0,"x_max":0,"o":"m 246 1000 l 246 0 l 104 0 l 104 1000 "},"Ӌ":{"ha":910,"x_min":0,"x_max":0,"o":"m 806 1000 l 806 119 l 896 119 l 896 -194 l 764 -194 l 764 0 l 664 0 l 664 425 b 413 314 606 349 521 314 b 83 660 213 314 83 429 l 83 1000 l 225 1000 l 225 656 b 447 432 225 507 293 432 b 664 647 569 432 664 518 l 664 1000 "},"ӌ":{"ha":782,"x_min":0,"x_max":0,"o":"m 224 722 l 224 443 b 374 288 224 336 281 288 b 551 476 494 288 551 378 l 551 722 l 685 722 l 685 114 l 754 114 l 754 -194 l 631 -194 l 631 0 l 551 0 l 551 267 b 343 174 500 204 425 174 b 90 446 194 174 90 261 l 90 722 "},"ӏ":{"ha":328,"x_min":0,"x_max":0,"o":"m 231 0 l 97 0 l 97 1000 l 231 1000 "},"Ә":{"ha":1013,"x_min":0,"x_max":0,"o":"m 489 903 b 208 721 340 903 249 832 l 65 721 b 489 1021 99 882 253 1021 b 950 504 764 1021 950 838 b 492 -21 950 183 769 -21 b 40 511 222 -21 40 138 l 806 511 b 489 903 801 774 678 903 m 490 99 b 797 394 650 99 767 201 l 192 394 b 490 99 200 208 322 99 "},"ә":{"ha":804,"x_min":0,"x_max":0,"o":"m 64 514 b 396 743 100 646 222 743 b 742 361 601 743 742 615 b 401 -21 742 110 601 -21 b 56 390 201 -21 56 99 l 604 390 b 392 631 596 557 511 631 b 208 514 304 631 229 581 m 399 86 b 600 285 506 86 581 150 l 190 285 b 399 86 201 150 286 86 "},"Ӣ":{"ha":999,"x_min":0,"x_max":0,"o":"m 104 0 l 104 1000 l 243 1000 l 243 242 l 753 946 l 753 1000 l 894 1000 l 894 0 l 753 0 l 753 758 l 243 56 l 243 0 m 318 1115 l 318 1229 l 693 1229 l 693 1115 "},"ӣ":{"ha":788,"x_min":0,"x_max":0,"o":"m 97 0 l 97 722 l 228 722 l 228 225 l 560 681 l 560 722 l 690 722 l 690 0 l 560 0 l 560 497 l 228 42 l 228 0 m 208 879 l 208 993 l 583 993 l 583 879 "},"Ө":{"ha":1075,"x_min":0,"x_max":0,"o":"m 538 -21 b 63 500 260 -21 63 169 b 539 1021 63 836 275 1021 b 1013 500 803 1021 1013 844 b 538 -21 1013 169 807 -21 m 538 94 b 867 450 721 94 850 218 l 208 450 b 538 94 224 218 354 94 m 538 906 b 210 567 358 906 231 788 l 864 567 b 538 906 843 788 715 906 "},"ө":{"ha":824,"x_min":0,"x_max":0,"o":"m 56 361 b 413 743 56 621 217 743 b 768 361 610 743 768 621 b 411 -21 768 108 615 -21 b 56 361 210 -21 56 111 m 414 88 b 626 311 529 88 611 164 l 197 311 b 414 88 213 164 301 88 m 413 635 b 197 417 301 635 215 560 l 625 417 b 413 635 608 563 522 635 "},"Ӯ":{"ha":822,"x_min":0,"x_max":0,"o":"m 503 192 b 261 -21 449 63 394 -21 b 175 -8 232 -21 214 -18 l 175 106 b 244 96 214 96 228 96 b 376 232 313 96 342 125 l 329 232 l 0 1000 l 149 1000 l 421 335 l 685 1000 l 822 1000 m 235 1115 l 235 1229 l 610 1229 l 610 1115 "},"ӯ":{"ha":714,"x_min":0,"x_max":0,"o":"m 449 -10 b 213 -271 394 -168 346 -271 b 126 -258 183 -271 165 -268 l 126 -150 b 196 -160 154 -157 174 -160 b 322 0 260 -160 281 -114 l 279 0 l 14 722 l 158 722 l 363 108 l 567 722 l 700 722 m 169 879 l 169 993 l 544 993 l 544 879 "},"‒":{"ha":833,"x_min":0,"x_max":0,"o":"m 125 389 l 125 507 l 708 507 l 708 389 "},"–":{"ha":639,"x_min":0,"x_max":0,"o":"m 42 389 l 42 507 l 597 507 l 597 389 "},"—":{"ha":917,"x_min":0,"x_max":0,"o":"m 42 389 l 42 507 l 875 507 l 875 389 "},"―":{"ha":639,"x_min":0,"x_max":0,"o":"m 42 389 l 42 507 l 597 507 l 597 389 "},"‘":{"ha":403,"x_min":0,"x_max":0,"o":"m 121 771 b 303 1000 121 929 215 989 l 303 931 b 217 792 251 919 217 883 l 282 792 l 282 631 l 121 631 "},"’":{"ha":403,"x_min":0,"x_max":0,"o":"m 282 860 b 100 631 282 701 188 642 l 100 700 b 186 839 151 711 186 747 l 121 839 l 121 1000 l 282 1000 "},"‚":{"ha":403,"x_min":0,"x_max":0,"o":"m 282 21 b 100 -208 282 -137 188 -197 l 100 -139 b 186 0 151 -128 186 -92 l 121 0 l 121 161 l 282 161 "},"“":{"ha":640,"x_min":0,"x_max":0,"o":"m 121 771 b 303 1000 121 929 215 989 l 303 931 b 217 792 251 919 217 883 l 282 792 l 282 631 l 121 631 m 358 771 b 540 1000 358 929 453 989 l 540 931 b 454 792 489 919 454 883 l 519 792 l 519 631 l 358 631 "},"”":{"ha":640,"x_min":0,"x_max":0,"o":"m 519 860 b 338 631 519 701 425 642 l 338 700 b 424 839 389 711 424 747 l 358 839 l 358 1000 l 519 1000 m 282 860 b 100 631 282 701 188 642 l 100 700 b 186 839 151 711 186 747 l 121 839 l 121 1000 l 282 1000 "},"„":{"ha":640,"x_min":0,"x_max":0,"o":"m 519 21 b 338 -208 519 -137 425 -197 l 338 -139 b 424 0 389 -128 424 -92 l 358 0 l 358 161 l 519 161 m 282 21 b 100 -208 282 -137 188 -197 l 100 -139 b 186 0 151 -128 186 -92 l 121 0 l 121 161 l 282 161 "},"†":{"ha":833,"x_min":0,"x_max":0,"o":"m 482 740 l 739 740 l 739 615 l 482 615 l 482 0 l 349 0 l 349 615 l 93 615 l 93 740 l 349 740 l 349 1000 l 482 1000 "},"‡":{"ha":833,"x_min":0,"x_max":0,"o":"m 482 240 l 482 0 l 349 0 l 349 240 l 93 240 l 93 365 l 349 365 l 349 615 l 93 615 l 93 740 l 349 740 l 349 1000 l 482 1000 l 482 740 l 739 740 l 739 615 l 482 615 l 482 365 l 739 365 l 739 240 "},"•":{"ha":417,"x_min":0,"x_max":0,"o":"m 88 328 l 88 557 l 329 557 l 329 328 "},"…":{"ha":1250,"x_min":0,"x_max":0,"o":"m 128 0 l 128 161 l 289 161 l 289 0 m 544 0 l 544 161 l 706 161 l 706 0 m 961 0 l 961 161 l 1122 161 l 1122 0 "},"‰":{"ha":1689,"x_min":0,"x_max":0,"o":"m 522 758 b 285 524 522 601 406 524 b 49 758 164 524 49 601 b 285 993 49 915 164 993 b 522 758 406 993 522 915 m 161 758 b 285 621 161 658 217 621 b 411 758 353 621 411 658 b 285 896 411 858 353 896 b 161 758 217 896 161 858 m 381 0 l 247 0 l 778 972 l 911 972 m 1119 214 b 882 -21 1119 57 1003 -21 b 646 214 761 -21 646 57 b 882 449 646 371 761 449 b 1119 214 1003 449 1119 371 m 758 214 b 882 76 758 114 814 76 b 1008 214 950 76 1008 114 b 882 351 1008 314 950 351 b 758 214 814 351 758 314 m 1661 214 b 1424 -21 1661 57 1544 -21 b 1188 214 1303 -21 1188 57 b 1424 449 1188 371 1303 449 b 1661 214 1544 449 1661 371 m 1300 214 b 1424 76 1300 114 1356 76 b 1550 214 1492 76 1550 114 b 1424 351 1550 314 1492 351 b 1300 214 1356 351 1300 314 "},"‹":{"ha":432,"x_min":0,"x_max":0,"o":"m 83 438 l 256 722 l 349 722 l 240 433 l 335 125 l 242 125 "},"›":{"ha":432,"x_min":0,"x_max":0,"o":"m 190 125 l 97 125 l 192 433 l 83 722 l 176 722 l 349 438 "},"⁄":{"ha":375,"x_min":0,"x_max":0,"o":"m -110 -125 l -253 -125 l 475 1097 l 619 1097 "},"⁴":{"ha":472,"x_min":0,"x_max":0,"o":"m 351 917 l 351 774 l 422 774 l 422 682 l 351 682 l 351 583 l 253 583 l 253 682 l 49 682 l 49 779 l 165 1111 l 271 1111 l 153 774 l 253 774 l 253 806 l 271 917 "},"€":{"ha":833,"x_min":0,"x_max":0,"o":"m 32 638 l 100 638 b 488 993 143 871 290 993 b 828 721 690 993 804 872 l 683 721 b 488 875 663 814 597 875 b 244 638 358 875 274 799 l 582 638 l 554 529 l 232 529 l 232 486 b 233 435 232 468 232 451 l 526 435 l 499 326 l 246 326 b 489 99 278 176 361 99 b 683 256 590 99 658 153 l 829 256 b 486 -21 794 101 683 -21 b 101 326 286 -21 144 100 l 4 326 l 32 435 l 89 435 b 88 486 88 451 88 468 b 89 529 88 500 88 515 l 4 529 "},"№":{"ha":1693,"x_min":0,"x_max":0,"o":"m 894 1000 l 894 0 l 715 0 l 233 838 l 233 0 l 104 0 l 104 1000 l 292 1000 l 768 169 l 768 1000 m 1075 0 l 1075 118 l 1603 118 l 1603 0 m 1078 715 b 1347 1021 1078 961 1218 1021 b 1617 715 1476 1021 1617 963 b 1347 408 1617 468 1475 408 b 1078 715 1219 408 1078 469 m 1199 715 b 1347 504 1199 565 1263 504 b 1496 715 1432 504 1496 563 b 1347 925 1496 867 1431 925 b 1199 715 1264 925 1199 864 "},"™":{"ha":1167,"x_min":0,"x_max":0,"o":"m 728 450 l 596 894 l 596 450 l 497 450 l 497 908 l 308 908 l 308 450 l 201 450 l 201 908 l 35 908 l 35 1000 l 667 1000 l 785 583 l 896 1000 l 1063 1000 l 1063 450 l 961 450 l 961 894 l 838 450 "},"Ω":{"ha":1075,"x_min":0,"x_max":0,"o":"m 392 0 l 106 0 l 106 126 l 240 126 b 63 500 133 181 63 331 b 538 1021 63 878 315 1021 b 1013 500 760 1021 1013 886 b 831 126 1013 331 940 181 l 969 126 l 969 0 l 683 0 l 683 126 b 868 500 796 182 868 308 b 538 906 868 764 733 906 b 207 500 342 906 207 764 b 392 126 207 308 278 182 "},"℮":{"ha":1313,"x_min":0,"x_max":0,"o":"m 303 471 l 303 168 b 657 33 361 81 526 33 b 1018 169 788 33 940 79 l 1099 169 b 656 -21 997 51 849 -21 b 97 482 338 -21 97 190 b 656 993 97 774 349 993 b 1215 471 953 993 1215 781 m 1010 797 b 657 939 932 882 819 939 b 303 799 494 939 374 885 l 303 526 l 1010 526 "},"⅓":{"ha":1222,"x_min":0,"x_max":0,"o":"m 785 388 b 975 529 800 486 894 529 b 1142 382 1054 529 1142 483 b 1050 269 1142 333 1107 288 b 1163 135 1103 258 1163 219 b 971 -21 1163 47 1079 -21 b 781 122 858 -21 788 46 l 892 122 b 968 61 896 88 932 61 b 1053 143 1026 61 1053 97 b 960 226 1053 206 1010 226 l 928 226 l 928 306 l 956 306 b 1036 381 996 306 1036 326 b 967 446 1036 418 1010 446 b 893 388 933 446 900 431 m 318 -125 l 175 -125 l 903 1097 l 1047 1097 m 81 444 l 81 539 l 197 539 l 197 868 l 61 792 l 61 896 l 192 972 l 300 972 l 300 539 l 394 539 l 394 444 "},"⅔":{"ha":1222,"x_min":0,"x_max":0,"o":"m 333 -125 l 190 -125 l 918 1097 l 1063 1097 m 44 835 b 228 993 46 917 121 993 b 401 833 319 993 401 936 b 279 636 401 760 340 694 l 186 546 l 393 546 l 393 451 l 56 451 l 56 546 l 225 714 b 294 836 254 743 294 782 b 224 910 294 875 281 910 b 151 835 174 910 154 875 m 807 388 b 997 529 822 486 917 529 b 1164 382 1076 529 1164 483 b 1072 269 1164 333 1129 288 b 1185 135 1125 258 1185 219 b 993 -21 1185 47 1101 -21 b 803 122 881 -21 810 46 l 914 122 b 990 61 918 88 954 61 b 1075 143 1049 61 1075 97 b 982 226 1075 206 1032 226 l 950 226 l 950 306 l 978 306 b 1058 381 1018 306 1058 326 b 989 446 1058 418 1032 446 b 915 388 956 446 922 431 "},"←":{"ha":833,"x_min":0,"x_max":0,"o":"m 226 568 l 806 568 l 806 451 l 226 451 l 454 158 l 300 158 l 28 510 l 300 861 l 454 861 "},"↑":{"ha":833,"x_min":0,"x_max":0,"o":"m 479 703 l 479 121 l 354 121 l 354 703 l 65 479 l 65 626 l 417 899 l 768 626 l 768 479 "},"→":{"ha":833,"x_min":0,"x_max":0,"o":"m 607 451 l 28 451 l 28 568 l 607 568 l 379 861 l 533 861 l 806 510 l 533 158 l 379 158 "},"↓":{"ha":833,"x_min":0,"x_max":0,"o":"m 354 315 l 354 899 l 479 899 l 479 315 l 768 540 l 768 393 l 417 121 l 65 393 l 65 540 "},"↔":{"ha":1250,"x_min":0,"x_max":0,"o":"m 1024 451 l 226 451 l 454 158 l 300 158 l 28 510 l 300 861 l 454 861 l 226 568 l 1024 568 l 796 861 l 950 861 l 1222 510 l 950 158 l 796 158 "},"↕":{"ha":833,"x_min":0,"x_max":0,"o":"m 354 107 l 354 911 l 65 688 l 65 835 l 417 1107 l 768 835 l 768 688 l 479 911 l 479 107 l 768 332 l 768 185 l 417 -87 l 65 185 l 65 332 "},"↖":{"ha":833,"x_min":0,"x_max":0,"o":"m 319 694 l 736 279 l 647 190 l 239 599 l 194 240 l 86 343 l 142 785 l 583 840 l 686 740 "},"↗":{"ha":833,"x_min":0,"x_max":0,"o":"m 583 599 l 175 190 l 86 279 l 501 694 l 136 740 l 239 840 l 681 785 l 736 343 l 628 240 "},"↘":{"ha":833,"x_min":0,"x_max":0,"o":"m 501 336 l 86 751 l 175 840 l 583 432 l 628 790 l 736 688 l 681 246 l 239 190 l 136 290 "},"↙":{"ha":833,"x_min":0,"x_max":0,"o":"m 239 432 l 647 840 l 736 751 l 319 335 l 686 290 l 583 190 l 142 246 l 86 688 l 194 790 "},"∂":{"ha":807,"x_min":0,"x_max":0,"o":"m 214 1043 b 743 444 575 971 743 794 b 396 -21 743 140 607 -21 b 56 331 201 -21 56 107 b 371 671 56 538 194 671 b 615 544 475 671 581 617 b 214 918 585 776 447 883 m 388 560 b 192 324 274 560 192 479 b 396 90 192 149 290 90 b 611 326 518 90 611 181 b 388 560 611 474 519 560 "},"∆":{"ha":981,"x_min":0,"x_max":0,"o":"m 0 0 l 411 1000 l 571 1000 l 981 0 m 196 119 l 776 119 l 489 858 "},"∏":{"ha":833,"x_min":0,"x_max":0,"o":"m 104 0 l 104 853 l 14 853 l 14 972 l 819 972 l 819 853 l 729 853 l 729 0 l 586 0 l 586 853 l 246 853 l 246 0 "},"∑":{"ha":833,"x_min":0,"x_max":0,"o":"m 547 376 l 240 -132 l 772 -132 l 772 -250 l 69 -250 l 69 -135 l 386 376 l 69 885 l 69 1000 l 772 1000 l 772 882 l 240 882 "},"−":{"ha":833,"x_min":0,"x_max":0,"o":"m 125 389 l 125 507 l 708 507 l 708 389 "},"∕":{"ha":375,"x_min":0,"x_max":0,"o":"m -110 -125 l -253 -125 l 475 1097 l 619 1097 "},"∙":{"ha":417,"x_min":0,"x_max":0,"o":"m 128 361 l 128 522 l 289 522 l 289 361 "},"√":{"ha":833,"x_min":0,"x_max":0,"o":"m 263 0 l 21 639 l 160 639 l 338 153 l 639 1114 l 917 1114 l 917 1000 l 742 1000 l 417 0 "},"∞":{"ha":1097,"x_min":0,"x_max":0,"o":"m 335 733 b 549 610 410 733 494 689 b 767 733 599 693 679 733 b 1021 486 951 733 1021 604 b 763 239 1021 375 951 239 b 549 361 688 239 603 282 b 331 239 499 279 418 239 b 76 486 146 239 76 368 b 335 733 76 597 146 733 m 751 339 b 896 486 843 339 896 400 b 758 633 896 574 843 633 b 594 475 678 633 603 557 b 751 339 599 443 658 339 m 346 633 b 201 486 254 633 201 572 b 339 339 201 399 254 339 b 503 497 419 339 494 415 b 346 633 499 529 439 633 "},"∫":{"ha":833,"x_min":0,"x_max":0,"o":"m 483 -36 b 294 -233 483 -147 426 -233 b 164 -226 246 -233 201 -231 l 164 -112 b 274 -118 208 -117 249 -118 b 350 -44 324 -118 350 -97 l 350 1094 b 539 1292 350 1206 407 1292 b 669 1285 588 1292 632 1289 l 669 1171 b 560 1176 625 1175 585 1176 b 483 1103 510 1176 483 1156 "},"≈":{"ha":833,"x_min":0,"x_max":0,"o":"m 283 571 b 125 508 217 571 165 543 l 125 635 b 292 690 160 663 226 690 b 549 614 406 690 461 614 b 708 676 615 614 668 642 l 708 550 b 542 494 674 522 607 494 b 283 571 428 494 371 571 m 283 288 b 125 225 217 288 165 260 l 125 351 b 292 407 160 379 226 407 b 549 331 406 407 461 331 b 708 393 615 331 668 358 l 708 267 b 542 211 674 239 607 211 b 283 288 428 211 371 288 "},"≠":{"ha":833,"x_min":0,"x_max":0,"o":"m 356 246 l 238 56 l 114 56 l 232 246 l 125 246 l 125 364 l 304 364 l 408 531 l 125 531 l 125 649 l 481 649 l 596 833 l 719 833 l 604 649 l 708 649 l 708 531 l 532 531 l 428 364 l 708 364 l 708 246 "},"≤":{"ha":833,"x_min":0,"x_max":0,"o":"m 125 0 l 125 118 l 708 118 l 708 0 m 257 458 l 708 307 l 708 174 l 125 396 l 125 528 l 708 778 l 708 644 l 257 465 "},"≥":{"ha":833,"x_min":0,"x_max":0,"o":"m 125 0 l 125 118 l 708 118 l 708 0 m 576 465 l 125 644 l 125 778 l 708 528 l 708 396 l 125 174 l 125 307 l 576 458 "},"⋆":{"ha":833,"x_min":0,"x_max":0,"o":"m 417 1022 l 451 751 l 556 1003 l 519 733 l 685 950 l 581 699 l 796 864 l 629 649 l 881 754 l 664 589 l 935 625 l 682 521 l 953 486 l 682 451 l 935 347 l 664 383 l 881 218 l 629 322 l 796 107 l 581 274 l 685 22 l 519 239 l 556 -31 l 451 221 l 417 -50 l 382 221 l 279 -31 l 315 239 l 149 22 l 254 274 l 38 107 l 204 322 l -47 218 l 169 383 l -100 347 l 151 451 l -118 486 l 151 521 l -100 625 l 169 589 l -47 754 l 204 649 l 38 864 l 254 699 l 149 950 l 315 733 l 279 1003 l 382 751 "},"▯":{"ha":788,"x_min":0,"x_max":0,"o":"m 97 1000 l 690 1000 l 690 0 l 97 0 m 572 118 l 572 882 l 215 882 l 215 118 "},"◊":{"ha":833,"x_min":0,"x_max":0,"o":"m 481 0 l 333 0 l 56 486 l 335 972 l 481 972 l 778 486 m 410 875 l 194 486 l 410 97 l 640 486 "},"ﬀ":{"ha":846,"x_min":0,"x_max":0,"o":"m 853 889 b 743 906 808 900 768 906 b 667 832 693 906 667 885 l 667 722 l 822 722 l 822 608 l 667 608 l 667 0 l 533 0 l 533 608 l 268 608 l 268 0 l 135 0 l 135 608 l 28 608 l 28 722 l 135 722 l 135 782 b 365 1007 135 900 201 1007 b 579 965 443 1007 517 988 b 722 1021 610 1000 657 1021 b 853 1004 771 1021 815 1014 m 533 824 b 538 874 533 840 535 857 b 383 899 497 886 451 899 b 268 790 303 899 268 857 l 268 722 l 533 722 l 533 824 "},"ﬁ":{"ha":740,"x_min":0,"x_max":0,"o":"m 538 875 b 386 899 493 886 431 899 b 268 811 306 899 268 874 l 268 722 l 643 722 l 643 0 l 510 0 l 510 608 l 268 608 l 268 0 l 135 0 l 135 608 l 28 608 l 28 722 l 135 722 l 135 803 b 365 1014 135 921 201 1014 b 538 990 431 1014 500 1000 "},"ﬂ":{"ha":761,"x_min":0,"x_max":0,"o":"m 531 0 l 531 878 b 386 899 486 889 428 899 b 268 811 306 899 268 874 l 268 722 l 410 722 l 410 608 l 268 608 l 268 0 l 135 0 l 135 608 l 28 608 l 28 722 l 135 722 l 135 803 b 365 1014 135 921 201 1014 b 532 992 426 1014 493 1001 l 664 1000 l 664 0 "},"ﬃ":{"ha":1139,"x_min":0,"x_max":0,"o":"m 908 0 l 908 608 l 667 608 l 667 0 l 533 0 l 533 608 l 268 608 l 268 0 l 135 0 l 135 608 l 28 608 l 28 722 l 135 722 l 135 782 b 365 1007 135 900 201 1007 b 590 963 447 1007 526 986 b 764 1021 628 999 683 1021 b 936 997 829 1021 899 1007 l 936 882 b 785 906 892 893 829 906 b 667 818 704 906 667 881 l 667 722 l 1042 722 l 1042 0 m 533 810 b 540 872 533 832 535 853 b 383 899 499 886 453 899 b 268 790 303 899 268 857 l 268 722 l 533 722 l 533 810 "},"ﬄ":{"ha":1160,"x_min":0,"x_max":0,"o":"m 929 0 l 929 885 b 785 906 885 896 826 906 b 667 818 704 906 667 881 l 667 722 l 808 722 l 808 608 l 667 608 l 667 0 l 533 0 l 533 608 l 268 608 l 268 0 l 135 0 l 135 608 l 28 608 l 28 722 l 135 722 l 135 782 b 365 1007 135 900 201 1007 b 590 963 447 1007 526 986 b 764 1021 628 999 683 1021 b 931 999 825 1021 892 1008 l 1063 1007 l 1063 0 m 533 810 b 540 872 533 832 535 853 b 383 899 499 886 453 899 b 268 790 303 899 268 857 l 268 722 l 533 722 l 533 810 "}}}
